<?xml version="1.0" encoding="UTF-8" standalone="no"?>
<!-- Created with Inkscape (http://www.inkscape.org/) -->

<svg
   width="150mm"
   height="110mm"
   viewBox="0 0 150 110"
   version="1.1"
   id="svg5"
   inkscape:version="1.1.1 (c3084ef, 2021-09-22)"
   sodipodi:docname="groovy_logo.svg"
   xmlns:inkscape="http://www.inkscape.org/namespaces/inkscape"
   xmlns:sodipodi="http://sodipodi.sourceforge.net/DTD/sodipodi-0.dtd"
   xmlns="http://www.w3.org/2000/svg"
   xmlns:svg="http://www.w3.org/2000/svg">
  <sodipodi:namedview
     id="namedview7"
     pagecolor="#ffffff"
     bordercolor="#666666"
     borderopacity="1.0"
     inkscape:pageshadow="2"
     inkscape:pageopacity="0.0"
     inkscape:pagecheckerboard="0"
     inkscape:document-units="mm"
     showgrid="false"
     inkscape:zoom="0.51936728"
     inkscape:cx="322.5078"
     inkscape:cy="407.22627"
     inkscape:window-width="1312"
     inkscape:window-height="779"
     inkscape:window-x="0"
     inkscape:window-y="25"
     inkscape:window-maximized="0"
     inkscape:current-layer="layer1" />
  <defs
     id="defs2" />
  <g
     inkscape:label="Layer 1"
     inkscape:groupmode="layer"
     id="layer1">
    <path
       style="fill:#ebeaea;stroke:none;stroke-width:0.11564;fill-opacity:1"
       d="m 75.463603,20.606325 c -0.83792,1.977716 -2.04223,3.836234 -3.060594,5.708847 l -5.812927,10.688901 c -1.036749,1.906387 -2.089682,3.80233 -3.126651,5.708842 -0.488595,0.898354 -0.933703,2.122599 -1.608464,2.862927 -0.286683,0.314719 -1.529417,1.098044 -1.914523,1.021642 -1.024749,-0.203093 -1.570592,-0.988237 -2.752334,-0.825472 -1.293597,0.178187 -1.973533,1.41384 -2.752333,2.406816 -0.196737,-0.881221 -0.151709,-1.839214 -0.497512,-2.672223 -0.225251,-0.542824 -0.90926,-1.012045 -0.976968,-1.589975 -0.0862,-0.736193 0.252444,-1.68119 0.342499,-2.418362 0.152701,-1.250964 0.167563,-2.50363 0.13949,-3.765406 -0.101621,-4.576432 -3.673815,-7.213164 -7.484696,-5.464507 -4.236722,1.944092 -7.449356,6.873495 -10.087743,10.808954 -0.816121,1.217443 -1.59415,2.468288 -2.303262,3.765416 -0.245838,0.449658 -0.490355,1.283629 -0.953736,1.505799 -0.525696,0.251911 -1.392575,0.07321 -1.95823,0.07321 h -4.623926 c -5.466789,0 -10.946622,-0.120866 -16.4039035,-0.121463 v 0.121463 l 15.4130675,6.386128 4.403734,1.821974 1.967037,0.879653 1.497381,2.694323 2.700808,2.550763 c -0.463383,0.07555 -0.922142,0.219615 -1.32068,0.50202 -0.346243,0.245474 -0.615973,0.576473 -0.83847,0.955681 -1.673527,2.852601 1.284899,4.77527 2.466971,6.923373 0.663091,1.205175 1.0395,2.838394 2.114342,3.687914 2.083736,1.646699 5.803461,-0.750049 8.036703,-1.258618 -2.283556,4.732758 -5.260369,9.216387 -7.892812,13.72552 -1.089483,1.866191 -2.644551,3.866101 -3.336707,5.951777 3.176302,-0.830453 6.305705,-2.675749 9.357933,-3.956841 6.694995,-2.809718 13.370065,-5.688803 20.036986,-8.578691 2.565066,-1.111767 5.144993,-2.181993 7.706533,-3.303352 1.031246,-0.451486 2.518937,-1.450778 3.633082,-1.450778 1.077703,0 2.523778,0.988844 3.522987,1.426235 2.524439,1.105089 5.063853,2.17179 7.59644,3.254049 6.64336,2.839114 13.268122,5.736538 19.926895,8.531078 3.15418,1.323845 6.40171,3.239097 9.68821,4.0783 l -1.93499,-3.522483 -4.8908,-8.502533 c 1.54858,-0.07338 3.07744,-0.660523 4.40374,-1.53094 1.11524,-0.732072 2.18832,-1.629822 3.03549,-2.720322 2.8501,-3.669575 3.46002,-8.45906 2.75101,-13.118206 -0.30484,-2.008546 -1.02772,-3.944564 -1.27267,-5.951777 2.08956,-0.345448 4.29694,-1.675972 6.27532,-2.499261 3.51858,-1.464371 7.05037,-2.890009 10.56896,-4.354268 2.00811,-0.835799 4.07675,-1.953266 6.16522,-2.499261 v -0.121462 h -17.28464 c -1.72297,0 -3.45144,-0.04478 -5.1744,0.0017 -0.69667,0.0188 -1.50013,0.295764 -2.18986,0.081 -0.54794,-0.170658 -0.47208,-1.057475 -0.65935,-1.540417 -0.32368,-0.834222 -0.89814,-1.489045 -1.66461,-1.830354 -2.05358,-0.914509 -5.1352,-0.543073 -5.72486,2.194748 h -0.11008 c -0.80489,-2.421035 -4.64935,-3.861733 -5.61477,-0.728787 -1.58413,-1.178084 -3.34606,-1.909186 -5.284475,-1.679375 -0.533511,0.06316 -1.019577,0.418929 -1.541311,0.463146 -0.626209,0.05294 -1.217514,-0.402172 -1.87158,-0.325891 -0.946476,0.110413 -1.63676,1.241253 -2.422056,1.303438 -0.321143,0.02538 -0.635461,-0.33779 -0.880743,-0.520958 -0.681152,-0.508457 -1.545054,-0.738509 -2.190425,-1.268705 -0.523488,-0.430103 -0.827126,-1.25303 -1.156417,-1.858528 L 85.460084,38.704441 C 83.234328,34.611427 80.992277,30.52908 78.766411,26.436482 77.785259,24.632401 76.863777,22.03228 75.463609,20.606172 m 0.220187,4.980058 7.045975,12.99673 2.972519,5.587379 c -2.127774,0.01942 -3.7991,1.535194 -4.9542,3.401014 h -0.110098 c -1.745749,-2.527924 -5.545841,-3.910923 -8.256999,-2.511524 -1.370001,0.707161 -2.148141,2.023114 -3.3028,2.997385 -1.047869,-2.42978 -2.920226,-2.216854 -4.844107,-1.457578 0.443786,-1.664554 1.656684,-3.256957 2.465981,-4.737126 1.679914,-3.072694 3.346837,-6.154255 5.020365,-9.231323 1.193082,-2.193555 2.299961,-5.265509 3.96336,-7.044957 M 43.866817,41.255181 c 6.66e-4,1.116749 0.664413,2.197421 0.526576,3.27955 -0.154792,1.215502 -1.210477,2.174103 -1.640831,3.279546 -0.889223,2.284394 0.475053,5.479282 2.765544,3.257081 2.53556,-2.459904 3.142395,-7.412267 3.554143,-10.909359 0.138279,-1.175171 0.348445,-3.400407 -0.806433,-4.07429 -1.765126,-1.030024 -4.358155,2.323255 -5.38973,3.466968 -2.6778,2.968597 -6.206401,7.626531 -6.381229,12.025016 -0.163047,4.101864 2.178747,8.663601 6.491213,7.438621 3.107164,-0.882684 5.340958,-4.194301 6.51081,-7.317162 0.400409,-1.068762 0.670468,-4.600599 1.746189,-4.737124 0.577331,5.035565 3.613594,9.925745 3.292893,15.061632 -0.382354,6.126445 -6.838668,7.703907 -11.219612,8.912236 -1.202771,0.331846 -2.418091,0.968563 -3.63308,1.169342 -0.830875,-2.362736 -2.202968,-4.234991 -3.743173,-6.073236 1.110622,-0.542468 2.359409,-0.861918 3.522986,-1.248656 4.708472,-1.56496 13.465076,-4.343949 11.901199,-11.505146 -0.174387,-0.798634 -0.48386,-1.503738 -0.891865,-2.18637 -1.345781,4.563071 -4.539368,8.557199 -9.027654,9.247116 -2.6538,0.407997 -5.862911,-0.496181 -6.887548,-3.538265 -0.735424,-2.183458 -0.100404,-4.802238 0.805882,-6.802035 1.931588,-4.262203 4.919521,-8.192311 7.953253,-11.539151 1.210257,-1.335142 4.668728,-5.123631 6.470735,-2.908477 1.018475,1.251937 0.758433,3.68512 0.592302,5.216305 -0.433657,3.998621 -1.551214,8.03016 -4.20072,10.931345 -1.281377,1.403165 -3.357296,2.660692 -5.174277,1.710712 -1.298771,-0.678994 -1.460829,-2.250019 -1.429562,-3.653661 0.06209,-2.799157 1.985202,-7.182216 4.291989,-8.502538 m 42.055654,6.142721 c 4.301123,-0.02296 7.316479,5.107472 6.745532,9.526238 -0.38764,2.999574 -2.043005,6.032674 -5.094133,6.07275 -1.188015,0.01568 -2.323079,-0.09292 -3.412892,-0.666596 -3.204267,-1.686904 -3.327351,-6.275116 -2.384182,-9.535957 0.617843,-2.1362 1.704355,-5.38344 4.145675,-5.396435 M 74.03239,47.85437 c 3.425994,-0.658105 5.502135,2.642336 5.715056,6.033152 0.280407,4.468935 -1.732099,9.208971 -6.155429,9.908124 -2.466311,0.389786 -4.084132,-1.379845 -4.448871,-3.956347 -0.433107,-3.059333 0.452373,-6.997349 2.125461,-9.474258 0.669037,-0.990542 1.584793,-2.284143 2.763783,-2.510671 m 25.98203,30.569041 v -0.121463 c 2.26451,-1.706458 2.86243,-3.799784 2.86243,-6.680558 4.25136,1.809464 10.69116,2.675628 12.39221,-3.522481 0.76669,-2.793691 -0.0631,-5.348708 -0.17185,-8.138138 h -0.1101 c 0,2.61379 -0.003,5.477575 -1.31573,7.773622 -1.0296,1.800109 -3.07975,1.940766 -4.17738,0.121575 -0.80434,-1.333192 -1.05173,-3.066861 -1.2871,-4.615656 -0.44786,-2.946252 -0.60496,-5.941087 -1.16974,-8.866936 -0.2257,-1.169335 -0.50764,-2.340619 -1.02156,-3.401014 -0.24407,-0.503587 -0.88911,-1.127551 -0.92732,-1.700506 -0.025,-0.375198 0.26698,-0.786236 0.4308,-1.093184 0.7689,0.70292 1.10776,1.911986 1.45235,2.915158 0.90684,2.639554 1.21136,6.165917 3.07139,8.254382 1.8031,2.024453 3.78842,-0.123404 4.16317,-2.302605 0.59704,-3.471341 -1.70303,-5.917885 -2.52169,-8.988395 0.43202,0 1.22622,-0.164342 1.55706,0.211592 0.45875,0.521443 0.52811,2.003921 0.68588,2.703558 0.54397,2.411928 0.88515,4.876942 1.43143,7.287889 1.00317,4.427153 2.37065,8.804863 1.05645,13.361134 -1.6918,5.865777 -7.47346,7.673777 -12.43735,7.298813 -1.25737,-0.09511 -2.80627,0.121102 -3.96335,-0.496787 M 84.711444,48.178828 c -1.60373,1.926921 -2.081424,4.762395 -0.776048,7.04484 1.540866,2.69421 5.340739,2.954629 7.251191,0.605624 1.774921,-2.182359 -0.225363,-5.062413 -1.851221,-6.500916 -0.650105,-0.575259 -1.650301,-1.281577 -2.532148,-1.105937 -2.081535,0.414555 0.198828,2.409742 0.750176,3.027625 0.208076,0.233337 0.484083,0.571256 0.348334,0.924355 -0.704817,1.833384 -2.884775,0.06385 -3.336708,-0.958965 -0.531201,-1.202263 0.160627,-1.902143 0.146424,-3.036626 m 9.9084,0.242935 c 1.647767,2.756639 1.318481,6.429132 3.059384,9.109855 1.432315,2.205801 4.080612,2.206649 5.272042,-0.242928 1.38629,-2.850539 -0.5585,-8.006715 -3.7075,-8.016678 0.0568,1.20663 0.81655,1.762579 0.392371,3.036497 -0.12639,0.37946 -0.27072,0.892647 -0.727501,0.75782 -1.332678,-0.393182 -2.598642,-3.252212 -1.505742,-4.49541 1.247019,-1.418708 3.811872,0.476264 4.654962,1.55317 2.52962,3.230849 3.34134,8.274914 2.58003,12.387589 -0.41548,2.244673 -1.65084,4.721452 -4.073,4.01757 -1.609017,-0.467765 -2.577173,-2.143607 -3.116195,-3.774643 -1.016048,-3.074754 -1.293709,-6.349933 -2.137569,-9.47425 -0.400189,-1.482113 -2.372516,-3.919423 -0.691282,-4.858592 m -21.248013,0.242928 c -0.605294,0.668293 -1.175247,1.332472 -1.562224,2.186368 -1.103136,2.434157 -0.937446,7.327116 2.222783,7.7514 2.103444,0.282285 4.601131,-1.453455 5.197618,-3.743065 0.546833,-2.099277 -0.928528,-5.035201 -2.665471,-5.908894 -0.8966,-0.451122 -2.437686,-0.136412 -2.158049,1.293237 0.207635,1.061477 1.386625,1.449195 1.657565,2.429296 0.292519,1.058558 -1.47525,1.640255 -2.141756,1.397084 -2.586422,-0.943292 -0.534504,-3.757879 -0.550466,-5.405426 m -15.633254,0.364394 c 0.204884,0.796693 0.473512,3.26837 1.235798,3.614554 0.393363,0.178793 0.824378,-0.321034 1.076162,-0.58316 0.863021,-0.89859 1.541417,-1.951447 2.201867,-3.031394 h 0.220185 c 0.212592,0.355653 0.38698,0.73073 0.588891,1.092699 1.219283,2.186613 2.07592,-0.579633 3.264377,-0.849772 0,2.126611 -1.379139,5.393646 -3.743173,5.195785 -1.020456,-0.08543 -2.491303,-1.92498 -3.356306,-0.795723 -0.432116,0.564084 -0.287564,1.498635 -0.166241,2.159038 0.30672,1.670019 1.192642,4.487881 2.861986,5.022206 1.174917,0.376057 2.431852,-0.8494 3.522987,-1.135331 -0.0032,1.217442 -0.15446,2.418848 -0.105804,3.643948 0.01883,0.472254 0.303967,1.222537 0.09292,1.659209 -0.214352,0.443222 -0.906068,0.630392 -1.30824,0.765349 -1.450148,0.486339 -2.954354,0.333173 -3.800532,-1.209914 -2.108287,-3.844477 -0.338977,-10.428361 -4.236282,-13.118198 l 1.651401,-2.429296 m -25.431562,0.607322 c -0.582279,1.665411 -0.990836,3.306644 -0.990836,5.10152 l -12.550644,-5.10152 3.963366,-0.121463 9.578114,0.121463 M 132.49196,49.514944 v 0.121463 c -4.99824,1.306847 -9.75428,4.19418 -14.64242,5.951777 l -1.21103,-5.951777 15.85345,-0.121463 m -21.5783,4.129803 -0.11009,0.121462 0.11009,-0.121462 m 0.11008,0.364386 -0.11008,0.121463 0.11008,-0.121463 m 0.1101,0.364395 -0.1101,0.121462 0.1101,-0.121462 m -44.918083,1.943442 -0.110098,0.121462 0.110098,-0.121462 m 27.963704,5.830309 c 0.469995,2.241389 1.547479,4.639828 3.192714,6.096558 1.172164,1.037921 3.118725,1.249999 3.576925,3.013296 0.24474,0.941846 0.10669,2.341607 -0.38081,3.156277 -0.4069,0.679954 -1.115137,1.009124 -1.603291,1.601995 -1.090798,1.324329 -1.018135,3.171445 0.09172,4.451921 1.426581,1.645971 3.529041,1.390535 5.361431,0.992734 0.56291,-0.122197 1.52479,-0.566146 2.08153,-0.391356 0.56005,0.175874 0.9271,1.22971 1.22127,1.727588 0.96046,1.625449 2.43901,3.497099 2.97252,5.344456 -3.08624,-0.806898 -6.18339,-2.581372 -9.13775,-3.862211 -5.601325,-2.428327 -11.207498,-4.87099 -16.844277,-7.197158 -2.100141,-0.866649 -4.193455,-1.771805 -6.27532,-2.690443 -0.810507,-0.357593 -1.980909,-1.136917 -2.862426,-1.104846 -0.876674,0.03197 -1.941166,0.75284 -2.752335,1.104483 -1.903624,0.825229 -3.809119,1.657259 -5.724854,2.44787 -6.22908,2.570569 -12.389792,5.34397 -18.605773,7.952787 -2.554496,1.072176 -5.345471,2.838272 -8.036813,3.349518 1.523031,-3.551997 3.938589,-6.896655 5.868855,-10.203048 0.999649,-1.7124 1.88766,-3.999594 3.194689,-5.438582 0.725074,-0.798511 2.059296,-1.121244 2.936629,-1.734275 2.090233,-1.46062 3.726219,-3.513982 4.62392,-6.0668 h 0.110098 c 0.589661,1.910522 1.874231,3.619406 3.63308,4.306162 2.622754,1.024078 7.00557,-0.321149 7.706535,-3.577371 3.892789,2.648052 8.896642,1.914281 11.669894,-2.429297 0.885039,0.687846 1.559912,1.570773 2.532146,2.148831 2.548991,1.515268 6.081222,1.6371 8.58728,-0.03726 1.1867,-0.792802 1.870598,-1.962509 2.862424,-2.961802 m 11.890088,5.10152 0.22018,0.971725 h -0.99084 z"
       id="path1196" />
  </g>
</svg>
