<?xml version="1.0" encoding="UTF-8" standalone="no"?>
<!-- Created with Inkscape (http://www.inkscape.org/) -->

<svg
   width="150mm"
   height="100mm"
   viewBox="0 0 150 100"
   version="1.1"
   id="svg5"
   inkscape:version="1.1.1 (c3084ef, 2021-09-22)"
   sodipodi:docname="imb_logo.svg"
   xmlns:inkscape="http://www.inkscape.org/namespaces/inkscape"
   xmlns:sodipodi="http://sodipodi.sourceforge.net/DTD/sodipodi-0.dtd"
   xmlns="http://www.w3.org/2000/svg"
   xmlns:svg="http://www.w3.org/2000/svg">
  <sodipodi:namedview
     id="namedview7"
     pagecolor="#ffffff"
     bordercolor="#666666"
     borderopacity="1.0"
     inkscape:pageshadow="2"
     inkscape:pageopacity="0.0"
     inkscape:pagecheckerboard="0"
     inkscape:document-units="mm"
     showgrid="false"
     inkscape:zoom="0.50754574"
     inkscape:cx="341.84111"
     inkscape:cy="312.28712"
     inkscape:window-width="1312"
     inkscape:window-height="779"
     inkscape:window-x="0"
     inkscape:window-y="25"
     inkscape:window-maximized="0"
     inkscape:current-layer="layer1" />
  <defs
     id="defs2" />
  <g
     inkscape:label="Layer 1"
     inkscape:groupmode="layer"
     id="layer1">
    <g
       id="g1371"
       transform="matrix(0.22572106,0,0,0.19271318,52.77116,40.89176)"
       style="fill:#ebeaea;fill-opacity:1">
      <path
         style="fill:#ebeaea;fill-opacity:1;stroke-width:0.264583"
         d="m -154.96455,173.70467 c -0.35702,-0.35702 -0.4152,-1.39459 -0.41172,-7.34219 0.002,-3.902 0.11359,-7.09971 0.25492,-7.32329 0.22134,-0.35015 6.26089,-0.40489 51.30264,-0.46502 32.967817,-0.044 51.294033,0.024 51.735697,0.19189 l 0.683934,0.26004 v 7.27328 c 0,6.92009 -0.02484,7.28658 -0.511773,7.54717 -0.347707,0.18609 -16.881752,0.27389 -51.574848,0.27389 -46.0682,0 -51.10375,-0.0407 -51.47885,-0.41577 z m 116.993075,0.23339 c -0.427014,-0.11159 -0.463021,-0.6949 -0.463021,-7.50063 0,-7.02523 0.02458,-7.39277 0.511773,-7.65351 0.349216,-0.1869 23.61226,-0.27389 73.239011,-0.27389 79.515082,0 74.546922,-0.0993 73.092962,1.46087 -0.95412,1.02379 -5.10625,4.10666 -7.69668,5.71462 -2.869748,1.78135 -9.000355,4.7422 -11.903284,5.74886 -3.156452,1.09456 -7.778014,2.08765 -11.223995,2.41183 -2.863564,0.26938 -114.537744,0.35815 -115.556766,0.0918 z m 176.153255,-0.24537 c -0.37674,-0.37676 -0.41844,-1.27334 -0.34962,-7.51901 0.043,-3.90019 0.17735,-7.19028 0.29858,-7.31131 0.33885,-0.33822 72.84823,-0.41838 73.4782,-0.0812 0.4939,0.26433 0.51697,0.60546 0.51697,7.64739 0,6.47705 -0.0507,7.39019 -0.41852,7.53131 -0.23018,0.0883 -16.77135,0.1606 -36.75819,0.1606 -33.11519,0 -36.37761,-0.0379 -36.76742,-0.42775 z m 117.14609,-0.0282 c -0.32266,-0.28602 -1.49582,-3.20281 -2.99646,-7.44994 -2.35733,-6.67187 -2.4443,-6.99587 -1.97067,-7.34219 0.37772,-0.27621 1.66233,-0.36145 5.40584,-0.35869 5.3886,0.004 6.101,0.096 6.101,0.78865 0,0.25629 -1.11829,3.54312 -2.4851,7.30409 -2.6397,7.2636 -3.03888,7.95845 -4.05461,7.05808 z m 43.9121,0.28075 c -0.2535,-0.10229 -0.33073,-1.85958 -0.33073,-7.52628 v -7.39283 l 0.68591,-0.26079 c 0.44185,-0.16799 13.72049,-0.23627 37.31593,-0.19189 32.22172,0.0606 36.66019,0.11666 36.88085,0.46577 0.14131,0.22357 0.25265,3.42147 0.25493,7.32329 0.003,5.9476 -0.0547,6.98517 -0.41172,7.34219 -0.3742,0.37419 -4.09832,0.41369 -37.2401,0.39488 -20.25338,-0.0115 -36.97317,-0.0809 -37.15507,-0.15434 z M -155.21339,145.2154 c -0.0878,-0.32778 -0.16134,-3.57954 -0.16332,-7.22613 -0.003,-4.89302 0.083,-6.74785 0.32711,-7.07936 0.30944,-0.42027 3.65225,-0.44482 51.92448,-0.38129 l 51.59375,0.0679 v 7.54063 7.54062 l -51.76115,0.0668 -51.76116,0.0668 z m 116.898515,0.26017 c -0.07059,-0.18397 -0.09662,-3.60701 -0.05784,-7.60677 l 0.07051,-7.27229 h 82.153122 82.153123 l -0.0511,1.13467 c -0.0951,2.11025 -1.95067,8.52923 -3.19037,11.03617 -0.35981,0.7276 -0.94459,1.70987 -1.2995,2.18281 l -0.64535,0.8599 H 41.315606 c -63.833642,0 -79.527423,-0.0659 -79.630481,-0.33449 z M 137.945,145.21563 c -0.0879,-0.32793 -0.16139,-3.5798 -0.16338,-7.22639 -0.003,-4.89291 0.083,-6.74791 0.32711,-7.07955 0.30882,-0.41963 2.7664,-0.44488 37.10781,-0.3813 l 36.77708,0.0681 v 7.54063 7.54062 l -36.94443,0.0671 -36.94441,0.0671 z m 107.15331,0.38121 c -0.49406,-0.79936 -5.19464,-14.04814 -5.13432,-14.47119 0.0745,-0.52239 0.27699,-0.52917 15.81817,-0.52917 15.57017,0 15.74355,0.006 15.81899,0.53212 0.064,0.44691 -4.37804,13.67136 -4.8472,14.43045 -0.19063,0.30845 -21.46543,0.34557 -21.65564,0.0378 z m 53.93055,-0.1213 c -0.0706,-0.18397 -0.0966,-3.60701 -0.0578,-7.60677 l 0.0705,-7.27229 37.17396,-0.0681 c 34.71455,-0.0636 37.19584,-0.0384 37.50469,0.3813 0.24436,0.33204 0.33072,2.22683 0.33072,7.25634 0,3.74383 -0.0722,6.99529 -0.1606,7.22547 -0.14539,0.37889 -3.69072,0.41852 -37.44685,0.41852 -29.80816,0 -37.31199,-0.0671 -37.41459,-0.33449 z m -425.2521,-28.02885 c -0.36667,-0.36667 -0.45888,-14.13143 -0.0985,-14.69911 0.1671,-0.2632 4.88049,-0.31817 22.68397,-0.26458 l 22.473038,0.0677 0.07042,7.39008 c 0.05465,5.73592 -0.0046,7.43767 -0.264583,7.60272 -0.184251,0.11695 -10.282672,0.21446 -22.440945,0.21669 -16.84529,0.003 -22.18149,-0.0715 -22.42343,-0.31345 z m 117.7485352,0.0968 c -0.260014,-0.16505 -0.3192357,-1.8668 -0.2645834,-7.60272 l 0.070416,-7.39008 22.4730382,-0.0677 c 17.803478,-0.0536 22.516866,0.001 22.683969,0.26458 0.116012,0.18273 0.212754,3.44912 0.214982,7.25865 0.0035,5.9476 -0.0547,6.98517 -0.411723,7.34219 -0.371377,0.37137 -2.765745,0.41534 -22.423437,0.41172 -12.1042135,-0.002 -22.1584115,-0.0997 -22.342662,-0.21669 z M 79.358,117.44669 c -0.230799,-0.2308 -0.3175,-2.21181 -0.3175,-7.2544 0,-3.8153 0.07227,-7.12523 0.160599,-7.35542 0.144709,-0.37711 2.395185,-0.41851 22.746471,-0.41851 h 22.58586 l 0.79195,2.57969 c 1.54559,5.03441 2.53511,11.56699 1.87299,12.36482 -0.29316,0.35322 -3.16122,0.40132 -23.92796,0.40132 -17.998814,0 -23.670214,-0.0753 -23.91241,-0.3175 z m 87.57708,0 c -0.36666,-0.36667 -0.45887,-14.13143 -0.0985,-14.69911 0.16711,-0.2632 4.88051,-0.31817 22.68397,-0.26458 l 22.47305,0.0677 0.0704,7.39008 c 0.0547,5.73592 -0.004,7.43767 -0.26458,7.60272 -0.18423,0.11695 -10.28266,0.21446 -22.44092,0.21669 -16.84531,0.003 -22.18151,-0.0715 -22.42344,-0.31345 z m 67.99421,-0.0201 c -0.46413,-0.55925 -5.35813,-14.31708 -5.22052,-14.67571 0.10126,-0.26388 5.48349,-0.33255 26.06508,-0.33255 h 25.93747 v 0.64151 c 0,0.88683 -4.91537,14.20586 -5.34267,14.47687 -0.19024,0.12064 -9.52887,0.22117 -20.75254,0.2234 -16.22716,0.003 -20.46404,-0.0651 -20.68682,-0.33352 z m 64.30642,0.11683 c -0.26003,-0.16504 -0.31925,-1.8668 -0.26458,-7.60272 l 0.0704,-7.39007 22.47305,-0.0677 c 17.80347,-0.0536 22.51686,0.001 22.68397,0.26458 0.36039,0.56768 0.26818,14.33244 -0.0985,14.69911 -0.24193,0.24194 -5.57813,0.31654 -22.42343,0.31345 -12.15827,-0.002 -22.2567,-0.0997 -22.44093,-0.21669 z m -425.61528,-28.5067 c -0.0887,-0.230997 -0.16117,-3.541601 -0.16117,-7.356898 0,-5.042591 0.0867,-7.023603 0.3175,-7.254402 0.24194,-0.241943 5.57814,-0.316537 22.42343,-0.313449 12.158269,0.0021 22.25669,0.09974 22.440941,0.216691 0.260013,0.165044 0.319235,1.866797 0.264583,7.60272 l -0.07042,7.39008 -22.526844,0.06762 c -20.37047,0.06115 -22.54229,0.02742 -22.68802,-0.352367 z m 117.6980272,0.08255 c -0.070593,-0.183967 -0.096623,-3.607014 -0.057841,-7.606771 l 0.070511,-7.272287 57.0037758,-0.06675 57.003777,-0.06675 0.94612,0.626126 c 1.51834,1.004782 6.50997,5.895758 8.29855,8.131197 2.00004,2.499754 3.61548,5.17543 3.61548,5.988391 v 0.601332 H 54.822823 c -50.8361957,0 -63.4014085,-0.06618 -63.5043658,-0.334484 z M 166.77874,89.03674 c -0.0886,-0.230997 -0.16116,-3.541601 -0.16116,-7.356898 0,-5.042591 0.0867,-7.023603 0.3175,-7.254402 0.24193,-0.241943 5.57813,-0.316537 22.42344,-0.313449 12.15826,0.0021 22.25669,0.09974 22.44092,0.216691 0.26003,0.165044 0.31925,1.866797 0.26458,7.60272 l -0.0704,7.39008 -22.52686,0.06762 c -20.37046,0.06115 -22.54226,0.02742 -22.68802,-0.352367 z m 58.10705,0.08631 c -0.53793,-0.660107 -5.41727,-14.197653 -5.26257,-14.600791 0.14322,-0.373208 3.71362,-0.414314 35.98595,-0.414314 30.10228,0 35.87525,0.05822 36.12933,0.364358 0.23458,0.282649 -0.20963,1.810438 -1.98093,6.813021 -1.25585,3.546763 -2.44282,6.835616 -2.63774,7.308559 l -0.35441,0.859896 h -30.80506 c -24.32394,0 -30.86177,-0.06958 -31.07457,-0.330729 z m 74.19985,0.154339 c -0.097,-0.09701 -0.1764,-3.477556 -0.1764,-7.512317 0,-6.445332 0.0508,-7.355425 0.41852,-7.496527 0.23019,-0.08833 10.32669,-0.1606 22.43666,-0.1606 16.77244,0 22.0938,0.07564 22.33565,0.3175 0.2308,0.230799 0.3175,2.211811 0.3175,7.254402 0,3.815297 -0.0723,7.125234 -0.1606,7.355417 -0.1447,0.377073 -2.38032,0.418515 -22.57777,0.418515 -12.32945,0 -22.49657,-0.07937 -22.59356,-0.17639 z M -126.22324,61.09044 c -0.36667,-0.36667 -0.45888,-14.131428 -0.0985,-14.69911 0.1671,-0.2632 4.88049,-0.318175 22.68397,-0.264584 l 22.473038,0.06765 0.07042,7.39008 c 0.05465,5.735923 -0.0046,7.437676 -0.264583,7.60272 -0.184251,0.116951 -10.282672,0.214463 -22.440945,0.216691 -16.84529,0.0031 -22.18149,-0.07151 -22.42343,-0.313449 z M -8.6815428,61.07345 c -0.070593,-0.183968 -0.096623,-3.607015 -0.057841,-7.606771 l 0.070511,-7.272285 63.4338518,-0.06669 63.433851,-0.06669 v 0.601877 c 0,0.811217 -1.61337,3.486594 -3.59965,5.969143 -1.75247,2.190318 -6.34551,6.722782 -8.10205,7.995227 l -1.0777,0.780674 H 48.433125 c -45.6861791,0 -57.0117661,-0.06633 -57.1146678,-0.334485 z M 166.93508,61.09044 c -0.3664,-0.3664 -0.45903,-14.13123 -0.0989,-14.698417 0.16753,-0.263864 8.84859,-0.317873 42.52772,-0.264583 l 42.31722,0.06696 1.95638,5.357812 c 1.07603,2.946797 2.02853,5.357488 2.11667,5.357088 0.0882,-2.64e-4 0.97988,-2.29235 1.98162,-5.093229 1.00174,-2.800877 1.93905,-5.241333 2.08293,-5.423234 0.20728,-0.262096 8.97906,-0.330729 42.26962,-0.330729 38.06177,0 42.02311,0.03932 42.16863,0.418515 0.0883,0.230183 0.1606,3.54012 0.1606,7.355417 0,5.042591 -0.0867,7.023603 -0.3175,7.254402 -0.24185,0.241858 -5.56321,0.3175 -22.33565,0.3175 -12.10997,0 -22.20647,-0.07227 -22.43666,-0.1606 -0.34139,-0.131 -0.41852,-0.628364 -0.41852,-2.69875 0,-1.584489 -0.0934,-2.44371 -0.24847,-2.286796 -0.13668,0.138245 -0.61992,1.260673 -1.07386,2.494283 -0.45395,1.233611 -0.96721,2.333117 -1.14057,2.443345 -0.17338,0.110228 -18.67786,0.202239 -41.12109,0.204467 l -40.80589,0.004 -0.37672,-0.595312 c -0.20719,-0.327422 -0.6501,-1.458516 -0.98422,-2.513542 -0.33411,-1.055026 -0.70313,-1.918229 -0.82,-1.918229 -0.11689,0 -0.21251,1.058825 -0.21251,2.352942 0,1.9015 -0.0803,2.383756 -0.41852,2.513542 -0.23018,0.08833 -10.32668,0.160599 -22.43666,0.160599 -16.77244,0 -22.0938,-0.07564 -22.33565,-0.3175 z M -126.37957,32.680489 c -0.0887,-0.230997 -0.16117,-3.541602 -0.16117,-7.356899 0,-5.04259 0.0867,-7.023603 0.3175,-7.254401 0.24194,-0.241943 5.57814,-0.316537 22.42343,-0.313449 12.158269,0.0021 22.25669,0.09974 22.440941,0.216691 0.260013,0.165044 0.319235,1.866796 0.264583,7.60272 l -0.07042,7.39008 -22.526844,0.06762 c -20.37047,0.06115 -22.54229,0.02742 -22.68802,-0.352367 z m 117.6980272,0.08255 c -0.070593,-0.183968 -0.096623,-3.607015 -0.057841,-7.606771 l 0.070511,-7.272288 22.3572908,-0.06852 c 20.783909,-0.0637 22.380566,-0.03687 22.68802,0.381299 0.244356,0.332348 0.330729,2.227509 0.330729,7.25678 0,3.743828 -0.07227,6.99529 -0.1606,7.225472 -0.1447,0.377084 -2.384935,0.418515 -22.630176,0.418515 -17.8661239,0 -22.4958769,-0.06853 -22.5979346,-0.334483 z M 79.201099,32.679007 C 79.112768,32.448825 79.0405,29.138887 79.0405,25.32359 c 0,-5.04259 0.0867,-7.023603 0.3175,-7.254401 0.242196,-0.242197 5.913596,-0.3175 23.91241,-0.3175 20.76674,0 23.6348,0.0481 23.92796,0.401325 0.66212,0.797822 -0.3274,7.330406 -1.87299,12.364821 l -0.79195,2.579687 h -22.58586 c -20.351286,0 -22.601762,-0.04141 -22.746471,-0.418515 z m 87.577081,0 c -0.0883,-0.230182 -0.1606,-3.54012 -0.1606,-7.355417 0,-5.04259 0.0867,-7.023603 0.3175,-7.254401 0.24389,-0.243906 8.85925,-0.3175 37.16784,-0.3175 h 36.85038 l 0.37623,0.595312 c 0.65913,1.042906 5.23976,13.980417 5.089,14.373308 -0.12443,0.324241 -5.71532,0.377213 -39.81225,0.377213 -35.92751,0 -39.68266,-0.03946 -39.8281,-0.418515 z m 97.47065,-0.177239 c 0,-0.833152 4.95919,-14.278769 5.36048,-14.533634 0.18045,-0.114589 16.94323,-0.210167 37.25066,-0.212394 28.36934,-0.0031 36.99616,0.0695 37.2401,0.313449 0.2308,0.230798 0.3175,2.211811 0.3175,7.254401 0,3.815297 -0.0723,7.125235 -0.1606,7.355417 -0.14547,0.379074 -3.92319,0.418515 -40.08437,0.418515 H 264.24883 Z M -155.90018,4.5399154 c -0.32428,-0.605909 -0.37541,-13.9999485 -0.0554,-14.5039983 0.16762,-0.2639981 10.72699,-0.3178071 51.92043,-0.2645831 l 51.71001,0.06681 0.07042,7.3900803 c 0.05465,5.7359234 -0.0046,7.4376758 -0.264583,7.6027202 -0.184251,0.1169512 -23.458701,0.2144634 -51.721007,0.2166911 -50.5352,0.004 -51.39053,-0.00442 -51.65989,-0.5077222 z m 117.585305,0.1772894 c -0.07059,-0.1839674 -0.09662,-3.6070144 -0.05784,-7.606771 l 0.07051,-7.2722878 79.559639,-0.06658 79.559636,-0.06658 0.64566,0.8603296 c 0.35512,0.4731809 0.94324,1.4556423 1.30696,2.1832465 1.36152,2.7235918 3.62342,10.9877334 3.26385,11.9247738 -0.12547,0.3269536 -11.28953,0.3783515 -82.182623,0.3783515 -65.877073,0 -82.062722,-0.065889 -82.165793,-0.3344836 z M 137.25814,4.5399154 c -0.41817,-0.7813595 -0.36668,-13.8131156 0.0568,-14.388415 0.30929,-0.4201184 3.37542,-0.4448384 47.29427,-0.3812994 l 46.96354,0.06794 2.44382,7.2532484 c 1.85269,5.4988276 2.37284,7.3387587 2.1504,7.606771 -0.24289,0.2926556 -8.75948,0.353523 -49.4642,0.353523 -48.34291,0 -49.1754,-0.00863 -49.44467,-0.511773 z m 137.11592,0.050792 c -0.17161,-0.4472173 4.21428,-13.8463023 4.76398,-14.5541236 0.20373,-0.2623608 9.90166,-0.3307288 46.91409,-0.3307288 45.85785,0 46.66194,0.0088 46.93113,0.5117726 0.16796,0.3138355 0.27389,3.0835389 0.27389,7.1611439 0,4.0776049 -0.10593,6.8473083 -0.27389,7.1611438 -0.26927,0.5031502 -1.10072,0.511773 -49.3531,0.511773 -46.41532,0 -49.08881,-0.02503 -49.2561,-0.4609809 z M -155.38032,-23.186998 c -0.21829,-0.08309 -0.48435,-0.282051 -0.59127,-0.442132 -0.10691,-0.160081 -0.1962,-3.407944 -0.19843,-7.217471 -0.003,-5.947603 0.0547,-6.985169 0.41172,-7.342188 0.3751,-0.375104 5.41065,-0.415774 51.47885,-0.415774 34.693096,0 51.227141,0.08781 51.574849,0.273893 0.48692,0.260592 0.511772,0.627082 0.511772,7.547172 v 7.273283 l -0.678682,0.258034 c -0.725374,0.275786 -101.786749,0.340048 -102.508809,0.06518 z m 117.408845,-0.09292 c -0.423429,-0.246624 -0.463021,-0.899615 -0.463021,-7.636563 0,-6.473555 0.05075,-7.386354 0.418515,-7.527479 0.723652,-0.277691 113.26797,-0.174252 115.933401,0.106555 5.01518,0.528356 9.684202,1.781769 14.776558,3.966828 5.161227,2.214613 11.804832,6.343444 15.061512,9.360334 2.38929,2.213383 9.47423,2.017117 -72.487954,2.008055 -48.941494,-0.0054 -72.927631,-0.09637 -73.239011,-0.27773 z m 175.749475,0.09292 c -0.21828,-0.08309 -0.48435,-0.282051 -0.59127,-0.442132 -0.10692,-0.160081 -0.19621,-3.407944 -0.19843,-7.217471 -0.003,-5.947603 0.0547,-6.985169 0.41171,-7.342188 0.37444,-0.374439 4.53856,-0.415774 41.8859,-0.415774 32.76851,0 41.56106,0.0694 41.90359,0.330729 0.23845,0.181902 1.59211,3.53149 3.00818,7.443529 2.45769,6.789587 2.5522,7.129238 2.08005,7.474479 -0.41383,0.302604 -7.64953,0.358267 -44.29873,0.340792 -24.09227,-0.01148 -43.98272,-0.08887 -44.201,-0.171964 z m 147.17447,-0.07874 c -0.32742,-0.132287 -0.59531,-0.347819 -0.59531,-0.478962 0,-0.665181 5.1436,-14.245429 5.50301,-14.529132 0.33108,-0.261363 9.03346,-0.330729 41.4922,-0.330729 36.98652,0 41.11461,0.04137 41.48902,0.415774 0.357,0.357019 0.41518,1.394585 0.41172,7.342188 -0.003,3.901927 -0.11359,7.099713 -0.25493,7.323289 -0.22111,0.349821 -5.42012,0.402875 -43.85064,0.447482 -25.67572,0.0298 -43.8445,-0.04827 -44.19507,-0.18991 z"
         id="path1385" />
      <path
         style="fill:#ebeaea;fill-opacity:1;stroke-width:0.264583"
         d="m -154.79757,173.53903 c -0.45278,-0.45278 -0.45341,-13.99418 -8e-4,-14.44692 0.24478,-0.24478 12.01637,-0.31657 51.39531,-0.31345 28.092798,0.002 51.228594,0.0998 51.412881,0.21674 0.259921,0.16498 0.319262,1.8404 0.264583,7.47042 l -0.07036,7.25775 -51.341724,0.0668 c -39.71383,0.0517 -51.41379,-0.005 -51.65989,-0.25135 z m 116.624276,-0.21866 c -0.190484,-0.35592 -0.260146,-2.79914 -0.207745,-7.28601 0.06602,-5.65284 0.143369,-6.79131 0.47571,-7.00136 0.248224,-0.15688 27.697953,-0.22747 73.285958,-0.18847 68.127401,0.0583 72.894691,0.0915 72.974991,0.50851 0.0582,0.302 -0.77854,1.11406 -2.58982,2.51354 -8.511358,6.57625 -18.16005,10.67265 -27.574769,11.70701 -1.739519,0.19111 -20.897992,0.28227 -59.323499,0.28227 -56.70667,0 -56.754483,-4.5e-4 -57.040826,-0.53549 z m 176.533374,0.21799 c -0.23072,-0.23073 -0.3175,-2.20486 -0.3175,-7.22313 0,-5.01826 0.0868,-6.9924 0.3175,-7.22312 0.40071,-0.40073 72.60325,-0.45873 73.23666,-0.0588 0.33235,0.20982 0.40969,1.34809 0.47573,7.00108 0.0524,4.48687 -0.0172,6.93009 -0.20776,7.28601 -0.28559,0.53362 -0.41402,0.53549 -36.73686,0.53549 -27.99744,0 -36.5239,-0.0736 -36.76777,-0.3175 z m 116.96128,-0.0132 c -0.28588,-0.36224 -5.09545,-13.72986 -5.09545,-14.16219 0,-0.50484 0.8491,-0.58833 5.98307,-0.58833 4.41759,0 5.16845,0.0584 5.3044,0.41265 0.15483,0.40355 -4.47829,13.6847 -5.00179,14.33787 -0.14579,0.1819 -0.4145,0.33073 -0.59714,0.33073 -0.18264,0 -0.44953,-0.14883 -0.59309,-0.33073 z m 44.02886,0.15434 c -0.097,-0.097 -0.1764,-3.41803 -0.1764,-7.38003 0,-6.32469 0.0511,-7.22323 0.41852,-7.36423 0.23019,-0.0883 16.87513,-0.1606 36.98875,-0.1606 28.09073,0 36.64384,0.0736 36.88773,0.3175 0.23072,0.23072 0.3175,2.20486 0.3175,7.22312 0,5.01827 -0.0868,6.9924 -0.3175,7.22313 -0.24389,0.2439 -8.85081,0.3175 -37.12985,0.3175 -20.24682,0 -36.89175,-0.0794 -36.98875,-0.17639 z m -454.00294,-28.15522 c -0.4225,-0.24608 -0.46267,-0.87638 -0.45897,-7.20185 0.002,-3.81269 0.0987,-7.0813 0.21447,-7.26357 0.16761,-0.26399 10.67407,-0.3178 51.65584,-0.26458 l 51.445426,0.0668 0.07028,7.31025 0.07027,7.31024 -0.59944,0.16062 c -1.087334,0.29135 -101.894516,0.17525 -102.397876,-0.11793 z m 116.972983,0.10862 c -0.239729,-0.0637 -0.505995,-0.37728 -0.591701,-0.69691 -0.08571,-0.31963 -0.157459,-3.44565 -0.159446,-6.94672 -0.0026,-4.68146 0.08389,-6.48437 0.327117,-6.81459 0.309999,-0.42087 5.455431,-0.44477 82.086976,-0.3813 l 81.756251,0.0677 -0.0589,1.19062 c -0.1815,3.66862 -3.60617,12.68095 -5.10048,13.42235 -0.52231,0.25915 -17.19101,0.32255 -79.242704,0.30139 -43.2196857,-0.0147 -78.777388,-0.0789 -79.017113,-0.14256 z M 138.5056,145.52582 c -0.42204,-0.24725 -0.46302,-0.8769 -0.46302,-7.11564 0,-3.7644 0.0723,-7.03271 0.1606,-7.26289 0.14536,-0.37884 3.63091,-0.41852 36.76777,-0.41852 36.48035,0 36.60817,0.002 36.89376,0.53549 0.3397,0.63473 0.25448,13.84811 -0.0915,14.19345 -0.3338,0.33315 -72.70033,0.40041 -73.26757,0.0681 z m 107.02324,-0.16993 c -0.55986,-0.4854 -5.3571,-13.11797 -5.3571,-14.10687 0,-0.51139 0.26559,-0.52025 15.61042,-0.52025 15.30551,0 15.61042,0.0101 15.61042,0.51642 0,0.56762 -4.58997,13.95116 -4.88646,14.24807 -0.10131,0.10146 -4.74017,0.21824 -10.30859,0.2595 -9.39816,0.0697 -10.16341,0.0412 -10.66869,-0.39687 z m 54.10385,0.27095 c -0.43447,-0.11328 -0.46225,-0.63413 -0.39687,-7.44378 l 0.0703,-7.32199 h 37.17395 37.17396 l 0.0707,7.14375 c 0.0641,6.48137 0.0288,7.17441 -0.38129,7.47448 -0.3569,0.26114 -8.10943,0.32427 -36.84778,0.30003 -20.01769,-0.0169 -36.60603,-0.0855 -36.86297,-0.15249 z m -425.73097,-28.30213 c -0.0978,-0.0978 -0.17788,-3.34891 -0.17788,-7.22462 0,-5.12801 0.0864,-7.13318 0.3175,-7.36423 0.24188,-0.24188 5.51935,-0.31654 22.15885,-0.31345 12.012749,0.002 21.992138,0.0998 22.176426,0.21673 0.259921,0.16499 0.319262,1.8404 0.264583,7.47043 l -0.07049,7.25775 -22.245549,0.0676 c -12.23506,0.0372 -22.3256,-0.0124 -22.42344,-0.11024 z m 117.6146164,-0.1426 c -0.2304918,-0.23049 -0.3175,-2.18302 -0.3175,-7.12485 0,-5.83573 0.059343,-6.8667 0.4157742,-7.22313 0.3712739,-0.37127 2.758424,-0.41577 22.3043744,-0.41577 16.671689,0 21.964273,0.0757 22.2061,0.3175 0.230724,0.23072 0.3175,2.20486 0.3175,7.22312 0,5.01827 -0.08678,6.9924 -0.3175,7.22313 -0.459963,0.45996 -44.1487864,0.45996 -44.6087486,0 z m 87.9665416,0.14252 c -0.09779,-0.0978 -0.177795,-3.34883 -0.177795,-7.22454 0,-5.12801 0.08645,-7.13318 0.3175,-7.36423 0.241832,-0.24183 5.538602,-0.3175 22.224997,-0.3175 20.8565,0 21.93068,0.0232 22.3905,0.48298 0.97403,0.97405 3.09528,10.67658 2.90769,13.29976 l -0.0834,1.16622 -23.70084,0.0675 c -13.035467,0.0371 -23.780865,-0.0125 -23.878652,-0.11024 z m 87.575682,-0.001 c -0.097,-0.097 -0.1764,-3.34742 -0.1764,-7.22312 0,-5.12802 0.0864,-7.13319 0.3175,-7.36424 0.39947,-0.39948 43.7665,-0.45694 44.39708,-0.0588 0.33235,0.20982 0.40969,1.34809 0.47573,7.00109 0.0524,4.48686 -0.0172,6.93009 -0.20776,7.28601 -0.28421,0.53105 -0.47016,0.53548 -22.45817,0.53548 -12.19438,0 -22.25098,-0.0794 -22.34798,-0.17639 z m 67.70044,-0.68359 c -0.19724,-0.47294 -1.38406,-3.70245 -2.63739,-7.17669 -1.76705,-4.89834 -2.21091,-6.39851 -1.9767,-6.68073 0.42913,-0.51705 50.8209,-0.54654 51.2496,-0.03 0.20124,0.24248 -0.40063,2.20347 -2.19752,7.15984 -1.36107,3.75424 -2.61686,6.99725 -2.79069,7.20668 -0.26998,0.32533 -3.29978,0.38079 -20.80234,0.38079 h -20.48631 z m 64.5927,0.685 c -0.0978,-0.0978 -0.17788,-3.41952 -0.17788,-7.38152 0,-6.3247 0.0511,-7.22323 0.41852,-7.36423 0.23019,-0.0883 10.21686,-0.1606 22.19259,-0.1606 18.13248,0 21.8245,0.0607 22.07546,0.36312 0.21296,0.2566 0.28067,2.44933 0.23085,7.47448 l -0.0705,7.11136 -22.24556,0.0676 c -12.23505,0.0372 -22.32559,-0.0124 -22.42344,-0.11024 z M -125.83326,89.123045 c -0.41009,-0.300064 -0.44545,-0.993111 -0.3813,-7.47448 l 0.0707,-7.14375 h 22.35729 22.357294 l 0.07049,7.257746 c 0.05468,5.630027 -0.0047,7.305442 -0.264583,7.470426 -0.184288,0.116978 -10.105202,0.214508 -22.046471,0.216736 -16.95689,0.0032 -21.81039,-0.06837 -22.1634,-0.326678 z M -8.3853894,89.038 c -0.3564308,-0.356428 -0.4157742,-1.387401 -0.4157742,-7.223125 0,-4.94183 0.087008,-6.89436 0.3175,-7.124851 0.2449777,-0.244978 13.3185265,-0.317501 57.2346196,-0.317501 h 56.917134 l 2.68507,2.38269 c 3.17632,2.818625 6.25255,6.251236 8.03947,8.970854 1.46423,2.228551 1.79104,3.142732 1.24669,3.48747 -0.20749,0.131406 -27.539105,0.233892 -62.987733,0.236186 C -1.9274609,89.453423 -8.009734,89.413653 -8.3853894,89.038 Z M 167.32505,89.12305 c -0.41008,-0.300064 -0.44543,-0.993111 -0.38129,-7.47448 l 0.0707,-7.14375 22.28104,-0.06765 c 22.15288,-0.06726 22.28268,-0.06456 22.5684,0.469339 0.19151,0.357812 0.26109,2.789415 0.20858,7.287512 -0.066,5.652995 -0.14338,6.791261 -0.47573,7.001087 -0.64817,0.409223 -43.70972,0.339129 -44.27169,-0.07206 z m 57.96071,0 c -0.5392,-0.409898 -5.57599,-13.872227 -5.38062,-14.381317 0.1996,-0.520213 71.54425,-0.558482 71.73142,-0.03847 0.16722,0.464616 -4.77353,14.244169 -5.20552,14.517987 -0.19476,0.123436 -13.93423,0.226255 -30.53217,0.228483 -23.73911,0.0032 -30.2709,-0.06652 -30.61311,-0.326678 z m 74.21445,0.109942 c -0.25992,-0.164984 -0.31927,-1.840399 -0.26458,-7.470426 l 0.0705,-7.257746 h 22.35729 22.35729 l 0.0707,7.14375 c 0.0641,6.481369 0.0288,7.174416 -0.38129,7.47448 -0.35303,0.258304 -5.20652,0.329843 -22.1634,0.326678 -11.94128,-0.0021 -21.8622,-0.09976 -22.04649,-0.216736 z m -425.59849,-28.26453 c -0.0978,-0.09784 -0.17788,-3.368538 -0.17788,-7.268226 0,-6.739227 0.0254,-7.10391 0.51177,-7.364238 0.61583,-0.329581 43.62392,-0.381323 44.141006,-0.0531 0.259921,0.164984 0.319262,1.840399 0.264583,7.470426 l -0.07049,7.257746 -22.245559,0.06764 c -12.23506,0.0372 -22.3256,-0.01241 -22.42344,-0.110241 z M -8.4836636,60.825856 c -0.2304918,-0.230491 -0.3175,-2.183021 -0.3175,-7.124851 0,-5.835724 0.059343,-6.866697 0.4157742,-7.223125 0.3756554,-0.375658 6.4579285,-0.415382 63.0369764,-0.411723 35.448628,0.0024 62.780243,0.10478 62.987733,0.236186 0.54435,0.344738 0.21754,1.258919 -1.24669,3.48747 -1.78692,2.719618 -4.86315,6.152229 -8.03947,8.970854 l -2.68507,2.382689 H 48.750956 c -43.9160931,0 -56.9896419,-0.07252 -57.2346196,-0.3175 z M 167.05856,60.966967 c -0.097,-0.09701 -0.1764,-3.367043 -0.1764,-7.266731 0,-6.739227 0.0254,-7.10391 0.51179,-7.364238 0.61483,-0.329063 83.308,-0.383511 83.8251,-0.05519 0.18243,0.11583 1.2129,2.62282 2.28992,5.571091 1.89155,5.178073 2.15791,5.80267 2.37312,5.565246 0.055,-0.06063 0.95965,-2.491494 2.01039,-5.401911 1.05076,-2.910416 2.1001,-5.440495 2.33187,-5.622396 0.61799,-0.484965 82.82297,-0.484965 83.48575,0 0.41008,0.300064 0.44543,0.993111 0.38129,7.47448 l -0.0707,7.14375 H 321.6634 299.30611 l -0.1323,-2.823456 c -0.0728,-1.552903 -0.20288,-2.893489 -0.28913,-2.979082 -0.0863,-0.08559 -0.60693,1.065901 -1.15703,2.558873 -0.55006,1.492975 -1.11945,2.863702 -1.26529,3.046061 -0.21082,0.263641 -8.64557,0.317841 -41.17633,0.264583 l -40.91117,-0.06698 -1.05833,-2.910417 -1.05834,-2.910417 -0.13229,2.645834 c -0.0728,1.455208 -0.22863,2.794661 -0.34634,2.976562 -0.16843,0.260247 -4.93765,0.330729 -22.37936,0.330729 -12.19088,0 -22.24465,-0.07937 -22.34165,-0.176389 z M -125.98356,32.7344 c -0.21296,-0.256598 -0.28068,-2.449327 -0.23084,-7.474479 l 0.0705,-7.111357 h 22.35729 22.357294 l 0.07049,7.257746 c 0.05468,5.630026 -0.0047,7.305442 -0.264583,7.470426 -0.184288,0.116977 -10.172911,0.214508 -22.196941,0.216736 -18.21051,0.0034 -21.9122,-0.0566 -22.16323,-0.359072 z M -8.3853894,32.68175 c -0.3564308,-0.356428 -0.4157742,-1.387401 -0.4157742,-7.223125 0,-4.941829 0.087008,-6.894359 0.3175,-7.124851 0.2418873,-0.241887 5.5911165,-0.3175 22.4612746,-0.3175 19.948151,0 22.1597,0.0415 22.304374,0.418515 0.08833,0.230183 0.1606,3.480589 0.1606,7.223126 0,4.939696 -0.08702,6.891626 -0.3175,7.122109 -0.241827,0.241827 -5.534411,0.3175 -22.2061,0.3175 -19.5459504,0 -21.9331005,-0.0445 -22.3043744,-0.415774 z M 79.597678,32.7344 c -0.212956,-0.256598 -0.280673,-2.449327 -0.230833,-7.474479 l 0.07053,-7.111357 h 23.812495 23.8125 l 0.0834,1.166214 c 0.18759,2.623183 -1.93366,12.325713 -2.90769,13.299758 -0.45985,0.459822 -1.53464,0.482986 -22.41103,0.482986 -18.262916,0 -21.978378,-0.06069 -22.229372,-0.363122 z m 87.577092,0 c -0.21297,-0.256598 -0.28067,-2.449327 -0.23085,-7.474479 l 0.0705,-7.111357 36.96573,-0.06707 c 35.51449,-0.06443 36.97581,-0.04816 37.22344,0.414486 0.39208,0.732655 5.05354,13.621343 5.05354,13.972842 0,0.169124 -0.18833,0.37977 -0.41852,0.468098 -0.23019,0.08833 -17.95592,0.160599 -39.3905,0.160599 -32.70906,0 -39.02046,-0.05836 -39.27337,-0.363122 z m 97.51504,0.186733 c -0.097,-0.09701 -0.1764,-0.385218 -0.1764,-0.640451 0,-0.580041 4.70416,-13.478423 5.08153,-13.933146 0.2203,-0.265428 7.80831,-0.319471 37.3511,-0.266034 l 37.07466,0.06706 0.0705,7.111357 c 0.0498,5.025152 -0.018,7.217881 -0.23085,7.474479 -0.25295,0.304795 -6.62139,0.363122 -39.64779,0.363122 -21.64053,0 -39.4258,-0.07937 -39.52279,-0.176389 z M -155.73244,4.6113821 c -0.0974,-0.09738 -0.17705,-3.3677094 -0.17705,-7.267398 0,-6.739226 0.0253,-7.1039092 0.51177,-7.3642381 0.81002,-0.433509 101.903885,-0.377452 102.497414,0.056838 0.410088,0.3000639 0.445442,0.9931109 0.381299,7.4744793 l -0.0707,7.1437502 -51.482833,0.06681 c -28.31557,0.036745 -51.56252,-0.012859 -51.6599,-0.1102414 z m 117.571836,-0.33605 c -0.293447,-0.5483119 -0.388099,-12.6611436 -0.107128,-13.7095815 l 0.159536,-0.5953126 h 79.482259 79.482247 l 0.77882,1.2280795 c 0.42836,0.6754442 1.14896,2.1171641 1.60134,3.2038264 1.00788,2.4210461 2.78667,9.3440385 2.55556,9.9462593 -0.15616,0.4069715 -6.04689,0.4385019 -81.923499,0.4385019 -80.558221,0 -81.759252,-0.00749 -82.029135,-0.511773 z M 137.37789,4.1917926 c -0.0801,-0.3274219 -0.1121,-3.63140638 -0.0712,-7.3421877 l 0.0744,-6.7468752 46.8644,-0.066876 c 37.29845,-0.053224 46.91605,7.938e-4 47.11753,0.2645834 0.45844,0.6002417 4.87847,13.9457169 4.70942,14.2192352 -0.11041,0.1786361 -16.49838,0.2674329 -49.35714,0.2674329 h -49.19184 z m 137.20913,0 c 0.0106,-0.3274219 1.05249,-3.63140638 2.31511,-7.3421877 l 2.29565,-6.7468752 h 46.83125 46.83125 l 0.0744,6.7468752 c 0.0409,3.71078132 0.009,7.0147658 -0.0712,7.3421877 l -0.1456,0.5953125 H 323.6427 274.56755 l 0.0193,-0.5953125 z M -155.59199,-23.576229 c -0.48769,-0.487693 -0.44909,-14.06058 0.0412,-14.467441 0.26355,-0.218733 13.9606,-0.279936 51.65989,-0.230835 l 51.301246,0.06682 0.07048,7.257746 c 0.05468,5.630027 -0.0047,7.305443 -0.264583,7.470426 -0.184287,0.116978 -23.320083,0.214508 -51.412883,0.216736 -39.37894,0.0031 -51.15053,-0.06867 -51.3953,-0.313449 z m 117.686661,0.05883 c -0.332349,-0.209825 -0.409692,-1.348092 -0.47571,-7.001087 -0.0524,-4.486868 0.01725,-6.930091 0.207745,-7.286011 0.286351,-0.535051 0.332867,-0.535485 57.368067,-0.535485 38.368641,0 57.816478,0.09132 59.3235,0.278566 4.967967,0.617265 10.323187,2.143353 15.089285,4.300027 4.42161,2.000793 10.290332,5.713492 13.987702,8.848974 0.62259,0.527976 0.8527,0.906595 0.73591,1.210919 -0.15827,0.412493 -5.14953,0.442486 -73.004762,0.438713 -45.376434,-0.0025 -72.984481,-0.09851 -73.231737,-0.254616 z m 175.471659,-0.05883 c -0.23072,-0.230725 -0.3175,-2.20486 -0.3175,-7.223125 0,-5.018265 0.0868,-6.992401 0.3175,-7.223125 0.24424,-0.244235 9.85533,-0.3175 41.65023,-0.3175 22.733,0 41.50908,0.06767 41.72461,0.150372 0.22778,0.0874 1.47653,3.142457 2.98209,7.29564 2.14296,5.911369 2.52449,7.186872 2.20948,7.386202 -0.61862,0.391427 -88.17419,0.323746 -88.56641,-0.06846 z m 147.33608,0.06846 c -0.31501,-0.19933 0.0665,-1.474833 2.20948,-7.386202 1.50556,-4.153183 2.75432,-7.208236 2.9821,-7.29564 0.21553,-0.0827 18.81301,-0.150372 41.32773,-0.150372 31.4862,0 41.00914,0.07329 41.25335,0.3175 0.23072,0.230724 0.3175,2.20486 0.3175,7.223125 0,5.018265 -0.0868,6.9924 -0.3175,7.223125 -0.39219,0.392197 -87.15406,0.45987 -87.77266,0.06846 z"
         id="path1383" />
      <path
         style="fill:#ebeaea;fill-opacity:1;stroke-width:0.264583"
         d="m -154.78927,166.38205 0.0704,-7.21057 h 51.46146 51.461456 v 7.14375 7.14375 l -51.531856,0.0668 -51.53185,0.0668 z m 116.738753,6.87415 c -0.07072,-0.18429 -0.09675,-3.42874 -0.05784,-7.20989 l 0.07074,-6.87483 73.011295,-0.0666 c 42.972395,-0.0392 73.109182,0.0313 73.249252,0.17133 0.30858,0.30861 -2.58617,2.70123 -6.13746,5.07281 -5.112276,3.41403 -11.414704,6.30277 -16.962328,7.77476 -5.773859,1.53203 -2.749309,1.46426 -65.423751,1.46595 -46.25257,0.001 -57.646692,-0.0645 -57.749904,-0.33351 z m 176.419567,-6.87389 0.0704,-7.21083 h 36.64479 36.64479 v 7.14375 7.14375 l -36.7152,0.0671 -36.7152,0.0671 z m 117.00322,6.92332 c -0.37068,-0.59976 -4.88178,-13.34781 -4.88178,-13.79555 0,-0.4361 0.3995,-0.47089 5.40835,-0.47089 2.97458,0 5.47121,0.10173 5.54805,0.22605 0.12792,0.20701 -4.30382,12.73713 -4.89696,13.8454 -0.28544,0.53337 -0.90512,0.63597 -1.17766,0.19499 z m 43.92096,-0.0494 c -0.0707,-0.18429 -0.0968,-3.42874 -0.0579,-7.20989 l 0.0708,-6.87483 h 37.04166 37.04167 l 0.0704,7.2099 0.0704,7.2099 h -37.05421 c -29.65553,0 -37.07989,-0.0669 -37.18279,-0.33508 z m -453.968,-27.88715 c -0.097,-0.097 -0.17639,-3.35849 -0.17639,-7.24773 0,-6.20407 0.0513,-7.09104 0.41852,-7.23195 0.23018,-0.0883 23.30449,-0.1606 51.27625,-0.1606 39.203232,0 50.930486,0.0728 51.175228,0.3175 0.230159,0.23016 0.3175,2.15302 0.3175,6.98982 0,3.66978 -0.07227,6.86065 -0.160599,7.09084 -0.14568,0.37963 -4.921972,0.41851 -51.417359,0.41851 -28.19122,0 -51.33614,-0.0794 -51.43315,-0.17639 z m 116.681247,0 c -0.09701,-0.097 -0.176389,-3.28789 -0.176389,-7.09083 0,-5.02512 0.08675,-7.0012 0.3175,-7.23195 0.434676,-0.43467 162.941182,-0.46548 163.375672,-0.031 0.20567,0.20564 0.14595,0.92981 -0.21145,2.5654 -1.05336,4.82025 -2.68626,9.24767 -4.08884,11.08658 l -0.66982,0.87816 H 41.36801 c -43.5518309,0 -79.264521,-0.0794 -79.361533,-0.17639 z m 176.478013,0.001 c -0.0975,-0.0977 -0.17733,-3.35955 -0.17733,-7.24879 0,-6.20407 0.0513,-7.09104 0.41852,-7.23195 0.23019,-0.0883 16.64624,-0.1606 36.48009,-0.1606 30.24653,0 36.1102,0.0586 36.36303,0.36322 0.21284,0.25643 0.2807,2.41492 0.23085,7.34218 l -0.0706,6.97898 -36.53362,0.0671 c -20.09349,0.0369 -36.61341,-0.0127 -36.71093,-0.11024 z m 107.08092,-0.0253 c -0.16219,-0.10788 -1.45619,-3.33557 -2.87555,-7.17266 -2.06462,-5.58154 -2.50825,-7.02238 -2.21864,-7.20584 0.46848,-0.29679 30.14663,-0.30111 30.61468,-0.004 0.28088,0.17804 -0.16005,1.70626 -2.11728,7.33814 l -2.47205,7.11327 -10.31814,0.0638 c -5.67497,0.0351 -10.45083,-0.0244 -10.61302,-0.13229 z m 53.78571,0.0253 c -0.0975,-0.0976 -0.1773,-3.29815 -0.1773,-7.11238 0,-5.51609 0.0735,-6.99592 0.35896,-7.23287 0.26316,-0.21839 10.1685,-0.28001 37.10782,-0.23084 l 36.74885,0.0671 v 7.27604 7.27604 l -36.93052,0.0671 c -20.31177,0.0369 -37.01028,-0.0127 -37.10781,-0.11024 z m -425.3008,-35.34345 0.0704,-7.2114 h 22.225 22.224994 v 7.14375 7.14375 l -22.295404,0.0677 -22.29539,0.0677 z m 117.5324956,6.87332 c -0.070718,-0.18429 -0.096748,-3.42874 -0.057843,-7.2099 l 0.070739,-6.87482 h 22.2249984 22.225 l 0.0704,7.2099 0.0704,7.20989 H 13.948951 c -17.6997402,0 -22.2637946,-0.0684 -22.3661354,-0.33507 z m 88.0487444,-6.87482 0.0704,-7.2099 22.06376,-0.0677 c 15.01026,-0.046 22.16997,0.0205 22.39595,0.20803 0.82843,0.68753 2.76841,9.51309 2.76841,12.5943 v 1.68513 H 103.24561 79.561162 Z m 87.57707,0.002 0.0704,-7.2114 h 22.225 22.225 v 7.14375 7.14375 l -22.29541,0.0677 -22.2954,0.0677 z m 67.63975,6.4807 c -1.13355,-2.91254 -4.7308,-13.13341 -4.7308,-13.44166 0,-0.33139 3.42802,-0.38282 25.51668,-0.38282 16.59297,0 25.5734,0.0918 25.67892,0.26254 0.1221,0.19755 -2.57641,8.00398 -4.82523,13.95882 -0.0985,0.26068 -4.49107,0.33072 -20.74064,0.33072 h -20.61575 z m 64.44485,0.39253 c -0.0707,-0.18429 -0.0968,-3.42874 -0.0579,-7.2099 l 0.0708,-6.87482 h 22.22499 22.225 l 0.0704,7.2099 0.0704,7.20989 h -22.23754 c -17.69975,0 -22.26379,-0.0684 -22.36613,-0.33507 z M -125.83369,89.014304 c -0.0978,-0.09784 -0.17789,-3.373412 -0.17789,-7.279048 v -7.101155 l 22.29115,0.06765 22.291144,0.06765 v 7.14375 7.14375 l -22.113254,0.06765 c -12.16229,0.03721 -22.19331,-0.01241 -22.29115,-0.110244 z M -8.4171844,88.854117 c -0.070718,-0.18429 -0.096748,-3.428744 -0.057843,-7.209896 l 0.070739,-6.874822 57.0854334,-0.06675 57.085445,-0.06675 2.31352,2.074371 c 1.27243,1.140904 3.19397,3.016409 4.27005,4.167791 2.94476,3.15078 5.83523,7.426148 5.44619,8.05562 -0.10084,0.163132 -22.921914,0.255509 -63.121434,0.255509 -50.5621299,0 -62.9888466,-0.066 -63.0921002,-0.335074 z M 167.32463,89.014304 c -0.0978,-0.09784 -0.17788,-3.373412 -0.17788,-7.279048 v -7.101155 l 22.29114,0.06765 22.29115,0.06765 v 7.14375 7.14375 l -22.11327,0.06765 c -12.16229,0.03721 -22.1933,-0.01241 -22.29114,-0.110244 z m 57.8378,-0.154739 c -0.3684,-0.471514 -5.09902,-13.263097 -5.09902,-13.787748 0,-0.401079 2.76341,-0.43471 35.71875,-0.43471 28.39881,0 35.71867,0.06778 35.71838,0.330729 -2.1e-4,0.181901 -1.10252,3.426354 -2.44957,7.209896 l -2.44919,6.879167 -30.59004,0.06725 c -24.27616,0.05337 -30.64354,-0.0013 -30.84931,-0.264584 z m 74.13138,-0.0039 c -0.071,-0.185123 -0.0973,-3.430256 -0.0584,-7.211409 l 0.0708,-6.874814 22.2954,-0.06765 22.29541,-0.06765 -0.0704,7.211401 -0.0704,7.211399 -22.16658,0.06766 c -17.7442,0.05416 -22.19234,5.29e-4 -22.29572,-0.268928 z m -425.24349,-35.185242 0.0704,-7.211399 h 22.225 22.224994 v 7.14375 7.14375 l -22.295404,0.06765 -22.29539,0.06765 z M -8.4171844,60.5437 c -0.070718,-0.184291 -0.096748,-3.428744 -0.057843,-7.209896 l 0.070739,-6.874823 62.9570514,-0.0667 c 36.163481,-0.03831 63.056497,0.03274 63.190697,0.16696 0.86257,0.86256 -4.76753,7.954161 -9.93119,12.509212 l -2.05222,1.810316 H 48.735726 c -45.7697077,0 -57.049707,-0.06613 -57.1529104,-0.335073 z m 175.6258144,-6.87332 0.0704,-7.211399 h 42.05171 42.05171 l 2.03292,5.544704 c 1.1181,3.049585 2.15403,5.585074 2.30206,5.634418 0.14804,0.04935 0.38952,-0.243115 0.53663,-0.649911 0.14711,-0.406795 0.98338,-2.72174 1.85835,-5.144321 0.87498,-2.422583 1.72506,-4.655373 1.88902,-4.961758 l 0.29814,-0.557061 41.72825,0.06697 41.72828,0.06696 0.0704,7.211399 0.0704,7.211401 -22.29541,-0.06765 -22.2954,-0.06765 -0.1323,-3.175 -0.13229,-3.175 -0.4586,0.926042 c -0.2522,0.509323 -0.84751,1.938073 -1.32292,3.175 l -0.86431,2.248958 h -41.00182 -41.00181 l -1.03526,-2.976562 c -0.56941,-1.63711 -1.13493,-2.976563 -1.25672,-2.976563 -0.12179,0 -0.25509,1.339453 -0.29623,2.976563 l -0.0748,2.976562 -22.29541,0.06765 -22.2954,0.06765 z M -125.83369,32.658052 c -0.0978,-0.09784 -0.17789,-3.373411 -0.17789,-7.279047 V 18.27785 l 22.29115,0.06765 22.291144,0.06765 v 7.14375 7.14375 l -22.113254,0.06765 c -12.16229,0.03721 -22.19331,-0.01241 -22.29115,-0.110244 z M -8.416605,32.499379 c -0.071038,-0.185124 -0.097327,-3.430257 -0.058423,-7.21141 l 0.070739,-6.874822 22.2954,-0.06765 22.295399,-0.06765 -0.0704,7.211402 -0.0704,7.211398 -22.166577,0.06766 c -17.7442067,0.05416 -22.1923445,5.29e-4 -22.295738,-0.268928 z m 88.162661,0.15717 c -0.09701,-0.09701 -0.17639,-3.371231 -0.17639,-7.276042 v -7.099652 h 23.680204 23.68021 v 1.685134 c 0,0.926825 -0.181,2.742528 -0.40222,4.034896 -0.47522,2.776273 -1.88415,8.002043 -2.28894,8.489805 -0.22817,0.274926 -4.61483,0.342249 -22.30027,0.342249 -12.108919,0 -22.095582,-0.07938 -22.192594,-0.17639 z m 87.577084,0 c -0.097,-0.09701 -0.17639,-3.371646 -0.17639,-7.276962 v -7.100576 l 36.97552,0.06707 36.97551,0.06707 2.432,6.614584 c 1.33758,3.638021 2.4389,6.882474 2.4474,7.209896 l 0.0153,0.595312 h -39.24651 c -21.58561,0 -39.32592,-0.07938 -39.42292,-0.17639 z m 97.32873,-0.0782 c -0.0871,-0.140973 0.99464,-3.41558 2.40389,-7.276904 l 2.56233,-7.02059 h 37.13941 37.1394 l -0.0704,7.209896 -0.0704,7.209896 -39.47292,0.06701 c -25.25588,0.04288 -39.52996,-0.02532 -39.63132,-0.189307 z M -155.31859,4.5662759 c -0.25983,-0.1649227 -0.31929,-1.8140072 -0.26458,-7.3381369 l 0.0705,-7.1254093 51.16896,-0.066818 c 37.601466,-0.049104 51.264043,0.012092 51.527598,0.2308331 0.284882,0.236429 0.35865,1.7040331 0.35865,7.1351142 0,6.489208 -0.02606,6.851412 -0.511773,7.1113546 -0.617752,0.3306101 -101.829475,0.3830823 -102.349405,0.053062 z M -37.87704,4.4243163 c -0.21327,-0.2569739 -0.28108,-2.4106929 -0.231185,-7.342611 l 0.0706,-6.9789756 79.295053,-0.066582 79.295062,-0.066579 0.67013,0.8785941 c 1.60078,2.0987412 4.10387,9.4552481 4.20264,12.3514408 l 0.0496,1.4552084 -81.525063,0.066569 C -24.94131,4.7776356 -37.622019,4.7315955 -37.87704,4.4243163 Z M 137.83972,4.5662759 C 137.5799,4.4013532 137.52045,2.7522687 137.57514,-2.771861 l 0.0706,-7.1254093 46.30208,-0.072385 c 25.46614,-0.039812 46.5402,-0.015187 46.83125,0.054732 0.43055,0.1034256 0.97295,1.4369151 2.91041,7.1550902 2.02922,5.9890397 2.32259,7.0657325 1.98438,7.2834026 -0.48745,0.3137191 -97.34053,0.3559942 -97.83411,0.042706 z M 274.91391,4.498442 c -0.20849,-0.2084943 0.33788,-2.1740998 1.96737,-7.0776043 1.24081,-3.7339165 2.37379,-6.9381002 2.51772,-7.120406 0.20823,-0.2637684 9.75185,-0.3178047 46.7292,-0.2645834 l 46.4675,0.066881 0.0706,7.1254093 c 0.0547,5.5241297 -0.005,7.1732142 -0.26458,7.3381369 -0.54147,0.3436805 -97.14346,0.2764658 -97.48777,-0.067834 z m -430.38243,-28.198144 c -0.097,-0.09701 -0.17639,-3.371533 -0.17639,-7.276709 v -7.100318 l 51.5276,0.06681 51.527606,0.06681 0.07446,6.614583 c 0.04095,3.638021 0.0089,6.882474 -0.07119,7.209896 l -0.145643,0.595313 H -104.0121 c -28.20402,0 -51.35941,-0.07937 -51.45642,-0.17639 z m 117.418003,-0.158684 c -0.07072,-0.18429 -0.09675,-3.428743 -0.05784,-7.209896 l 0.07074,-6.874822 h 58.737498 58.737498 l 2.848525,0.601675 c 5.507122,1.163236 11.038395,3.316169 16.333765,6.357584 4.368001,2.508781 9.967591,6.693876 9.648051,7.210901 -0.0961,0.155477 -27.694334,0.249632 -73.171966,0.249632 -58.674988,0 -73.042944,-0.06582 -73.146267,-0.335074 z m 175.740327,0.158684 c -0.097,-0.09701 -0.1764,-3.371599 -0.1764,-7.276857 v -7.10047 l 41.8497,0.06696 41.84968,0.06696 2.46361,6.746875 c 1.35499,3.710781 2.46557,6.955234 2.46801,7.209896 0.004,0.439139 -2.27227,0.463021 -44.13689,0.463021 -24.27774,0 -44.22071,-0.07937 -44.31771,-0.17639 z m 147.20879,-0.285851 c 0.007,-0.25509 1.12144,-3.499895 2.47706,-7.210676 l 2.4648,-6.746875 41.44801,-0.06697 41.44804,-0.06697 -0.0704,7.21072 -0.0704,7.210721 -43.85469,0.06693 c -41.64753,0.06356 -43.85408,0.04359 -43.84241,-0.396875 z"
         id="path1381" />
      <path
         style="fill:#ebeaea;fill-opacity:1;stroke-width:0.264583"
         d="m -154.73151,173.25687 c -0.0709,-0.18466 -0.097,-3.42941 -0.0581,-7.21056 l 0.0707,-6.87483 h 51.32917 51.329163 v 7.14375 7.14375 l -51.271063,0.0668 c -41.22985,0.0537 -51.2963,0.001 -51.39991,-0.26893 z m 116.884783,0.0226 c -0.492199,-0.4922 -0.459253,-13.53339 0.03523,-13.94377 0.529992,-0.43985 145.823867,-0.29216 145.823867,0.14823 0,0.44304 -2.93097,2.74864 -6.40765,5.04046 -5.816411,3.83416 -12.591463,6.72367 -19.24829,8.20925 l -3.183636,0.71048 -58.348166,0.0793 c -45.686301,0.0621 -58.418299,0.009 -58.671352,-0.24392 z m 176.330287,0.13542 c -0.097,-0.097 -0.1764,-3.29897 -0.1764,-7.11545 0,-6.08343 0.0516,-6.95885 0.41852,-7.09965 0.23019,-0.0883 16.637,-0.1606 36.45958,-0.1606 27.67918,0 36.11473,0.0737 36.35857,0.3175 0.22981,0.22982 0.3175,2.12362 0.3175,6.85753 0,3.59701 -0.0723,6.72836 -0.1606,6.95854 -0.14537,0.37883 -3.61617,0.41852 -36.60069,0.41852 -20.04205,0 -36.51948,-0.0794 -36.61648,-0.17639 z m 116.92699,-0.42743 c -0.60751,-0.9566 -4.95898,-13.40667 -4.78448,-13.68899 0.23002,-0.37218 10.36349,-0.34508 10.59426,0.0283 0.23915,0.38697 -4.65122,13.94591 -5.0908,14.11458 -0.19047,0.0731 -0.51401,-0.13116 -0.71898,-0.45391 z m 44.14761,0.26967 c -0.0709,-0.1848 -0.0971,-3.42967 -0.0582,-7.21082 l 0.0707,-6.87483 h 36.90937 36.90938 v 7.14375 7.14375 l -36.85117,0.0671 c -29.59399,0.0539 -36.87659,7.9e-4 -36.98012,-0.26893 z m -454.11687,-28.07499 c -0.21268,-0.25626 -0.28069,-2.38052 -0.23084,-7.2099 l 0.0707,-6.84659 51.39531,-0.0668 51.395315,-0.0668 v 7.11611 c 0,6.24489 -0.05124,7.13578 -0.418515,7.27671 -0.230183,0.0883 -23.254197,0.1606 -51.16448,0.1606 -42.70062,0 -50.79376,-0.0576 -51.04747,-0.3633 z m 116.804572,-0.0525 c -0.355206,-0.35521 -0.415774,-1.35417 -0.415774,-6.85753 0,-3.54296 0.07227,-6.63008 0.160599,-6.86027 0.145965,-0.38038 7.61007,-0.41851 81.918579,-0.41851 h 81.757984 l -0.1832,1.22165 c -0.35591,2.37344 -2.00731,7.85788 -3.0109,9.99948 -0.55904,1.19297 -1.34879,2.43046 -1.75504,2.74999 l -0.73855,0.58096 H 41.320594 c -71.155367,0 -78.698622,-0.0397 -79.074732,-0.41577 z m 176.353748,0.0525 c -0.21267,-0.25626 -0.2807,-2.38052 -0.23082,-7.2099 l 0.0707,-6.84659 36.4963,-0.0671 c 29.02236,-0.0533 36.53943,8e-4 36.70689,0.26459 0.11581,0.18242 0.21241,3.26996 0.21463,6.86121 0.003,5.58682 -0.056,6.58956 -0.41172,6.94531 -0.37391,0.37391 -4.04714,0.41577 -36.48011,0.41577 -30.25325,0 -36.1129,-0.0585 -36.36584,-0.3633 z m 107.0757,0.0326 c -0.41079,-0.32472 -5.23898,-13.07342 -5.23898,-13.8334 0,-0.33642 2.03829,-0.38795 15.34583,-0.38795 13.1264,0 15.34583,0.0547 15.34583,0.37814 0,0.81887 -4.55681,13.53283 -4.96154,13.84321 -0.32716,0.2509 -2.80181,0.33073 -10.252,0.33073 -7.45704,0 -9.92142,-0.0796 -10.23914,-0.33073 z m 54.09383,0.1555 c -0.2531,-0.10212 -0.33073,-1.80554 -0.33073,-7.25607 v -7.12263 l 36.97552,0.0671 36.97552,0.0671 0.0706,6.99307 c 0.0547,5.41823 -0.005,7.04099 -0.26458,7.20585 -0.35695,0.22656 -72.8663,0.27164 -73.42637,0.0456 z m -425.66132,-28.47026 c -0.0707,-0.18429 -0.0968,-3.42874 -0.0578,-7.2099 l 0.0707,-6.87482 h 22.0927 22.092711 l 0.0704,7.2099 0.0704,7.20989 h -22.105261 c -17.59299,0 -22.13151,-0.0684 -22.23384,-0.33507 z m 117.5167759,-0.0819 c -0.088646,-0.23101 -0.1611762,-3.36303 -0.1611762,-6.96004 0,-4.73391 0.087683,-6.62771 0.3175,-6.85753 0.241853,-0.24185 5.4899478,-0.31653 22.0265613,-0.31345 11.939984,0.002 21.859909,0.0998 22.044278,0.21683 0.259723,0.16485 0.319308,1.78761 0.264584,7.20584 l -0.07063,6.99307 -22.129969,0.0677 c -20.0085398,0.0612 -22.1454179,0.0274 -22.2911451,-0.35237 z m 88.0650161,0.0834 c -0.07102,-0.18508 -0.0973,-3.43017 -0.05839,-7.21133 l 0.07074,-6.87482 21.695828,-0.0728 c 11.93271,-0.04 21.95901,-0.009 22.28067,0.0686 0.46024,0.11125 0.70503,0.54502 1.14919,2.03643 1.09191,3.66642 1.86401,7.67779 1.91691,9.95907 l 0.0532,2.29625 -23.48952,0.0676 c -18.811794,0.0541 -23.515241,5.3e-4 -23.618654,-0.26893 z m 87.633528,0.15725 c -0.097,-0.097 -0.17639,-3.29896 -0.17639,-7.11544 0,-6.08343 0.0516,-6.95885 0.41851,-7.09965 0.23019,-0.0883 10.1481,-0.1606 22.03979,-0.1606 16.46378,0 21.697,0.0757 21.93878,0.3175 0.22981,0.22982 0.3175,2.12362 0.3175,6.85753 0,3.59701 -0.0723,6.72836 -0.1606,6.95854 -0.14468,0.37699 -2.34535,0.41851 -22.1809,0.41851 -12.11117,0 -22.09969,-0.0794 -22.19669,-0.17639 z m 67.88655,-0.15433 c -0.44979,-0.56277 -5.10598,-13.72031 -4.94659,-13.9782 0.0897,-0.14508 10.3397,-0.24316 25.41069,-0.24316 22.69352,0 25.27657,0.0421 25.41955,0.41475 0.13697,0.35692 -3.05978,9.71127 -4.44699,13.01286 l -0.47246,1.12447 h -20.34993 c -15.96257,0 -20.40691,-0.0713 -20.61427,-0.33072 z m 64.2906,-6.87766 0.0704,-7.21141 h 22.09271 22.0927 v 7.14375 7.14375 l -22.16311,0.0677 -22.16311,0.0677 z M -125.68533,88.969192 c -0.25971,-0.165526 -0.31931,-1.78885 -0.26459,-7.206724 l 0.0706,-6.993069 22.1631,-0.06766 22.163112,-0.06766 -0.0704,7.211406 -0.0704,7.21141 -21.828122,0.06297 c -12.00547,0.03463 -21.97897,-0.03317 -22.16334,-0.15068 z m 117.4662497,-0.0975 c -0.2298171,-0.229818 -0.3175,-2.123618 -0.3175,-6.857527 0,-3.597016 0.072268,-6.72836 0.1605994,-6.958542 0.1457563,-0.379833 5.413441,-0.418515 56.9939469,-0.418515 h 56.833344 l 1.28053,1.014934 c 4.71149,3.734273 11.35364,11.807351 10.83231,13.165926 -0.12171,0.317129 -9.27338,0.371224 -62.804097,0.371224 -48.3840478,0 -62.7339757,-0.07234 -62.9791333,-0.3175 z m 175.6920603,0.09662 c -0.25972,-0.164857 -0.3193,-1.787615 -0.26459,-7.205846 l 0.0707,-6.993069 22.07614,-0.06768 c 17.48597,-0.0536 22.12001,0.0013 22.2871,0.264584 0.3198,0.503729 0.2694,13.105246 -0.0548,13.711111 -0.26741,0.499655 -0.78896,0.511677 -22.02656,0.507722 -11.96396,-0.0021 -21.9035,-0.0998 -22.08789,-0.216826 z m 57.96568,0.01355 c -0.29893,-0.19009 -5.37525,-13.468535 -5.37525,-14.060392 0,-0.33813 71.06208,-0.413158 71.27092,-0.07525 0.15086,0.244102 -4.50403,13.516573 -4.91358,14.010039 -0.2191,0.264007 -6.52775,0.332095 -30.47254,0.328883 -16.60795,-0.0021 -30.33723,-0.0937 -30.50955,-0.203272 z m 74.17615,0.03093 c -0.097,-0.097 -0.1764,-3.371903 -0.1764,-7.277545 v -7.101163 l 22.15885,0.06766 22.15885,0.06766 0.0707,6.993069 c 0.0547,5.418231 -0.005,7.040989 -0.26459,7.205846 -0.40121,0.254661 -43.69336,0.298484 -43.94736,0.04449 z m -425.45,-28.310418 c -0.097,-0.097 -0.17639,-3.309424 -0.17639,-7.138699 v -6.962323 l 0.59532,-0.143996 c 0.32742,-0.0792 10.2989,-0.111234 22.15885,-0.07119 l 21.563541,0.07281 0.0704,7.209896 0.0704,7.209896 h -22.052851 c -12.12908,0 -22.13224,-0.07938 -22.22926,-0.17639 z M -8.3759809,60.46025 c -0.088331,-0.230174 -0.1605994,-3.361518 -0.1605994,-6.958534 0,-4.733909 0.087683,-6.627709 0.3175,-6.857527 0.2451576,-0.245157 14.5950855,-0.3175 62.9791333,-0.3175 53.530717,0 62.682387,0.05409 62.804097,0.371224 0.5244,1.366576 -6.10468,9.431684 -10.80836,13.149739 l -1.30448,1.031121 H 48.617966 c -51.5805059,0 -56.8481906,-0.03868 -56.9939469,-0.418515 z M 167.32314,60.702375 c -0.097,-0.097 -0.17639,-3.298954 -0.17639,-7.115434 0,-6.083432 0.0516,-6.958857 0.41851,-7.099652 0.23019,-0.08833 19.01931,-0.1606 41.75361,-0.1606 32.66691,0 41.42345,0.06936 41.75651,0.33073 0.23178,0.181901 1.27968,2.711979 2.32868,5.622396 1.85309,5.141349 2.21094,5.943896 2.51484,5.639985 0.0801,-0.08006 0.98332,-2.453375 2.00723,-5.274027 1.02391,-2.820651 2.0347,-5.396349 2.24618,-5.723771 l 0.38455,-0.595313 41.33505,0.004 c 22.73427,0.0021 41.48588,0.0998 41.67026,0.216826 0.25972,0.164856 0.3193,1.787615 0.26459,7.205845 l -0.0707,6.99307 -22.15885,0.06766 -22.15885,0.06766 -0.0185,-2.845782 c -0.0196,-2.981788 -0.23612,-4.165354 -0.64217,-3.508361 -0.12259,0.198344 -0.72218,1.678723 -1.33245,3.289728 l -1.10955,2.929102 -40.74885,0.06698 c -32.40127,0.05326 -40.80298,-0.0011 -41.01301,-0.264584 -0.14528,-0.182361 -0.71353,-1.615328 -1.2628,-3.184374 -0.54925,-1.569043 -1.10011,-2.915523 -1.22415,-2.992175 -0.12404,-0.07666 -0.2255,1.167606 -0.2255,2.765022 0,1.597414 -0.0723,3.092723 -0.16061,3.322905 -0.14467,0.376992 -2.34534,0.418516 -22.18089,0.418516 -12.11117,0 -22.09969,-0.07937 -22.19669,-0.17639 z M -125.89159,32.499387 c -0.071,-0.185126 -0.0973,-3.430265 -0.0584,-7.211418 l 0.0707,-6.874822 22.1631,-0.06766 22.163112,-0.06766 -0.0704,7.211407 -0.0704,7.211409 -22.034282,0.06767 c -17.63745,0.05416 -22.06006,5.29e-4 -22.16344,-0.268928 z m 117.6725097,0.01605 c -0.3664902,-0.36649 -0.4583324,-13.338538 -0.098451,-13.905384 0.1670871,-0.263175 4.8011396,-0.318188 22.2870943,-0.264583 l 22.076148,0.06767 0.07063,6.99307 c 0.05472,5.41823 -0.0049,7.040989 -0.264584,7.205845 -0.184369,0.117026 -10.104294,0.214599 -22.044278,0.216826 -16.536614,0.0031 -21.7847088,-0.0716 -22.0265618,-0.313449 z m 87.9081423,-0.01757 c -0.07072,-0.18429 -0.09675,-3.428744 -0.05784,-7.209896 l 0.07074,-6.874828 h 23.547908 23.54792 l 0.0843,1.028383 c 0.1869,2.280642 -1.92868,12.155321 -2.78839,13.015016 -0.52898,0.528999 -44.20187,0.569637 -44.404604,0.04132 z m 87.783918,0.114197 c -0.25972,-0.164857 -0.3193,-1.787615 -0.26459,-7.205846 l 0.0707,-6.99307 36.81073,-0.06707 36.81077,-0.06707 0.29157,0.728525 c 1.43274,3.579934 4.78036,13.231603 4.68,13.493139 -0.10155,0.264572 -8.06622,0.331438 -39.0957,0.328213 -21.43252,-0.0021 -39.11904,-0.0998 -39.30343,-0.216826 z m 97.39526,-0.190127 c -0.0871,-0.227005 0.96062,-3.47185 2.32828,-7.210764 l 2.48664,-6.798025 h 37.03647 37.03648 v 7.143751 7.14375 l -39.36473,0.06701 c -35.45901,0.06037 -39.38045,0.02606 -39.52314,-0.345725 z M -155.46852,4.346132 c -0.097,-0.097012 -0.17639,-3.2989627 -0.17639,-7.1154424 0,-6.0834325 0.0516,-6.9588567 0.41852,-7.0996521 0.54713,-0.2099545 101.538748,-0.2099545 102.08588,0 0.367276,0.1409356 0.418515,1.0317639 0.418515,7.2760418 v 7.1154424 h -51.285065 c -28.20679,0 -51.36445,-0.079375 -51.46146,-0.1763897 z M -38.009313,4.1040065 c -0.08833,-0.2301823 -0.160599,-3.25653942 -0.160599,-6.7252349 0,-3.4686956 0.07227,-6.4950527 0.160599,-6.7252349 0.145949,-0.3803412 7.381838,-0.4185153 79.328875,-0.4185153 h 79.168288 l 0.56451,0.6009164 c 1.32075,1.4058635 3.83286,8.47163043 4.43169,12.4649286 l 0.1832,1.2216553 H 43.909266 c -74.308509,0 -81.772614,-0.038134 -81.918579,-0.4185152 z m 175.642053,0.083233 c -0.0708,-0.1844067 -0.0968,-3.36932862 -0.0579,-7.0776044 l 0.0708,-6.7423217 h 46.79444 46.79442 l 2.34037,6.8569816 c 1.2872,3.7713418 2.27901,6.9562638 2.20401,7.0776043 -0.075,0.1213432 -22.15963,0.2206228 -49.07696,0.2206228 -39.26297,0 -48.96604,-0.066299 -49.06925,-0.3352826 z m 137.19942,0.00534 c 0,-0.1822345 1.02206,-3.39756762 2.27121,-7.1451869 l 2.27123,-6.8138491 46.61054,0.066881 46.61056,0.066879 v 7.0114585 7.0114585 l -48.88177,0.066847 c -39.01239,0.053356 -48.88177,-4.5e-5 -48.88177,-0.2644828 z M -155.52526,-23.857717 c -0.0709,-0.184658 -0.097,-3.429412 -0.0581,-7.210565 l 0.0707,-6.874822 h 51.32917 51.329163 v 7.14375 7.14375 l -51.271063,0.06682 c -41.22985,0.05373 -51.2963,0.0011 -51.39991,-0.268928 z m 117.673321,0.01738 c -0.36834,-0.36834 -0.458496,-13.339433 -0.09668,-13.909491 0.17153,-0.27025 11.636745,-0.318547 58.667301,-0.247128 52.770742,0.08013 58.652813,0.130643 60.497808,0.519501 7.661084,1.614686 13.975471,4.241948 20.44588,8.507048 3.42519,2.257771 6.35,4.561866 6.35,5.002361 0,0.458869 -145.405843,0.586176 -145.864309,0.127709 z m 175.484759,-0.01804 c -0.0707,-0.18429 -0.0968,-3.428743 -0.0579,-7.209896 l 0.0708,-6.87483 41.57265,-0.06697 c 33.06225,-0.05326 41.62578,7.93e-4 41.83226,0.264583 0.45646,0.582941 5.11374,13.718429 4.95501,13.975244 -0.0935,0.151252 -17.21926,0.246931 -44.19843,0.246931 -35.29716,0 -44.07135,-0.06655 -44.17438,-0.335074 z m 147.3972,0.08893 c -0.15907,-0.257349 4.4972,-13.391991 4.95451,-13.976035 0.20648,-0.263668 8.69063,-0.317841 41.43539,-0.264583 l 41.17578,0.06697 v 7.14375 7.14375 l -43.70631,0.06693 c -26.94485,0.04126 -43.76499,-0.02807 -43.85937,-0.180781 z"
         id="path1379" />
      <path
         style="fill:#ebeaea;fill-opacity:1;stroke-width:0.264583"
         d="m -154.53366,173.27378 c -0.36609,-0.36609 -0.4583,-13.07402 -0.099,-13.63995 0.16762,-0.26399 10.62116,-0.31781 51.39126,-0.26458 l 51.180843,0.0668 0.07071,6.86073 c 0.05475,5.31233 -0.005,6.90876 -0.264583,7.07355 -0.184412,0.11705 -23.201246,0.21465 -51.14852,0.21688 -39.17315,0.003 -50.88596,-0.0687 -51.13073,-0.31345 z m 116.95906,0.14728 c -0.252743,-0.10581 -0.330729,-1.78658 -0.330729,-7.12787 v -6.98941 h 72.892705 c 45.629641,0 72.892704,0.0936 72.892704,0.25022 0,0.34794 -3.90906,3.35873 -6.61458,5.0946 -6.553175,4.20452 -12.936221,6.79403 -20.240626,8.21132 -2.909802,0.5646 -2.92256,0.56473 -60.58958,0.63216 -31.723541,0.0371 -57.827993,0.005 -58.009894,-0.071 z m 176.32274,-0.006 c -0.097,-0.097 -0.17639,-3.31171 -0.17639,-7.14376 v -6.96736 h 36.5125 36.51249 v 6.98315 c 0,6.12364 -0.0515,7.00291 -0.41851,7.14375 -0.57381,0.22018 -72.20974,0.20456 -72.43009,-0.0158 z m 161.021,10e-4 c -0.25287,-0.10204 -0.33073,-1.77909 -0.33073,-7.12379 v -6.99033 l 36.97552,0.0671 36.97552,0.0671 0.0707,6.71421 c 0.0499,4.73149 -0.0183,6.82152 -0.23083,7.07761 -0.2532,0.3051 -6.14256,0.36004 -36.71554,0.3425 -20.02768,-0.0115 -36.56279,-0.0809 -36.74469,-0.15433 z m -44.3819,-0.40053 c -1.78694,-4.86187 -4.63216,-13.05238 -4.63216,-13.33451 0,-0.31394 0.88976,-0.37714 5.3095,-0.37714 h 5.30949 l -0.18663,0.59531 c -0.10266,0.32742 -1.22606,3.45281 -2.49643,6.94531 -1.61284,4.4339 -2.44035,6.37586 -2.74243,6.4357 -0.23794,0.0471 -0.49054,-0.0719 -0.56134,-0.26458 z M -154.6903,144.86301 c -0.23991,-0.62518 -0.18654,-13.15498 0.0577,-13.5396 0.16762,-0.26399 10.62116,-0.31781 51.39126,-0.26458 l 51.180843,0.0668 v 7.01146 7.01146 l -51.234453,0.0668 c -46.5485,0.0607 -51.24917,0.0285 -51.39531,-0.35237 z m 116.904285,0.0826 c -0.07076,-0.18441 -0.09679,-3.36933 -0.05784,-7.07761 l 0.07082,-6.74232 81.478008,-0.0666 c 44.812903,-0.0366 81.567277,0.0229 81.676367,0.13229 0.25705,0.25769 -0.60645,4.1152 -1.65766,7.40535 -0.84024,2.62976 -1.74424,4.64927 -2.66637,5.95653 l -0.51327,0.72761 H 41.443347 c -63.609561,0 -79.125897,-0.0657 -79.229362,-0.33528 z m 176.357765,-6.80847 v -7.14562 l 36.44635,0.0671 36.44635,0.0671 v 7.01146 7.01146 l -36.44635,0.0671 -36.44635,0.0671 z m 106.96603,6.81302 c -0.45807,-0.59414 -5.10878,-13.46626 -4.95517,-13.71482 0.19839,-0.32102 30.19978,-0.3225 30.39817,-0.002 0.0817,0.13225 -0.92327,3.3105 -2.23332,7.06278 -1.31009,3.75229 -2.38197,6.85877 -2.38197,6.9033 0,0.0445 -4.62886,0.081 -10.28636,0.081 -7.91668,0 -10.34508,-0.0762 -10.54135,-0.33073 z m 54.01995,-0.005 c -0.0708,-0.18441 -0.0968,-3.36933 -0.0579,-7.07761 l 0.0708,-6.74232 36.76089,-0.0671 c 29.23402,-0.0533 36.80401,8e-4 36.97147,0.26459 0.24416,0.38454 0.29789,12.91421 0.0581,13.53918 -0.14539,0.37885 -3.64411,0.41852 -36.91769,0.41852 -29.42788,0 -36.78271,-0.0669 -36.88572,-0.33528 z m -425.27568,-28.07243 c -0.21414,-0.25803 -0.28213,-2.33164 -0.23209,-7.07913 l 0.0708,-6.7142 22.16317,-0.0677 22.163182,-0.0677 -0.07047,7.07912 -0.07047,7.07911 -21.860612,0.0677 c -18.31861,0.0567 -21.90968,0.009 -22.16347,-0.29725 z m 117.6223428,0.18548 c -0.097015,-0.097 -0.1763898,-3.31169 -0.1763898,-7.14375 v -6.96736 h 22.0644 c 19.875771,0 22.08033,0.0415 22.224999,0.41852 0.08833,0.23018 0.160599,3.30199 0.160599,6.82625 0,4.63102 -0.08804,6.49577 -0.3175,6.72523 -0.241789,0.24179 -5.499414,0.3175 -22.048609,0.3175 -11.9521125,0 -21.8104871,-0.0794 -21.9074992,-0.17639 z m 87.9576402,-0.187 c -0.212531,-0.25609 -0.280699,-2.34612 -0.230835,-7.07761 l 0.07076,-6.7142 h 22.213592 22.21357 l 0.61926,1.97724 c 1.42928,4.56371 2.47666,11.10687 1.8909,11.8127 -0.45141,0.5439 -46.325883,0.54573 -46.777247,0.002 z m 87.578347,0.002 c -0.21415,-0.25802 -0.28212,-2.33164 -0.23209,-7.07912 l 0.0708,-6.71427 22.16316,-0.0677 22.1632,-0.0677 -0.0705,7.07912 -0.0705,7.07911 -21.86061,0.0677 c -18.31861,0.0567 -21.90967,0.009 -22.16346,-0.29725 z m 68.04273,0.14856 c -0.31723,-0.20164 -5.10095,-13.0876 -5.10095,-13.7406 0,-0.26616 5.13792,-0.33365 25.4,-0.33365 14.85093,0 25.4,0.0988 25.4,0.23782 0,0.43864 -4.7748,13.34883 -5.06746,13.70145 -0.23434,0.28237 -4.07331,0.34747 -20.29878,0.34418 -11.0054,-0.002 -20.15514,-0.0964 -20.33281,-0.20927 z m 64.1317,0.0369 c -0.097,-0.0971 -0.1764,-3.31244 -0.1764,-7.14533 v -6.96887 l 22.15885,0.0677 22.15885,0.0677 0.0708,6.7142 c 0.0499,4.73149 -0.0183,6.82152 -0.23082,7.07761 -0.25127,0.30275 -3.93179,0.36339 -22.05323,0.36339 -11.9634,0 -21.83101,-0.0794 -21.928,-0.17639 z M -125.83368,88.749728 c -0.0978,-0.09784 -0.1779,-3.179569 -0.1779,-6.848279 0,-5.30007 0.0739,-6.731709 0.35971,-6.968908 0.26212,-0.217541 6.27332,-0.280162 22.15885,-0.230833 l 21.799151,0.06769 v 7.011458 7.011459 l -21.980951,0.06766 c -12.08953,0.03721 -22.06101,-0.01241 -22.15886,-0.110244 z m 117.6235082,-6.902725 0.070467,-7.077604 56.5666478,-0.06676 c 48.402526,-0.05712 56.669937,-0.01262 57.282287,0.308361 1.14178,0.598485 6.50131,5.814532 8.40385,8.178848 1.69207,2.102768 3.55658,4.977906 3.55658,5.484347 0,0.156787 -23.544762,0.250407 -62.975146,0.250407 H -8.2806409 Z M 167.32314,88.748217 c -0.097,-0.09701 -0.17639,-3.178058 -0.17639,-6.846768 0,-5.30007 0.0739,-6.731709 0.3597,-6.968908 0.26212,-0.217541 6.27332,-0.280162 22.15885,-0.230833 l 21.79915,0.06769 0.0705,7.077604 0.0705,7.077604 h -22.05294 c -12.12911,0 -22.13232,-0.07937 -22.22932,-0.17639 z m 57.75965,-0.418922 c -0.87034,-1.985751 -4.94199,-13.329839 -4.84319,-13.493751 0.0658,-0.10914 16.01118,-0.198437 35.43419,-0.198437 28.59915,0 35.33946,0.06493 35.44559,0.341455 0.1067,0.278054 -2.45488,7.925168 -4.29488,12.821566 l -0.42256,1.124479 h -30.52911 -30.5291 z m 74.47553,0.261551 c -0.0711,-0.185243 -0.0974,-3.37085 -0.0584,-7.079126 l 0.0708,-6.742321 21.79915,-0.06769 c 16.03992,-0.04981 21.89536,0.01214 22.16325,0.234481 0.29522,0.245002 0.35075,1.584354 0.29355,7.07915 l -0.0705,6.776977 -22.03428,0.06767 c -17.64462,0.05419 -22.06003,5.29e-4 -22.16351,-0.269137 z M -125.71795,60.516897 c -0.21414,-0.258029 -0.28213,-2.33164 -0.23209,-7.079125 l 0.0708,-6.714208 h 22.0927 22.092711 v 7.011459 7.011458 l -21.860611,0.06767 c -18.31861,0.0567 -21.90968,0.0085 -22.16347,-0.297252 z m 117.6223428,0.185486 c -0.097015,-0.09701 -0.1763898,-3.311699 -0.1763898,-7.14375 v -6.96736 h 62.970831 c 39.427677,0 62.970826,0.09362 62.970826,0.250407 0,0.50587 -1.86367,3.380523 -3.55121,5.477629 -1.83869,2.284936 -6.8899,7.239622 -8.22274,8.065593 -0.76722,0.475448 -2.68304,0.491926 -57.30434,0.492882 -31.080825,5.29e-4 -56.5899651,-0.07839 -56.6869772,-0.175401 z M 167.44038,60.516897 c -0.21415,-0.258029 -0.28212,-2.33164 -0.23209,-7.079125 l 0.0708,-6.714208 41.83724,-0.06696 c 33.27397,-0.05326 41.89036,7.93e-4 42.09679,0.264583 0.14274,0.182348 1.11855,2.712794 2.16847,5.623211 1.86653,5.174226 2.22181,5.955541 2.55606,5.621285 0.0904,-0.09035 1.08908,-2.701788 2.21941,-5.803194 l 2.05515,-5.638925 h 41.77196 41.77199 l 0.0705,6.776977 c 0.0572,5.494796 0.003,6.834148 -0.29355,7.07915 -0.26789,0.22234 -6.12333,0.284289 -22.16325,0.234481 l -21.79915,-0.06769 -0.13229,-3.439583 c -0.0812,-2.112145 -0.2344,-3.408119 -0.39688,-3.358055 -0.14552,0.04484 -0.80856,1.505609 -1.47344,3.246152 -0.66487,1.740543 -1.32606,3.281815 -1.46928,3.425047 -0.16917,0.169162 -14.48446,0.236948 -40.85079,0.193432 l -40.59036,-0.06699 -1.19973,-3.288135 c -0.65985,-1.808478 -1.34493,-3.335237 -1.52241,-3.392806 -0.24001,-0.07785 -0.34169,0.76458 -0.39688,3.288139 l -0.0742,3.392802 -21.86061,0.06767 c -18.31861,0.0567 -21.90967,0.0085 -22.16346,-0.297252 z M -125.83519,32.391966 c -0.097,-0.09701 -0.17639,-3.178059 -0.17639,-6.846769 0,-5.30007 0.0739,-6.731709 0.35971,-6.968908 0.26212,-0.21754 6.27332,-0.280162 22.15885,-0.230833 l 21.799151,0.06769 0.07047,7.077604 0.07047,7.077605 h -22.052941 c -12.12911,0 -22.1323,-0.07937 -22.22932,-0.176389 z m 117.6250182,-6.901215 0.070467,-7.077604 21.7991528,-0.06769 c 15.88553,-0.04933 21.896731,0.01328 22.158853,0.230833 0.285152,0.236657 0.359701,1.630815 0.359701,6.726783 0,3.53554 -0.07227,6.616586 -0.160599,6.846768 -0.144669,0.377003 -2.349609,0.418516 -22.22932,0.418516 H -8.2806409 Z m 87.9577278,6.902718 c -0.09784,-0.09784 -0.17789,-3.179562 -0.17789,-6.848272 0,-5.299048 0.07393,-6.731735 0.35959,-6.968813 0.262282,-0.217675 6.65245,-0.28014 23.614064,-0.230835 l 23.25447,0.0676 -0.082,1.984375 c -0.0945,2.285087 -1.04537,7.165507 -1.959,10.054167 l -0.62762,1.984375 -22.10184,0.06765 c -12.156039,0.03721 -22.181914,-0.01241 -22.279754,-0.110244 z m 87.575584,-0.0016 c -0.33713,-0.337111 -0.20298,-13.449528 0.14111,-13.79361 0.24386,-0.243872 8.77032,-0.3175 36.76776,-0.3175 35.12365,0 36.45977,0.01773 36.71083,0.48686 0.47342,0.884563 4.78515,12.932905 4.78515,13.371182 0,0.394284 -3.20344,0.429458 -39.11422,0.429458 -21.51285,0 -39.19363,-0.07938 -39.29063,-0.17639 z m 97.45485,-0.02618 c 0,-0.402558 4.81391,-13.430308 5.08233,-13.754118 0.42619,-0.514192 73.30866,-0.481902 73.73572,0.03267 0.21254,0.256087 0.2807,2.346116 0.23082,7.077604 l -0.0708,6.714207 -39.48906,0.06701 c -21.71898,0.03685 -39.48906,-0.02495 -39.48906,-0.137372 z M -155.48405,4.1046759 c -0.23991,-0.6251814 -0.18654,-13.1549805 0.0577,-13.5396 0.16762,-0.2639907 10.62116,-0.3178096 51.39126,-0.2645834 l 51.180843,0.06682 v 7.0114586 7.0114585 l -51.234453,0.066815 c -46.5485,0.060703 -51.24917,0.028474 -51.39531,-0.3523694 z m 117.698035,0.082563 c -0.07076,-0.1844067 -0.09679,-3.36932862 -0.05784,-7.0776044 l 0.07082,-6.7423217 79.158231,-0.066582 79.158244,-0.066582 0.51355,0.7280407 c 0.92583,1.3124842 1.82729,3.3299798 2.68976,6.0197075 0.97089,3.02783623 1.8932,7.0089477 1.69725,7.3260032 -0.073,0.1180412 -36.800606,0.214622 -81.616999,0.214622 -65.533751,0 -81.509538,-0.065633 -81.613014,-0.3352826 z m 175.616925,0.017783 c -0.22947,-0.2294652 -0.3175,-2.0942194 -0.3175,-6.7252349 0,-3.5242553 0.0723,-6.5960679 0.16061,-6.8262501 0.1456,-0.3794337 4.50328,-0.4185153 46.66654,-0.4185153 36.88895,0 46.56005,0.068392 46.76746,0.3307292 0.29625,0.3747373 4.56581,13.1167032 4.56581,13.6261478 0,0.4741651 -97.36881,0.4872223 -97.84292,0.013123 z m 137.1482,0.076634 c -0.0819,-0.1324769 0.90043,-3.31739888 2.18286,-7.0776044 l 2.33175,-6.8367383 46.40262,-0.066887 c 36.94748,-0.053258 46.44551,5.291e-4 46.61308,0.2645833 0.35935,0.5659755 0.26717,13.2738975 -0.0989,13.640012 -0.39254,0.3925465 -97.18908,0.4686803 -97.43138,0.076634 z M -155.46785,-23.963616 c -0.33757,-0.337566 -0.20407,-13.449769 0.14044,-13.79428 0.24477,-0.244769 11.95758,-0.316571 51.13073,-0.313449 27.947274,0.0021 50.964108,0.09982 51.14852,0.216873 0.259619,0.164791 0.319333,1.761226 0.264583,7.073554 l -0.07071,6.860731 -51.218253,0.06681 c -28.17004,0.03675 -51.29793,-0.01286 -51.39531,-0.110241 z m 117.562521,-6.80743 c 0,-6.123644 0.05151,-7.002918 0.418515,-7.143751 0.702982,-0.26976 110.812592,-0.171207 114.329499,0.102331 9.835303,0.764966 20.012236,4.935135 28.854585,11.823636 1.20055,0.935271 2.18281,1.81309 2.18281,1.950713 0,0.156636 -27.263063,0.250221 -72.892704,0.250221 h -72.892705 z m 175.579349,6.564635 c -0.0884,-0.230182 -0.16061,-3.301995 -0.16061,-6.82625 0,-4.631016 0.088,-6.49577 0.3175,-6.725235 0.24427,-0.244258 9.81152,-0.316566 41.47344,-0.313449 22.63576,0.0021 41.29974,0.09545 41.4755,0.207147 0.32687,0.207751 5.10439,13.036212 5.10439,13.706195 0,0.315603 -6.48321,0.370107 -44.02481,0.370107 -39.9008,0 -44.03987,-0.0392 -44.18541,-0.418515 z m 147.47689,0.08271 c 0,-0.632979 4.80705,-13.551128 5.11566,-13.747457 0.16958,-0.107873 18.64987,-0.197958 41.06736,-0.200186 31.35325,-0.0031 40.83232,0.06922 41.07656,0.313449 0.22947,0.229465 0.3175,2.094219 0.3175,6.725235 0,3.524255 -0.0723,6.596068 -0.1606,6.82625 -0.14555,0.379291 -4.24964,0.418515 -43.78854,0.418515 -35.07783,0 -43.62794,-0.06581 -43.62794,-0.335806 z"
         id="path1377" />
      <path
         style="fill:#ebeaea;fill-opacity:1;stroke-width:0.264583"
         d="m -154.52482,166.38138 0.0705,-6.94531 51.13072,-0.0668 51.130731,-0.0668 v 7.01213 7.01213 h -51.201261 -51.20127 z m 116.738723,6.60981 c -0.07081,-0.18453 -0.09684,-3.30992 -0.05784,-6.94531 l 0.0709,-6.60981 72.694267,-0.0666 c 46.244702,-0.0424 72.69427,0.0257 72.69427,0.18703 0,0.38179 -3.23197,2.903 -6.23189,4.86141 -6.980424,4.55694 -14.710173,7.54783 -22.022473,8.5212 -3.97992,0.52979 -116.944651,0.58002 -117.147234,0.0521 z m 176.419597,-6.60888 0.0705,-6.94624 h 36.38021 36.3802 v 6.87916 6.87917 l -36.45074,0.0671 -36.45075,0.0671 z m 116.92133,6.48485 c -0.31478,-0.58817 -4.79975,-13.08772 -4.79975,-13.37683 0,-0.10261 2.32171,-0.18655 5.15937,-0.18655 3.54962,0 5.15938,0.0901 5.15938,0.28861 0,0.54143 -4.58007,13.07159 -4.91062,13.43444 -0.27548,0.30241 -0.37504,0.27628 -0.60838,-0.15967 z m 44.0028,0.12403 c -0.0708,-0.18453 -0.0968,-3.30992 -0.0578,-6.94531 l 0.0709,-6.60981 h 36.77708 36.77708 l 0.0705,6.94531 0.0705,6.94531 h -36.78978 c -29.46683,0 -36.8154,-0.0668 -36.91853,-0.3355 z m -453.96715,-27.88605 c -0.0974,-0.0974 -0.17705,-3.25284 -0.17705,-7.01213 v -6.83507 h 51.20126 51.201268 l -0.07054,6.94531 -0.07054,6.94532 -50.953668,0.0668 c -28.02451,0.0367 -51.03334,-0.0129 -51.13073,-0.11024 z m 116.623423,-0.15978 c -0.07081,-0.18453 -0.09684,-3.30992 -0.05784,-6.94532 l 0.0709,-6.60981 81.557809,-0.0666 c 71.429928,-0.0583 81.557808,-0.0185 81.557808,0.32049 0,0.65791 -0.98756,4.65799 -1.73368,7.02213 -0.80079,2.53749 -2.02462,5.13215 -2.83909,6.01927 l -0.54655,0.59531 H 41.282951 c -63.507019,0 -78.965474,-0.0656 -79.069048,-0.3355 z m 176.535167,0.16005 c -0.0975,-0.0975 -0.17732,-3.25353 -0.17732,-7.01333 v -6.83601 l 36.44635,0.0671 36.44635,0.0671 v 6.87917 6.87917 l -36.26903,0.0671 c -19.94796,0.0369 -36.34882,-0.0127 -36.44635,-0.11024 z m 107.08073,-0.0252 c -0.2935,-0.19513 -5.12889,-12.94057 -5.12889,-13.51907 0,-0.22426 3.92435,-0.30315 15.08125,-0.30315 11.89077,0 15.0804,0.07 15.07723,0.33073 -0.003,0.1819 -1.04402,3.30729 -2.31511,6.94531 l -2.31108,6.61459 -10.05417,0.0639 c -5.52979,0.0351 -10.18696,-0.0244 -10.34923,-0.13229 z m 53.73778,-0.39368 c -0.0803,-0.32793 -0.11242,-3.45374 -0.0714,-6.94624 l 0.0746,-6.35 36.84762,-0.0671 36.84762,-0.0671 -0.0705,6.94624 -0.0705,6.94623 -36.70567,0.0671 -36.70564,0.0671 z m -425.25282,-34.65983 0.0705,-6.94683 h 21.96042 21.960411 v 6.87916 6.87917 l -22.030961,0.0677 -22.03095,0.0677 z m 117.5324749,6.60829 c -0.070811,-0.18453 -0.096837,-3.30992 -0.057843,-6.94531 l 0.070903,-6.60981 H 13.82071 35.781126 l 0.07054,6.94531 0.07054,6.94531 H 13.949092 c -17.5011051,0 -21.9993152,-0.0683 -22.1018571,-0.3355 z m 88.0487681,-6.60981 0.07054,-6.94531 21.860617,-0.0677 c 17.28763,-0.0535 21.91721,0.002 22.13123,0.26458 0.74242,0.91145 2.3764,8.07178 2.62678,11.5109 l 0.15894,2.18281 H 103.28477 79.825463 Z m 87.577077,0.002 0.0705,-6.94684 h 21.96042 21.96041 v 6.87917 6.87917 l -22.03095,0.0677 -22.03095,0.0677 z m 67.66751,6.34841 c -0.85662,-1.98182 -4.7002,-13.0432 -4.59267,-13.21717 0.16521,-0.26733 50.29951,-0.27926 50.45059,-0.012 0.0906,0.16029 -2.11481,6.43261 -4.46545,12.70001 l -0.42175,1.12447 h -20.35669 -20.35673 z m 64.41704,0.25981 c -0.0708,-0.18453 -0.0968,-3.30992 -0.0578,-6.94531 l 0.0709,-6.60981 h 21.96041 21.96042 l 0.0705,6.94531 0.0705,6.94531 h -21.97312 c -17.5011,0 -21.99931,-0.0683 -22.10186,-0.3355 z M -125.5706,88.748217 c -0.097,-0.09701 -0.17639,-3.252853 -0.17639,-7.012977 v -6.83659 l 22.02656,0.06767 22.026561,0.06766 0.07455,6.35 c 0.041,3.4925 0.009,6.617891 -0.07119,6.945313 l -0.145735,0.595312 h -21.778986 c -11.97844,0 -21.85836,-0.07937 -21.95537,-0.17639 z M -8.1527651,88.589105 c -0.070811,-0.184526 -0.096837,-3.309916 -0.057843,-6.945313 l 0.070903,-6.60981 56.4885391,-0.07232 c 31.068697,-0.03977 56.754926,-0.0081 57.080496,0.07035 0.73085,0.176133 7.02651,6.238915 8.82311,8.496734 1.49638,1.880521 3.15264,4.533355 3.15264,5.049568 0,0.50478 -125.3641488,0.515556 -125.5578449,0.0108 z M 167.58924,88.749736 c -0.0978,-0.09785 -0.17791,-3.254372 -0.17791,-7.014496 v -6.83659 l 22.02656,0.06767 22.02656,0.06766 v 6.879167 6.879167 l -21.84865,0.06766 c -12.01677,0.03722 -21.92872,-0.01238 -22.02656,-0.110244 z m 57.82973,-0.155858 c -0.25791,-0.321305 -5.09098,-13.147588 -5.09098,-13.510755 0,-0.09979 15.9671,-0.181433 35.48248,-0.181433 30.18263,0 35.46139,0.05493 35.34135,0.367758 -0.0776,0.202266 -1.05773,2.970469 -2.17805,6.151562 -1.1203,3.181094 -2.19456,6.170759 -2.38723,6.643701 l -0.35028,0.859896 h -30.2759 c -23.90275,0 -30.33178,-0.06962 -30.54139,-0.330729 z m 74.14874,-0.263057 c -0.0803,-0.32826 -0.11255,-3.454339 -0.0716,-6.946839 l 0.0746,-6.35 22.03095,-0.06767 22.03096,-0.06767 -0.0705,6.946835 -0.0705,6.946834 -21.88885,0.06767 -21.88884,0.06767 z m -425.25295,-34.660423 0.0705,-6.946834 21.88885,-0.06767 21.888841,-0.06768 0.146119,0.596842 c 0.08037,0.32826 0.112572,3.454339 0.07157,6.946839 l -0.07455,6.35 -22.03096,0.06767 -22.03095,0.06767 z m 117.5324749,6.60829 c -0.070811,-0.184526 -0.096837,-3.309917 -0.057843,-6.945313 l 0.070903,-6.609811 62.7723931,-0.06669 c 58.040212,-0.06167 62.772392,-0.03397 62.772392,0.367395 0,1.432195 -6.27332,8.856292 -10.39863,12.306173 l -1.53508,1.283751 H 48.723669 c -45.5845709,0 -56.7730165,-0.066 -56.8764341,-0.335502 z m 175.6258451,-6.60829 0.0705,-6.946834 h 41.79663 41.79662 l 1.92175,5.291667 c 2.4566,6.764436 2.38564,6.60794 2.82935,6.239698 0.19645,-0.163044 1.22544,-2.705237 2.28666,-5.64932 1.06119,-2.944082 2.04348,-5.502076 2.18281,-5.68443 0.20153,-0.263694 8.73466,-0.317844 41.69373,-0.264583 l 41.44036,0.06697 0.0705,6.946834 0.0705,6.946835 -22.03096,-0.06767 -22.03095,-0.06767 -0.0739,-3.525173 c -0.054,-2.574751 -0.15859,-3.496967 -0.38783,-3.420555 -0.17261,0.05754 -0.87394,1.568866 -1.55853,3.358499 -0.68458,1.789634 -1.34982,3.359031 -1.47833,3.487547 -0.13372,0.133718 -17.59405,0.20501 -40.82066,0.166675 l -40.58694,-0.06699 -1.18782,-3.373437 c -0.68385,-1.942143 -1.33128,-3.373438 -1.52596,-3.373438 -0.25289,0 -0.35679,0.850299 -0.41217,3.373438 l -0.0741,3.373437 -22.03095,0.06767 -22.03095,0.06767 z M -125.56908,32.393485 c -0.0978,-0.09785 -0.17791,-3.254373 -0.17791,-7.014496 v -6.83659 l 22.02656,0.06767 22.026561,0.06766 v 6.879167 6.879167 l -21.848651,0.06766 c -12.01676,0.03722 -21.92872,-0.01238 -22.02656,-0.110244 z m 117.4169022,-0.1591 c -0.071133,-0.185367 -0.097425,-3.311448 -0.058431,-6.946844 l 0.070903,-6.609811 22.0309558,-0.06767 22.030959,-0.06767 -0.07054,6.946834 -0.07054,6.946834 -21.901988,0.06768 c -17.5451913,0.05422 -21.9277124,5.29e-4 -22.0313153,-0.269354 z m 88.1628168,0.157581 c -0.09701,-0.09701 -0.17639,-3.252168 -0.17639,-7.011459 v -6.835068 h 23.454911 23.45495 l -0.15894,2.182812 c -0.25014,3.435925 -1.88423,10.599257 -2.62551,11.509376 -0.21154,0.259717 -4.93975,0.330729 -22.02101,0.330729 -11.963398,0 -21.830999,-0.07937 -21.928011,-0.17639 z m 87.577091,0 c -0.097,-0.09701 -0.1764,-3.252586 -0.1764,-7.012385 v -6.836 l 36.71094,0.06707 36.71093,0.06707 2.432,6.614584 c 1.33757,3.638021 2.4389,6.763412 2.44739,6.945313 0.0122,0.263157 -7.94916,0.330729 -38.96653,0.330729 -21.44009,0 -39.06134,-0.07937 -39.15833,-0.17639 z m 97.53523,-0.550341 c 0.0808,-0.400664 1.18297,-3.556212 2.44935,-7.012332 l 2.30251,-6.283854 h 36.87889 36.8789 l -0.0705,6.945312 -0.0705,6.945313 -39.25774,0.06702 -39.2577,0.06702 z m -420.44153,-34.5289993 0.0705,-6.9453127 h 51.06458 51.06458 l 0.07054,6.9453127 0.07054,6.9453127 h -51.20566 -51.20566 z m 117.589631,6.7689229 c -0.336915,-0.3369125 -0.202907,-13.1850107 0.14111,-13.5290272 0.24552,-0.2455201 18.137332,-0.3175 78.919249,-0.3175 71.0824,0 78.65864,0.039838 79.19633,0.4164542 0.78147,0.54737 2.19456,3.3901116 3.08096,6.1981293 0.74592,2.36288531 1.73387,6.3638484 1.73387,7.0217058 0,0.3382777 -10.18543,0.3866277 -81.447564,0.3866277 -44.79616345,0 -81.526943,-0.079375 -81.623955,-0.1763898 z m 175.568689,-6.7689229 0.0705,-6.9453127 46.30208,-0.062521 c 25.46615,-0.034388 46.43591,0.025135 46.59947,0.1322917 0.22889,0.1499526 4.86199,13.2152393 4.86199,13.7107986 0,0.060531 -22.02855,0.1100561 -48.95231,0.1100561 h -48.95231 z m 137.25699,6.746981 c 0,-0.4196741 4.31816,-13.1806159 4.56645,-13.4945943 0.20854,-0.2637632 9.69951,-0.317807 46.46501,-0.2645834 l 46.20291,0.066884 0.0705,6.9453127 0.0705,6.9453127 h -48.68772 c -26.77824,0 -48.68773,-0.089249 -48.68773,-0.1983317 z M -155.20393,-23.964285 c -0.097,-0.09701 -0.17639,-3.252169 -0.17639,-7.011459 v -6.835069 h 51.19687 51.196871 v 7.011459 7.011458 h -51.020481 c -28.06127,0 -51.09986,-0.07937 -51.19687,-0.176389 z m 117.417833,-0.159113 c -0.07081,-0.184526 -0.09684,-3.309916 -0.05784,-6.945313 l 0.0709,-6.60981 h 58.340622 c 55.004346,0 58.476799,0.02709 60.721873,0.473781 7.223019,1.437117 13.546692,4.053319 20.108332,8.319149 2.97201,1.932146 6.21771,4.461031 6.21771,4.844516 0,0.16057 -26.569718,0.253179 -72.636426,0.253179 -58.416095,0 -72.661632,-0.06568 -72.765171,-0.335502 z m 175.740487,0.159113 c -0.097,-0.09701 -0.17639,-3.252539 -0.17639,-7.012279 v -6.835892 l 41.58511,0.06697 41.58509,0.06697 2.45272,6.730749 c 1.349,3.70191 2.39305,6.8273 2.32013,6.945313 -0.15804,0.255677 -87.51117,0.293674 -87.76666,0.03817 z m 147.36022,-0.03739 c -0.0732,-0.118443 0.97062,-3.244188 2.31962,-6.946098 l 2.45272,-6.730749 41.19261,-0.06698 41.19263,-0.06697 -0.0705,6.946141 -0.0705,6.946144 -43.44169,0.06693 c -23.89296,0.03681 -43.50163,-0.02997 -43.57481,-0.148418 z"
         id="path1375" />
      <path
         style="fill:#ebeaea;fill-opacity:1;stroke-width:0.264583"
         d="m -154.32199,166.31523 v -6.74687 h 51.06458 51.064581 v 6.74687 6.74688 h -51.064581 -51.06458 z m 116.681244,0.005 v -6.75145 H 34.88748 c 65.73961,0 72.49611,0.0387 72.18501,0.41356 -0.55292,0.66622 -5.48052,4.15911 -7.936384,5.62565 -5.010335,2.99194 -11.01434,5.38996 -16.788315,6.70531 l -2.645833,0.60273 -58.671352,0.0778 -58.671352,0.0778 z m 176.477076,-0.005 v -6.74687 h 36.24792 36.24791 v 6.74687 6.74688 h -36.24791 -36.24792 z m 116.72286,6.19465 c -0.57859,-1.52231 -4.53953,-12.707 -4.53953,-12.81846 0,-0.0677 2.20266,-0.12306 4.89479,-0.12306 3.0162,0 4.89479,0.0994 4.89479,0.25898 0,0.41724 -4.53085,12.81405 -4.78036,13.07942 -0.13224,0.14066 -0.32837,-0.0251 -0.46969,-0.39688 z m 44.1438,-6.19465 v -6.74687 h 36.64479 36.64479 v 6.74687 6.74688 h -36.64479 -36.64479 z m -454.02498,-28.17812 v -6.88052 l 50.99843,0.0668 50.99844,0.0668 v 6.74688 6.74687 l -50.99844,0.0668 -50.99843,0.0668 z m 116.742924,0.0661 0.07061,-6.81302 81.327368,-0.0666 81.327378,-0.0666 -0.16913,1.27488 c -0.23436,1.76675 -1.84356,7.26507 -2.68644,9.17903 -0.38402,0.87201 -0.99161,1.97244 -1.3502,2.44538 l -0.65196,0.8599 H 41.319445 -37.649678 Z m 176.415396,-0.0671 V 131.256 l 36.18177,0.0671 36.18177,0.0671 0.0706,6.81302 0.0706,6.81303 H 175.08869 138.8363 Z m 104.54097,0.37956 c -1.32649,-3.5753 -2.41181,-6.67092 -2.41181,-6.87916 0,-0.32394 2.14014,-0.37863 14.81667,-0.37863 12.41435,0 14.81667,0.0591 14.81667,0.36477 0,0.29048 -2.6946,8.25754 -4.23911,12.53367 l -0.31059,0.8599 h -10.13 -10.12999 z m 56.44483,6.16482 c -0.0709,-0.18465 -0.0969,-3.25051 -0.0578,-6.81302 l 0.071,-6.4773 36.57865,-0.0671 36.57864,-0.0671 v 6.8801 6.8801 h -36.52081 c -29.26251,0 -36.54639,-0.0667 -36.64963,-0.33573 z m -425.30454,-34.72157 v -6.74687 h 21.82813 21.828119 v 6.74687 6.74688 h -21.828119 -21.82813 z m 117.4749964,0 v -6.74687 H 13.82071 35.648835 v 6.74687 6.74688 H 13.82071 -8.0074136 Z m 88.1062466,-0.002 v -6.74841 l 21.894267,0.0677 21.89427,0.0677 0.47628,1.45521 c 0.82788,2.52946 1.76186,7.0108 1.98046,9.50231 l 0.2109,2.40394 H 103.32692 80.098833 Z m 87.577077,0.002 v -6.74687 h 21.82813 21.82812 v 6.74687 6.74688 h -21.82812 -21.82813 z m 67.52198,6.01927 c -0.14472,-0.40018 -1.22922,-3.39528 -2.41003,-6.65577 -1.18081,-3.2605 -2.10532,-5.96978 -2.05447,-6.02062 0.0508,-0.0509 11.35052,-0.0621 25.11042,-0.025 l 25.01796,0.0675 -2.4195,6.68012 -2.41949,6.68012 -20.28089,5.3e-4 -20.28087,5.3e-4 -0.26313,-0.72761 z m 64.5051,-6.01927 v -6.74687 h 21.82812 21.82813 v 6.74687 6.74688 h -21.82813 -21.82812 z m -425.1854,-28.17966 v -6.880704 l 21.76198,0.06768 21.761978,0.06768 0.07061,6.813021 0.07061,6.813021 h -21.832588 -21.83259 z m 117.536676,0.06768 0.070612,-6.813021 55.959373,-0.07483 c 30.777655,-0.04116 56.361279,-0.0032 56.852469,0.08437 1.87691,0.334553 12.21074,11.583573 12.20492,13.285778 0,0.263646 -12.69381,0.330729 -62.579564,0.330729 H -8.016346 Z M 167.67591,81.77932 v -6.880704 l 21.76198,0.06768 21.76198,0.06768 0.0706,6.813021 0.0706,6.813021 h -21.83259 -21.8326 z m 57.54262,5.985245 c -1.2876,-3.081628 -4.60214,-12.422783 -4.47882,-12.622326 0.17968,-0.290687 69.87961,-0.332584 70.05831,-0.04211 0.10104,0.164224 -2.64668,8.281384 -4.2095,12.435417 l -0.42304,1.124479 h -30.2864 -30.28643 z m 74.54614,-5.917562 0.0706,-6.813021 21.76198,-0.06768 21.76198,-0.06768 v 6.880704 6.880704 h -21.8326 -21.83259 z M -125.48241,53.73656 v -6.880704 h 21.83259 21.832592 l -0.07061,6.813021 -0.07061,6.813021 -21.761982,0.06768 -21.76198,0.06768 z M -7.8310239,60.4378 c -0.097015,-0.09701 -0.1763897,-3.192637 -0.1763897,-6.879167 V 46.855856 H 54.566542 c 49.882188,0 62.574198,0.06708 62.575098,0.330729 0,0.181901 -0.67639,1.342761 -1.50448,2.579688 -1.67306,2.499132 -9.06801,10.126096 -10.25594,10.577753 -0.79814,0.303454 -112.9097008,0.39632 -113.2122439,0.09377 z M 167.67591,53.73656 v -6.880704 h 41.64357 c 33.07315,0 41.66877,0.06806 41.76601,0.330729 0.0674,0.181901 0.98875,2.71198 2.04753,5.622396 1.95881,5.384372 2.41644,6.291673 2.91952,5.788568 0.15081,-0.150794 1.19843,-2.824597 2.32804,-5.941785 l 2.05388,-5.667616 41.46238,-0.06697 41.4624,-0.06697 v 6.881529 6.881527 l -21.76198,-0.06768 -21.76198,-0.06768 -0.13229,-3.704167 c -0.0728,-2.037291 -0.22159,-3.674401 -0.33073,-3.638021 -0.10914,0.03638 -0.29681,0.06615 -0.41703,0.06615 -0.12023,0 -0.79124,1.518047 -1.49114,3.373438 -0.69991,1.855391 -1.39034,3.522644 -1.5343,3.705011 -0.20812,0.263641 -8.53492,0.317846 -40.64375,0.264583 l -40.382,-0.06699 -1.09527,-3.042708 c -1.44719,-4.020365 -1.47783,-4.084275 -2.00599,-4.183581 -0.41021,-0.07713 -0.46279,0.277431 -0.52917,3.570329 l -0.0737,3.65596 -21.76198,0.06768 -21.76198,0.06768 z M -125.48241,25.423068 v -6.880704 l 21.76198,0.06768 21.761978,0.06768 0.07061,6.813021 0.07061,6.813021 h -21.832588 -21.83259 z m 117.536676,0.06768 0.070612,-6.813021 H 13.82071 35.516543 l 0.07061,6.813021 0.07061,6.813021 H 13.82071 -8.016346 Z m 88.044567,-0.06606 v -6.88214 l 23.205177,0.06759 23.20515,0.06759 -0.0685,1.455209 c -0.1311,2.783755 -1.11017,7.655954 -2.20649,10.980208 l -0.34904,1.058334 -21.89313,0.06768 -21.893137,0.06768 z m 87.577077,-8.4e-5 v -6.879167 h 36.34782 c 28.76754,0 36.40032,0.06897 36.59963,0.330729 0.25673,0.337198 4.84177,12.867725 4.84066,13.229167 0,0.109141 -17.5028,0.198437 -38.89436,0.198437 h -38.89375 z m 98.133,4.828646 c 0.41418,-1.127787 1.50604,-4.134115 2.42639,-6.68073 0.92036,-2.546614 1.7989,-4.717682 1.95231,-4.824595 0.15341,-0.106913 16.67978,-0.19621 36.72528,-0.198437 l 36.44635,-0.0041 v 6.879167 6.879166 H 304.20757 265.05588 Z M -155.11574,-2.6212284 V -9.501742 l 50.99843,0.066821 50.99844,0.066818 v 6.7468752 6.7468751 l -50.99844,0.066818 -50.99843,0.06682 z m 117.594139,6.5434396 c -0.07086,-0.18465 -0.09689,-3.25050947 -0.05784,-6.813021 l 0.07099,-6.4772938 78.898178,-0.066582 78.898173,-0.066585 0.67096,0.8796814 c 1.27802,1.6755587 3.58201,8.31649736 4.0133,11.5678059 l 0.17402,1.3117222 H 43.876701 c -65.416718,0 -81.294601,-0.065487 -81.398302,-0.3357277 z M 138.04258,-2.6212284 v -6.8791669 h 46.39865 46.39863 l 2.26957,6.6643358 c 1.24825,3.66538675 2.2098,6.7610118 2.13678,6.8791668 -0.073,0.1181576 -21.97373,0.2148311 -48.6682,0.2148311 h -48.53543 z m 137.33811,6.416146 c 0.0106,-0.2546615 0.9929,-3.32052096 2.18281,-6.8130211 l 2.16345,-6.3500001 46.23594,-0.066887 46.23593,-0.066887 V -2.62197 4.2579377 h -48.41875 c -45.94407,0 -48.41777,-0.023654 -48.39938,-0.4630201 z M -155.11574,-30.799354 v -6.746875 h 51.06458 51.064581 v 6.746875 6.746875 h -51.064581 -51.06458 z m 117.474994,-0.004 v -6.750891 l 58.671352,0.07016 58.671352,0.07016 2.513541,0.585211 c 6.541532,1.523021 11.291226,3.417927 17.023662,6.791653 2.458109,1.446676 7.619949,5.138301 7.964749,5.696215 0.12846,0.207854 -20.0706,0.288385 -72.33321,0.288385 h -72.511446 v -6.750892 z m 175.683326,0.004 v -6.746875 h 41.38141 41.38139 l 0.26212,0.727604 c 0.14418,0.400182 1.22738,3.381891 2.40713,6.626016 1.17978,3.244128 2.14503,5.9528 2.14503,6.019271 0,0.06647 -19.70484,0.120859 -43.78854,0.120859 h -43.78854 z m 147.4353,6.416146 c 0.0654,-0.181901 1.16607,-3.217995 2.44583,-6.746875 l 2.32688,-6.416146 h 40.97412 40.97411 v 6.746875 6.746875 h -43.41997 c -34.62306,0 -43.39588,-0.06701 -43.30097,-0.330729 z"
         id="path1373" />
    </g>
  </g>
</svg>
