<?xml version="1.0" encoding="UTF-8" standalone="no"?>
<!-- Created with Inkscape (http://www.inkscape.org/) -->

<svg
   width="150mm"
   height="110mm"
   viewBox="0 0 150 110"
   version="1.1"
   id="svg5"
   inkscape:version="1.1.1 (c3084ef, 2021-09-22)"
   sodipodi:docname="java_logo.svg"
   xmlns:inkscape="http://www.inkscape.org/namespaces/inkscape"
   xmlns:sodipodi="http://sodipodi.sourceforge.net/DTD/sodipodi-0.dtd"
   xmlns="http://www.w3.org/2000/svg"
   xmlns:svg="http://www.w3.org/2000/svg">
  <sodipodi:namedview
     id="namedview7"
     pagecolor="#ffffff"
     bordercolor="#666666"
     borderopacity="1.0"
     inkscape:pageshadow="2"
     inkscape:pageopacity="0.0"
     inkscape:pagecheckerboard="0"
     inkscape:document-units="mm"
     showgrid="false"
     height="110mm"
     inkscape:zoom="0.51936728"
     inkscape:cx="137.66751"
     inkscape:cy="291.70108"
     inkscape:window-width="1312"
     inkscape:window-height="779"
     inkscape:window-x="0"
     inkscape:window-y="26"
     inkscape:window-maximized="0"
     inkscape:current-layer="layer1" />
  <defs
     id="defs2" />
  <g
     inkscape:label="Layer 1"
     inkscape:groupmode="layer"
     id="layer1">
    <g
       id="g962"
       transform="matrix(0.78504645,0,0,0.76536363,-5.5197269,-46.547141)"
       style="fill:#ebeaea;fill-opacity:1">
      <path
         style="fill:#ebeaea;fill-opacity:1;stroke-width:0.264583"
         d="m 91.416021,192.27837 c -9.376946,-0.63365 -18.350922,-2.4973 -17.263143,-3.58508 0.09232,-0.0923 1.811641,0.0243 3.82071,0.25927 18.58475,2.1731 41.159642,1.1273 56.371682,-2.61146 5.69021,-1.39852 8.9368,-2.68461 11.5085,-4.55895 1.05404,-0.76821 1.28272,-0.84746 1.4192,-0.49181 0.25602,0.66719 -0.37365,1.86383 -1.63461,3.10647 -3.89838,3.84173 -12.54231,6.27681 -27.10255,7.63504 -3.99656,0.37282 -22.730783,0.54311 -27.119789,0.24652 z m -6.349999,-5.8165 c -8.097943,-0.53497 -19.543201,-1.89968 -23.389227,-2.78888 -2.119519,-0.49003 -3.669343,-1.34692 -4.163102,-2.30174 -0.33637,-0.65047 -0.329878,-0.84314 0.05579,-1.65587 1.26776,-2.67161 9.328379,-6.0324 15.325705,-6.3899 4.169132,-0.24852 5.284096,0.83483 1.468551,1.42692 -4.115631,0.63865 -8.744593,2.62425 -8.744593,3.75101 0,1.12431 4.630471,2.46825 11.377083,3.30205 5.894644,0.72851 11.250821,0.98127 20.600513,0.97215 21.050968,-0.0205 37.766238,-2.07877 41.433948,-5.102 0.87156,-0.71841 0.96592,-0.91668 0.88953,-1.8689 -0.10803,-1.34669 0.26553,-1.48342 1.33174,-0.48743 4.31536,4.03115 -8.1294,8.77016 -28.2724,10.76624 -5.0692,0.50233 -22.457747,0.73678 -27.913539,0.37635 z m 10.451041,-11.52819 c -7.445174,-0.87885 -11.720793,-2.16074 -13.962753,-4.18621 -1.260573,-1.13885 -1.542179,-1.99045 -1.002995,-3.03311 0.463452,-0.89623 2.47229,-2.23286 4.053392,-2.69705 1.272657,-0.37363 1.64882,-0.19611 1.178904,0.55635 -0.886907,1.42016 0.06107,1.91258 4.883137,2.53651 6.690915,0.86575 15.029812,0.56203 22.322922,-0.81304 1.7299,-0.32617 1.7299,-0.32617 5.09186,1.28606 2.27515,1.09105 3.34021,1.73865 3.29468,2.00331 -0.14435,0.83899 -7.28007,3.00451 -12.63502,3.83443 -2.64394,0.40976 -11.264877,0.74403 -13.224127,0.51275 z m -2.778125,-13.505 c -7.672623,-0.51864 -13.669772,-2.12191 -15.33362,-4.09928 -1.578271,-1.87567 -0.321527,-3.64529 3.829608,-5.39248 1.861146,-0.78335 2.430984,-0.60781 1.571975,0.48425 -0.830882,1.05629 -0.610619,2.05437 0.582049,2.63746 2.344115,1.14602 16.354037,1.63752 23.94719,0.84013 2.12659,-0.22333 5.53793,-0.69385 7.58075,-1.0456 3.71423,-0.63956 3.71423,-0.63956 5.6424,0.65008 1.0605,0.7093 2.17015,1.36644 2.46589,1.46031 0.81047,0.25723 0.64614,0.8525 -0.32218,1.16701 -3.04777,0.98992 -10.87558,2.44378 -15.80885,2.93618 -3.08852,0.30826 -11.694048,0.52831 -14.155212,0.36194 z m 35.498262,-1.06694 c -0.42077,-0.42077 -0.0872,-0.84584 1.21267,-1.54527 5.04605,-2.71519 10.02488,-7.0778 11.45719,-10.03915 1.94572,-4.02284 0.7948,-7.85924 -2.90406,-9.68018 -1.78936,-0.8809 -2.34908,-0.9205 -6.47583,-0.45823 -0.92863,0.10403 -0.96297,-0.45289 -0.0673,-1.0907 2.06079,-1.46742 7.10896,-1.75454 10.1599,-0.57787 1.87699,0.7239 4.07877,2.6843 4.96608,4.42163 0.55622,1.08906 0.6572,1.65355 0.6572,3.6736 0,2.15093 -0.0836,2.55623 -0.84596,4.10104 -2.07463,4.20398 -7.37103,7.89232 -14.96684,10.4227 -3.20509,1.0677 -2.95768,1.00785 -3.1931,0.77243 z M 83.478522,148.35942 c -4.882505,-0.28841 -10.861548,-1.13216 -13.249582,-1.86975 -1.657866,-0.51206 -3.286876,-1.6518 -3.286876,-2.29967 0,-2.24179 10.866381,-6.24186 18.563552,-6.83351 1.57035,-0.12071 2.319306,-0.0823 2.447806,0.12565 0.236741,0.38306 -0.299106,0.60813 -4.210317,1.76846 -5.849794,1.73544 -8.55654,3.51343 -6.561902,4.31034 5.386737,2.15213 28.233677,1.64057 45.692677,-1.02308 3.77279,-0.5756 4.92235,-0.64075 4.92235,-0.27896 0,0.20403 -2.23214,1.5263 -4.7625,2.8212 -1.72338,0.88194 -11.5226,2.45702 -18.72811,3.01028 -5.147507,0.39524 -16.260493,0.53879 -20.827098,0.26904 z m 23.415628,-7.26279 c 0,-0.0698 0.47589,-0.75442 1.05753,-1.52136 1.80123,-2.37504 2.41724,-5.30978 1.61402,-7.68935 -0.18626,-0.5518 -1.29028,-2.27129 -2.45339,-3.8211 -1.16311,-1.54981 -2.51315,-3.60896 -3.00009,-4.5759 -4.213263,-8.36642 -0.58712,-15.96087 10.66207,-22.33022 4.60318,-2.60634 13.77815,-6.116022 14.38971,-5.504461 0.19201,0.19201 0.0861,0.3957 -0.3473,0.667697 -0.34298,0.21527 -2.11188,1.309248 -3.93089,2.431063 -7.4318,4.583321 -12.65169,9.067871 -14.17226,12.175761 -0.63589,1.29969 -0.77607,1.92328 -0.77327,3.43958 0.004,2.31592 0.6778,3.85331 3.34086,7.62601 2.65775,3.76517 3.2626,5.14803 3.26687,7.46896 0.003,1.63858 -0.12197,2.11954 -1.02625,3.94923 -1.16656,2.36037 -3.48405,4.87682 -6.1727,6.70265 -1.42892,0.97036 -2.45491,1.38054 -2.45491,0.98144 z m -10.007276,-8.80277 c -7.74546,-7.73894 -10.620425,-12.35257 -10.683591,-17.1446 -0.0665,-5.04494 2.764491,-8.633 13.811697,-17.505246 9.93504,-7.979046 13.11725,-11.831517 14.46113,-17.50703 0.31991,-1.351077 0.38173,-2.614713 0.27018,-5.522284 -0.0862,-2.247157 -0.0454,-3.770312 0.10098,-3.770312 0.54494,0 1.89021,2.343897 2.5383,4.422543 0.61651,1.977377 0.6741,2.504081 0.55149,5.044251 -0.35173,7.287546 -4.65338,13.694972 -15.08354,22.467398 -4.60841,3.87596 -6.981302,6.54795 -8.407665,9.46743 -1.797894,3.67993 -1.86694,6.93271 -0.23059,10.86339 0.445627,1.07045 2.271712,4.12574 4.057962,6.78953 3.244093,4.83782 4.123003,6.29029 4.123003,6.81357 0,0.83587 -1.26923,-0.18208 -5.509356,-4.41864 z"
         id="path976" />
      <path
         style="fill:#ebeaea;fill-opacity:1;stroke-width:0.264583"
         d="m 91.416021,192.27837 c -9.376946,-0.63365 -18.350922,-2.4973 -17.263143,-3.58508 0.09232,-0.0923 1.811641,0.0243 3.82071,0.25927 18.58475,2.1731 41.159642,1.1273 56.371682,-2.61146 5.69021,-1.39852 8.9368,-2.68461 11.5085,-4.55895 1.05404,-0.76821 1.28272,-0.84746 1.4192,-0.49181 0.25602,0.66719 -0.37365,1.86383 -1.63461,3.10647 -3.89838,3.84173 -12.54231,6.27681 -27.10255,7.63504 -3.99656,0.37282 -22.730783,0.54311 -27.119789,0.24652 z m -6.349999,-5.8165 c -8.097943,-0.53497 -19.543201,-1.89968 -23.389227,-2.78888 -2.119519,-0.49003 -3.669343,-1.34692 -4.163102,-2.30174 -0.33637,-0.65047 -0.329878,-0.84314 0.05579,-1.65587 1.26776,-2.67161 9.328379,-6.0324 15.325705,-6.3899 4.169132,-0.24852 5.284096,0.83483 1.468551,1.42692 -4.115631,0.63865 -8.744593,2.62425 -8.744593,3.75101 0,1.12431 4.630471,2.46825 11.377083,3.30205 5.894644,0.72851 11.250821,0.98127 20.600513,0.97215 21.050968,-0.0205 37.766238,-2.07877 41.433948,-5.102 0.87156,-0.71841 0.96592,-0.91668 0.88953,-1.8689 -0.10803,-1.34669 0.26553,-1.48342 1.33174,-0.48743 4.31536,4.03115 -8.1294,8.77016 -28.2724,10.76624 -5.0692,0.50233 -22.457747,0.73678 -27.913539,0.37635 z m 10.451041,-11.52819 c -7.445174,-0.87885 -11.720793,-2.16074 -13.962753,-4.18621 -1.260573,-1.13885 -1.542179,-1.99045 -1.002995,-3.03311 0.463452,-0.89623 2.47229,-2.23286 4.053392,-2.69705 1.272657,-0.37363 1.64882,-0.19611 1.178904,0.55635 -0.886907,1.42016 0.06107,1.91258 4.883137,2.53651 6.690915,0.86575 15.029812,0.56203 22.322922,-0.81304 1.7299,-0.32617 1.7299,-0.32617 5.09186,1.28606 2.27515,1.09105 3.34021,1.73865 3.29468,2.00331 -0.14435,0.83899 -7.28007,3.00451 -12.63502,3.83443 -2.64394,0.40976 -11.264877,0.74403 -13.224127,0.51275 z m -2.778125,-13.505 c -7.672623,-0.51864 -13.669772,-2.12191 -15.33362,-4.09928 -1.578271,-1.87567 -0.321527,-3.64529 3.829608,-5.39248 1.861146,-0.78335 2.430984,-0.60781 1.571975,0.48425 -0.830882,1.05629 -0.610619,2.05437 0.582049,2.63746 2.344115,1.14602 16.354037,1.63752 23.94719,0.84013 2.12659,-0.22333 5.53793,-0.69385 7.58075,-1.0456 3.71423,-0.63956 3.71423,-0.63956 5.6424,0.65008 1.0605,0.7093 2.17015,1.36644 2.46589,1.46031 0.81047,0.25723 0.64614,0.8525 -0.32218,1.16701 -3.04777,0.98992 -10.87558,2.44378 -15.80885,2.93618 -3.08852,0.30826 -11.694048,0.52831 -14.155212,0.36194 z m 35.498262,-1.06694 c -0.42077,-0.42077 -0.0872,-0.84584 1.21267,-1.54527 5.04605,-2.71519 10.02488,-7.0778 11.45719,-10.03915 1.94572,-4.02284 0.7948,-7.85924 -2.90406,-9.68018 -1.78936,-0.8809 -2.34908,-0.9205 -6.47583,-0.45823 -0.92863,0.10403 -0.96297,-0.45289 -0.0673,-1.0907 2.06079,-1.46742 7.10896,-1.75454 10.1599,-0.57787 1.87699,0.7239 4.07877,2.6843 4.96608,4.42163 0.55622,1.08906 0.6572,1.65355 0.6572,3.6736 0,2.15093 -0.0836,2.55623 -0.84596,4.10104 -2.07463,4.20398 -7.37103,7.89232 -14.96684,10.4227 -3.20509,1.0677 -2.95768,1.00785 -3.1931,0.77243 z M 83.478522,148.35942 c -4.882505,-0.28841 -10.861548,-1.13216 -13.249582,-1.86975 -1.657866,-0.51206 -3.286876,-1.6518 -3.286876,-2.29967 0,-2.24179 10.866381,-6.24186 18.563552,-6.83351 1.57035,-0.12071 2.319306,-0.0823 2.447806,0.12565 0.236741,0.38306 -0.299106,0.60813 -4.210317,1.76846 -5.849794,1.73544 -8.55654,3.51343 -6.561902,4.31034 5.386737,2.15213 28.233677,1.64057 45.692677,-1.02308 3.77279,-0.5756 4.92235,-0.64075 4.92235,-0.27896 0,0.20403 -2.23214,1.5263 -4.7625,2.8212 -1.72338,0.88194 -11.5226,2.45702 -18.72811,3.01028 -5.147507,0.39524 -16.260493,0.53879 -20.827098,0.26904 z m 25.602418,-9.98014 c 1.01677,-1.88416 1.1068,-2.21152 1.10966,-4.0349 0.004,-2.42379 -0.48909,-3.59351 -2.61997,-6.2177 -2.68468,-3.30621 -4.16137,-6.25206 -4.69556,-9.3672 -1.3833,-8.06679 6.29614,-15.89843 20.91502,-21.329546 1.79845,-0.668147 3.49374,-1.178465 3.76732,-1.134036 0.32501,0.05278 -0.80721,0.902565 -3.26644,2.45164 -8.3996,5.290912 -13.11929,9.607392 -14.36483,13.137622 -0.571,1.61839 -0.47784,3.8173 0.23517,5.55053 0.33482,0.81391 1.64128,2.97799 2.90324,4.80905 1.26195,1.83107 2.42271,3.66545 2.57946,4.07641 1.30084,3.41042 0.45661,6.76759 -2.53245,10.07061 -1.3999,1.54693 -4.42877,4.03804 -4.90976,4.03804 -0.12507,0 0.27054,-0.92273 0.87914,-2.05052 z m -11.39168,-5.68854 c -8.262135,-8.13567 -11.396135,-13.2672 -11.112513,-18.19534 0.271981,-4.72588 3.133908,-8.2068 13.570523,-16.505642 10.60008,-8.42883 14.09759,-13.020844 14.98312,-19.671949 0.23873,-1.793065 0.24573,-2.913915 0.0279,-4.466424 -0.15997,-1.139951 -0.23122,-2.132262 -0.15835,-2.205136 0.23744,-0.237436 1.13615,1.149865 1.6923,2.612321 0.8712,2.290906 1.13073,3.96447 0.96736,6.23792 -0.50102,6.971867 -5.24842,14.030849 -14.60189,21.71175 -7.016607,5.76191 -9.916141,9.85836 -10.344123,14.61414 -0.335095,3.72362 0.842552,6.68575 5.235022,13.16764 5.087541,7.50759 5.047351,7.92617 -0.259329,2.70072 z"
         id="path974" />
      <path
         style="fill:#ebeaea;fill-opacity:1;stroke-width:0.264583"
         d="m 91.416021,192.01471 c -7.506504,-0.50525 -15.547016,-1.89589 -16.315483,-2.82183 -0.302045,-0.36394 -0.220382,-0.39139 0.711084,-0.23897 2.881048,0.47142 9.1842,0.97361 15.661734,1.24781 22.627434,0.95783 47.413494,-2.75846 54.520174,-8.17448 1.07893,-0.82225 1.29475,-0.64411 0.71073,0.58662 -2.0816,4.38664 -11.32784,7.47919 -26.97782,9.02317 -4.9874,0.49204 -23.034387,0.7328 -28.310419,0.37768 z m -6.217708,-5.83313 c -10.704382,-0.62368 -23.707499,-2.40187 -25.916276,-3.54407 -1.095397,-0.56646 -1.909334,-1.69232 -1.708558,-2.36335 0.678332,-2.26708 6.497647,-5.21193 12.578886,-6.36553 2.188628,-0.41517 4.883089,-0.53255 5.6316,-0.24531 0.595913,0.22867 0.518099,0.63315 -0.121806,0.63315 -2.223577,0 -8.123862,1.91371 -9.518562,3.08727 -1.540738,1.29645 -0.968471,1.99592 2.518259,3.07803 6.438492,1.99819 18.65391,2.87458 35.189584,2.52468 16.78781,-0.35525 30.49399,-2.17915 34.72169,-4.62047 1.27491,-0.73621 1.65851,-1.30626 1.65851,-2.46462 0,-0.97042 0.24255,-1.01805 1.01222,-0.19878 2.15707,2.2961 -1.74115,4.9753 -10.51134,7.22435 -6.10763,1.56625 -14.07044,2.69016 -23.1724,3.27067 -4.78563,0.30521 -16.998571,0.29646 -22.361807,-0.016 z m 9.128125,-11.64697 c -4.647459,-0.48444 -9.465379,-1.82351 -11.750048,-3.26576 -1.294601,-0.81725 -2.204249,-2.16427 -1.974992,-2.92462 0.339873,-1.12722 2.240544,-2.53176 4.28249,-3.16463 0.578027,-0.17915 0.602072,-0.13868 0.437819,0.73687 -0.149754,0.79826 -0.08138,0.98699 0.49417,1.36411 0.941824,0.6171 4.079706,1.11139 9.392269,1.4795 5.261264,0.36456 10.077164,0.093 15.980674,-0.90117 3.55501,-0.59866 3.55501,-0.59866 6.78385,0.98184 2.631,1.28786 3.16576,1.64343 2.88818,1.92039 -0.54743,0.5462 -5.81145,2.1661 -9.29784,2.86124 -5.72042,1.14058 -11.905562,1.46792 -17.236572,0.91223 z m -1.190625,-13.35728 c -7.022348,-0.59994 -11.103133,-1.41552 -13.738214,-2.74571 -2.578105,-1.30142 -3.091741,-2.68898 -1.541473,-4.1642 0.92342,-0.87872 3.872251,-2.46054 4.586946,-2.46054 0.40137,0 0.401952,0.0502 0.0075,0.65215 -0.864643,1.31961 -0.404223,2.40659 1.292971,3.0525 1.397362,0.53181 8.295592,1.04683 14.096102,1.05242 6.093885,0.006 11.112395,-0.41912 17.077205,-1.44621 3.71422,-0.63956 3.71422,-0.63956 5.60997,0.60448 1.04266,0.68422 2.12255,1.38071 2.39974,1.54775 0.47703,0.28745 0.46738,0.31808 -0.18046,0.57236 -2.02937,0.79653 -11.05848,2.48269 -15.852,2.9603 -3.00611,0.29953 -11.8265,0.53974 -13.758334,0.3747 z m 35.189577,-1.27938 c 0,-0.0611 1.26545,-0.86473 2.81211,-1.78594 7.11944,-4.24041 10.95688,-8.84519 10.94042,-13.12807 -0.01,-2.60305 -1.47028,-4.92175 -3.87228,-6.14864 -1.1415,-0.58305 -1.5934,-0.65186 -4.14203,-0.63063 -2.75406,0.0229 -2.84286,0.006 -2.38125,-0.45143 0.68456,-0.67849 3.31499,-1.29219 5.53859,-1.29219 5.92435,0 10.11484,3.84784 9.85124,9.04573 -0.27893,5.50004 -5.76999,10.43381 -15.22575,13.68047 -2.15437,0.73971 -3.52105,1.01556 -3.52105,0.7107 z M 83.681476,148.0785 c -8.896395,-0.46274 -15.368018,-1.84165 -16.233534,-3.45888 -0.679167,-1.26904 1.92613,-2.89864 7.722177,-4.83021 4.286636,-1.42854 11.880277,-2.76092 11.880277,-2.08451 0,0.13964 -1.279921,0.64212 -2.84427,1.11663 -8.480396,2.57232 -10.246571,4.46552 -5.168413,5.54011 7.330492,1.55122 31.325087,0.64689 44.789767,-1.68806 3.92772,-0.68113 4.01928,-0.50983 0.69583,1.30179 -1.88513,1.02758 -2.78275,1.31871 -6.14798,1.99397 -9.50709,1.90767 -22.906564,2.72227 -34.693854,2.10916 z m 25.399464,-9.69922 c 1.01677,-1.88416 1.1068,-2.21152 1.10966,-4.0349 0.004,-2.42379 -0.48909,-3.59351 -2.61997,-6.2177 -2.68468,-3.30621 -4.16137,-6.25206 -4.69556,-9.3672 -1.3833,-8.06679 6.29614,-15.89843 20.91502,-21.329546 1.79845,-0.668147 3.49374,-1.178465 3.76732,-1.134036 0.32501,0.05278 -0.80721,0.902565 -3.26644,2.45164 -8.3996,5.290912 -13.11929,9.607392 -14.36483,13.137622 -0.571,1.61839 -0.47784,3.8173 0.23517,5.55053 0.33482,0.81391 1.64128,2.97799 2.90324,4.80905 1.26195,1.83107 2.42271,3.66545 2.57946,4.07641 1.30084,3.41042 0.45661,6.76759 -2.53245,10.07061 -1.3999,1.54693 -4.42877,4.03804 -4.90976,4.03804 -0.12507,0 0.27054,-0.92273 0.87914,-2.05052 z m -11.39168,-5.68854 c -8.262135,-8.13567 -11.396135,-13.2672 -11.112513,-18.19534 0.271981,-4.72588 3.133908,-8.2068 13.570523,-16.505642 10.60008,-8.42883 14.09759,-13.020844 14.98312,-19.671949 0.23873,-1.793065 0.24573,-2.913915 0.0279,-4.466424 -0.15997,-1.139951 -0.23122,-2.132262 -0.15835,-2.205136 0.23744,-0.237436 1.13615,1.149865 1.6923,2.612321 0.8712,2.290906 1.13073,3.96447 0.96736,6.23792 -0.50102,6.971867 -5.24842,14.030849 -14.60189,21.71175 -7.016607,5.76191 -9.916141,9.85836 -10.344123,14.61414 -0.335095,3.72362 0.842552,6.68575 5.235022,13.16764 5.087541,7.50759 5.047351,7.92617 -0.259329,2.70072 z"
         id="path972" />
      <path
         style="fill:#ebeaea;fill-opacity:1;stroke-width:0.264583"
         d="m 96.178521,192.1285 c -4.792538,-0.21352 -10.267664,-0.68463 -13.676137,-1.17678 -3.468926,-0.50088 -7.29837,-1.45748 -7.005788,-1.75007 0.07645,-0.0764 1.784598,0.0475 3.795881,0.27543 12.382505,1.40328 30.304413,1.19324 42.947503,-0.50334 10.92638,-1.4662 20.00498,-4.04068 23.49915,-6.6638 1.72969,-1.29851 1.391,0.14409 -0.47099,2.00609 -3.70616,3.70615 -13.40947,6.25569 -28.31983,7.44103 -3.54325,0.28168 -17.273101,0.52722 -20.769789,0.37144 z m -6.35,-5.84037 c -10.079365,-0.34608 -24.80045,-2.00759 -29.06623,-3.28057 -3.861276,-1.15228 -4.08184,-3.06459 -0.612123,-5.30717 3.583942,-2.31642 11.833772,-4.60124 14.683432,-4.06664 1.248794,0.23427 0.780299,0.54551 -1.369115,0.90955 -2.208615,0.37406 -5.748692,1.63767 -7.107774,2.53707 -1.800096,1.19124 -1.271781,2.32588 1.518771,3.2618 10.67471,3.58019 41.944208,3.92349 61.508248,0.67529 7.38104,-1.22547 10.93611,-2.79575 10.93611,-4.8305 0,-1.05779 0.6258,-1.04267 1.22563,0.0296 0.36334,0.64952 0.36381,0.80108 0.005,1.44333 -0.64569,1.15432 -2.43722,2.33774 -5.07577,3.35285 -10.04274,3.86368 -28.14275,5.9107 -46.645749,5.27538 z m 6.35,-11.73344 c -6.709018,-0.46216 -12.046264,-1.98182 -14.386729,-4.09629 -1.814364,-1.63917 -1.327353,-3.18412 1.412275,-4.48017 1.777997,-0.84113 2.391907,-0.89146 2.002684,-0.1642 -0.217374,0.40617 -0.150236,0.65594 0.321421,1.19581 0.72004,0.82419 2.772148,1.29088 7.520881,1.71043 6.322274,0.55856 11.134117,0.34902 18.245587,-0.79454 3.47445,-0.55871 3.47445,-0.55871 6.54844,0.97084 1.69069,0.84125 3.07398,1.62018 3.07398,1.73095 0,0.31809 -6.2117,2.25481 -9.12812,2.84602 -5.02299,1.01825 -10.75779,1.41543 -15.610419,1.08115 z m -5.688541,-13.667 c -6.11301,-0.62659 -10.820604,-1.95805 -12.469765,-3.52686 -0.923978,-0.87896 -1.061079,-1.14466 -0.914662,-1.77259 0.09473,-0.40626 0.555366,-1.0708 1.023642,-1.47676 0.929251,-0.8056 3.353125,-2.04001 4.005746,-2.04001 0.364106,0 0.361386,0.0998 -0.02479,0.90963 -0.402686,0.84444 -0.402268,0.95772 0.0058,1.58056 0.936858,1.42983 6.0042,2.10784 15.782334,2.11168 6.768375,0.003 8.811975,-0.16496 16.307055,-1.33743 4.53311,-0.70913 4.53311,-0.70913 5.82084,0.22794 0.70825,0.51538 1.68836,1.1412 2.17802,1.39069 0.48967,0.24949 0.78732,0.54904 0.66146,0.66567 -0.70784,0.65591 -11.57062,2.68214 -16.94312,3.1604 -2.94506,0.26217 -13.223767,0.33349 -15.432588,0.10708 z m 38.21668,-1.11805 c 0.0814,-0.13164 0.83252,-0.62506 1.66926,-1.09649 4.44975,-2.50708 8.94375,-6.36758 10.46461,-8.98945 1.09402,-1.88601 1.60407,-4.24687 1.26206,-5.84162 -0.38728,-1.80582 -0.83798,-2.59522 -2.19688,-3.8478 -1.96334,-1.80975 -4.58554,-2.46605 -7.44091,-1.86238 -1.56183,0.33019 -1.11129,-0.36813 0.64064,-0.99298 2.17026,-0.77405 6.20309,-0.72171 8.31683,0.10794 2.28051,0.8951 4.61817,3.28663 5.27413,5.39567 1.97258,6.34223 -4.20317,13.03642 -15.26532,16.54681 -2.85373,0.90559 -2.93633,0.92318 -2.72442,0.5803 z M 82.684772,147.944 c -0.582084,-0.0564 -2.427552,-0.23014 -4.101042,-0.38605 -5.461312,-0.50881 -9.906288,-1.62793 -10.815063,-2.72294 -0.212854,-0.25647 -0.289676,-0.69594 -0.190635,-1.09055 0.303639,-1.2098 6.866284,-3.97672 12.283413,-5.17891 2.330556,-0.5172 6.659785,-0.98061 6.659785,-0.71287 0,0.0807 -1.398985,0.58417 -3.108854,1.11875 -6.908017,2.15975 -9.013753,3.90531 -6.062088,5.02521 2.044133,0.77557 3.985712,0.95707 11.867382,1.10935 11.11882,0.21482 20.7493,-0.36697 31.79751,-1.92095 2.60059,-0.36578 4.91648,-0.62882 5.14643,-0.58454 0.23606,0.0455 -0.44024,0.57944 -1.55333,1.22646 -2.12514,1.23528 -3.95665,1.73499 -9.8186,2.67889 -6.73311,1.08417 -10.90883,1.37232 -21.124701,1.45775 -5.457031,0.0456 -10.398124,0.0368 -10.980207,-0.0196 z m 26.396168,-9.56472 c 1.01677,-1.88416 1.1068,-2.21152 1.10966,-4.0349 0.004,-2.42379 -0.48909,-3.59351 -2.61997,-6.2177 -2.68468,-3.30621 -4.16137,-6.25206 -4.69556,-9.3672 -1.3833,-8.06679 6.29614,-15.89843 20.91502,-21.329546 1.79845,-0.668147 3.49374,-1.178465 3.76732,-1.134036 0.32501,0.05278 -0.80721,0.902565 -3.26644,2.45164 -8.3996,5.290912 -13.11929,9.607392 -14.36483,13.137622 -0.571,1.61839 -0.47784,3.8173 0.23517,5.55053 0.33482,0.81391 1.64128,2.97799 2.90324,4.80905 1.26195,1.83107 2.42271,3.66545 2.57946,4.07641 1.30084,3.41042 0.45661,6.76759 -2.53245,10.07061 -1.3999,1.54693 -4.42877,4.03804 -4.90976,4.03804 -0.12507,0 0.27054,-0.92273 0.87914,-2.05052 z m -11.39168,-5.68854 c -8.262135,-8.13567 -11.396135,-13.2672 -11.112513,-18.19534 0.271981,-4.72588 3.133908,-8.2068 13.570523,-16.505642 10.60008,-8.42883 14.09759,-13.020844 14.98312,-19.671949 0.23873,-1.793065 0.24573,-2.913915 0.0279,-4.466424 -0.15997,-1.139951 -0.23122,-2.132262 -0.15835,-2.205136 0.23744,-0.237436 1.13615,1.149865 1.6923,2.612321 0.8712,2.290906 1.13073,3.96447 0.96736,6.23792 -0.50102,6.971867 -5.24842,14.030849 -14.60189,21.71175 -7.016607,5.76191 -9.916141,9.85836 -10.344123,14.61414 -0.335095,3.72362 0.842552,6.68575 5.235022,13.16764 5.087541,7.50759 5.047351,7.92617 -0.259329,2.70072 z"
         id="path970" />
      <path
         style="fill:#ebeaea;fill-opacity:1;stroke-width:0.264583"
         d="m 96.178521,192.1285 c -4.792538,-0.21352 -10.267664,-0.68463 -13.676137,-1.17678 -3.468926,-0.50088 -7.29837,-1.45748 -7.005788,-1.75007 0.07645,-0.0764 1.784598,0.0475 3.795881,0.27543 12.382505,1.40328 30.304413,1.19324 42.947503,-0.50334 10.92638,-1.4662 20.00498,-4.04068 23.49915,-6.6638 1.72969,-1.29851 1.391,0.14409 -0.47099,2.00609 -3.70616,3.70615 -13.40947,6.25569 -28.31983,7.44103 -3.54325,0.28168 -17.273101,0.52722 -20.769789,0.37144 z m -6.35,-5.84037 c -10.079365,-0.34608 -24.80045,-2.00759 -29.06623,-3.28057 -3.861276,-1.15228 -4.08184,-3.06459 -0.612123,-5.30717 3.583942,-2.31642 11.833772,-4.60124 14.683432,-4.06664 1.248794,0.23427 0.780299,0.54551 -1.369115,0.90955 -2.208615,0.37406 -5.748692,1.63767 -7.107774,2.53707 -1.800096,1.19124 -1.271781,2.32588 1.518771,3.2618 10.67471,3.58019 41.944208,3.92349 61.508248,0.67529 7.38104,-1.22547 10.93611,-2.79575 10.93611,-4.8305 0,-1.05779 0.6258,-1.04267 1.22563,0.0296 0.36334,0.64952 0.36381,0.80108 0.005,1.44333 -0.64569,1.15432 -2.43722,2.33774 -5.07577,3.35285 -10.04274,3.86368 -28.14275,5.9107 -46.645749,5.27538 z m 6.35,-11.73344 c -6.709018,-0.46216 -12.046264,-1.98182 -14.386729,-4.09629 -1.814364,-1.63917 -1.327353,-3.18412 1.412275,-4.48017 1.777997,-0.84113 2.391907,-0.89146 2.002684,-0.1642 -0.217374,0.40617 -0.150236,0.65594 0.321421,1.19581 0.72004,0.82419 2.772148,1.29088 7.520881,1.71043 6.322274,0.55856 11.134117,0.34902 18.245587,-0.79454 3.47445,-0.55871 3.47445,-0.55871 6.54844,0.97084 1.69069,0.84125 3.07398,1.62018 3.07398,1.73095 0,0.31809 -6.2117,2.25481 -9.12812,2.84602 -5.02299,1.01825 -10.75779,1.41543 -15.610419,1.08115 z m -5.688541,-13.667 c -6.11301,-0.62659 -10.820604,-1.95805 -12.469765,-3.52686 -0.923978,-0.87896 -1.061079,-1.14466 -0.914662,-1.77259 0.09473,-0.40626 0.555366,-1.0708 1.023642,-1.47676 0.929251,-0.8056 3.353125,-2.04001 4.005746,-2.04001 0.364106,0 0.361386,0.0998 -0.02479,0.90963 -0.402686,0.84444 -0.402268,0.95772 0.0058,1.58056 0.936858,1.42983 6.0042,2.10784 15.782334,2.11168 6.768375,0.003 8.811975,-0.16496 16.307055,-1.33743 4.53311,-0.70913 4.53311,-0.70913 5.82084,0.22794 0.70825,0.51538 1.68836,1.1412 2.17802,1.39069 0.48967,0.24949 0.78732,0.54904 0.66146,0.66567 -0.70784,0.65591 -11.57062,2.68214 -16.94312,3.1604 -2.94506,0.26217 -13.223767,0.33349 -15.432588,0.10708 z m 38.21668,-1.11805 c 0.0814,-0.13164 0.83252,-0.62506 1.66926,-1.09649 4.44975,-2.50708 8.94375,-6.36758 10.46461,-8.98945 1.09402,-1.88601 1.60407,-4.24687 1.26206,-5.84162 -0.38728,-1.80582 -0.83798,-2.59522 -2.19688,-3.8478 -1.96334,-1.80975 -4.58554,-2.46605 -7.44091,-1.86238 -1.56183,0.33019 -1.11129,-0.36813 0.64064,-0.99298 2.17026,-0.77405 6.20309,-0.72171 8.31683,0.10794 2.28051,0.8951 4.61817,3.28663 5.27413,5.39567 1.97258,6.34223 -4.20317,13.03642 -15.26532,16.54681 -2.85373,0.90559 -2.93633,0.92318 -2.72442,0.5803 z M 82.684772,147.944 c -0.582084,-0.0564 -2.427552,-0.23014 -4.101042,-0.38605 -5.461312,-0.50881 -9.906288,-1.62793 -10.815063,-2.72294 -0.212854,-0.25647 -0.289676,-0.69594 -0.190635,-1.09055 0.303639,-1.2098 6.866284,-3.97672 12.283413,-5.17891 2.330556,-0.5172 6.659785,-0.98061 6.659785,-0.71287 0,0.0807 -1.398985,0.58417 -3.108854,1.11875 -6.908017,2.15975 -9.013753,3.90531 -6.062088,5.02521 2.044133,0.77557 3.985712,0.95707 11.867382,1.10935 11.11882,0.21482 20.7493,-0.36697 31.79751,-1.92095 2.60059,-0.36578 4.91648,-0.62882 5.14643,-0.58454 0.23606,0.0455 -0.44024,0.57944 -1.55333,1.22646 -2.12514,1.23528 -3.95665,1.73499 -9.8186,2.67889 -6.73311,1.08417 -10.90883,1.37232 -21.124701,1.45775 -5.457031,0.0456 -10.398124,0.0368 -10.980207,-0.0196 z m 26.326038,-8.38604 c 0,-0.0674 0.32733,-0.82154 0.72739,-1.67587 0.60538,-1.29277 0.72667,-1.90838 0.72303,-3.67 -0.005,-2.53369 -0.40922,-3.43724 -2.95747,-6.61458 -3.33927,-4.16363 -4.94238,-8.71645 -4.34431,-12.33785 0.92747,-5.61605 5.44251,-10.34126 13.9375,-14.58625 2.94811,-1.473194 7.09152,-3.194705 8.47673,-3.521931 0.43625,-0.103053 -1.0057,1.003564 -3.34183,2.564674 -6.97265,4.659457 -10.60562,8.009617 -12.20183,11.251977 -0.75873,1.54121 -0.81347,1.83266 -0.69989,3.72671 0.14851,2.47654 0.63556,3.52487 3.79362,8.16525 2.46256,3.61843 2.88082,4.74452 2.70179,7.27417 -0.15569,2.19998 -1.23891,4.32512 -3.25941,6.39453 -1.4144,1.44865 -3.55532,3.27274 -3.55532,3.02917 z m -12.229682,-8.15615 c -6.996618,-7.03557 -9.995315,-11.98929 -9.995315,-16.51187 0,-4.58573 2.939698,-8.21542 13.487707,-16.653461 9.93151,-7.944871 12.77467,-11.271628 14.5994,-17.082667 0.50929,-1.62189 0.62018,-2.554606 0.62018,-5.216225 0,-1.782646 0.0364,-3.241162 0.0808,-3.241145 0.31931,1.16e-4 1.42252,3.174579 1.68096,4.836923 1.15183,7.40887 -3.56184,15.43403 -14.32945,24.396325 -7.395272,6.15536 -10.132209,10.08372 -10.509135,15.08389 -0.278804,3.6985 0.907338,6.6167 5.404797,13.2971 1.690412,2.51089 2.999188,4.63954 2.908388,4.73034 -0.0908,0.0908 -1.867538,-1.54685 -3.948322,-3.63921 z"
         id="path968" />
      <path
         style="fill:#ebeaea;fill-opacity:1;stroke-width:0.264583"
         d="m 94.591021,191.86233 c -6.587963,-0.34354 -13.368284,-1.11979 -15.927821,-1.82351 -1.734539,-0.4769 -0.955254,-0.46947 4.430565,0.0423 5.834586,0.55437 23.326785,0.63247 29.224335,0.13049 15.53198,-1.32204 27.74454,-3.99951 32.76495,-7.18336 0.68881,-0.43683 1.31451,-0.79424 1.39045,-0.79424 0.44029,0 -1.01926,1.80664 -2.14081,2.64991 -4.24918,3.19488 -12.51171,5.31625 -25.26771,6.48736 -4.14038,0.38012 -20.360469,0.70559 -24.473959,0.49109 z m -8.863541,-5.96305 c -5.06617,-0.27872 -13.463889,-1.11767 -18.388541,-1.83705 -7.161808,-1.04616 -9.19039,-1.77861 -9.344656,-3.374 -0.116527,-1.2051 1.173947,-2.37223 4.277417,-3.86857 3.661159,-1.76522 9.858137,-3.33096 11.836849,-2.99071 0.777373,0.13367 0.54034,0.2287 -2.139402,0.85773 -2.08561,0.48956 -5.596244,1.97036 -6.40371,2.7011 -0.57876,0.52377 -0.616341,1.4925 -0.07876,2.03008 1.125241,1.12525 6.985801,2.52949 13.361634,3.20158 19.245183,2.02866 51.797089,0.063 59.029779,-3.56459 1.67871,-0.84196 2.61814,-1.80761 2.61814,-2.69122 0,-0.92227 0.4397,-0.96551 0.84189,-0.0828 1.8338,4.02477 -14.55016,8.5626 -34.84085,9.6498 -5.77911,0.30965 -14.819734,0.296 -20.769792,-0.0314 z m 9.271002,-11.63311 c -9.132011,-0.81036 -15.282293,-3.75652 -13.764053,-6.59338 0.28021,-0.52358 2.070574,-1.65735 3.103988,-1.96564 0.525968,-0.15691 0.595313,-0.0837 0.595313,0.62861 0,1.1794 1.341665,1.76584 5.201401,2.27354 7.069867,0.92995 13.289839,0.80168 21.015649,-0.43338 3.59517,-0.57473 3.59517,-0.57473 6.60594,0.9103 3.01076,1.48503 3.01076,1.48503 2.00768,1.90414 -1.77705,0.7425 -7.1093,2.18008 -9.69525,2.61386 -5.34189,0.89605 -10.084868,1.10438 -15.070668,0.66195 z M 92.738938,160.7861 c -9.058357,-0.53096 -15.478124,-2.58563 -15.478124,-4.95381 0,-0.37759 0.351062,-0.96834 0.859895,-1.44699 0.854128,-0.80347 3.559694,-2.21577 3.79466,-1.9808 0.06751,0.0675 0.01016,0.41889 -0.127458,0.78084 -0.34825,0.91597 0.152389,1.82126 1.324999,2.39598 2.533782,1.24186 17.1638,1.7693 24.57499,0.88597 2.11005,-0.2515 5.41403,-0.72723 7.34218,-1.05718 3.50572,-0.59993 3.50572,-0.59993 5.02708,0.40222 2.85243,1.87893 2.74182,1.71328 1.38907,2.08034 -2.4876,0.67498 -7.41164,1.63776 -10.89365,2.13 -3.21436,0.45441 -11.957651,1.09186 -13.712601,0.99976 -0.363802,-0.0191 -2.20927,-0.12544 -4.101041,-0.23633 z m 37.328752,-1.53784 c 0.13315,-0.11714 1.49224,-1.01985 3.0202,-2.00602 3.47915,-2.24548 7.18843,-5.90604 8.32281,-8.21348 0.99248,-2.01883 1.22959,-4.84767 0.55448,-6.61541 -0.5968,-1.56272 -2.25807,-3.21249 -4.07032,-4.04216 -1.22078,-0.5589 -1.87945,-0.68145 -3.61299,-0.67223 -2.12002,0.0113 -2.12002,0.0113 -1.06168,-0.36859 1.56009,-0.55996 4.83802,-0.73283 6.51142,-0.3434 3.13408,0.72938 5.86809,3.00143 6.72838,5.59152 1.62292,4.88617 -1.93068,10.35755 -9.06264,13.95346 -2.7595,1.39133 -8.05365,3.3533 -7.32966,2.71631 z M 86.388938,147.80282 c -13.547597,-0.37312 -21.050267,-2.39389 -17.808354,-4.7965 1.887574,-1.3989 7.694474,-3.47286 12.420035,-4.43587 3.532339,-0.71984 4.788673,-0.59482 2.180365,0.21697 -2.569204,0.79962 -5.512045,2.0333 -6.459383,2.70787 -1.082069,0.7705 -1.088499,1.93831 -0.01373,2.49409 1.566873,0.81026 5.315918,1.2433 12.062316,1.39328 10.01785,0.2227 21.467293,-0.4722 31.838393,-1.93235 2.66799,-0.37563 4.90748,-0.62637 4.97665,-0.5572 0.34748,0.34748 -3.23406,1.87693 -5.7265,2.44543 -8.59996,1.96156 -20.339509,2.82591 -33.469792,2.46428 z m 22.621872,-8.24486 c 0,-0.0674 0.32733,-0.82154 0.72739,-1.67587 0.60538,-1.29277 0.72667,-1.90838 0.72303,-3.67 -0.005,-2.53369 -0.40922,-3.43724 -2.95747,-6.61458 -3.33927,-4.16363 -4.94238,-8.71645 -4.34431,-12.33785 0.92747,-5.61605 5.44251,-10.34126 13.9375,-14.58625 2.94811,-1.473194 7.09152,-3.194705 8.47673,-3.521931 0.43625,-0.103053 -1.0057,1.003564 -3.34183,2.564674 -6.97265,4.659457 -10.60562,8.009617 -12.20183,11.251977 -0.75873,1.54121 -0.81347,1.83266 -0.69989,3.72671 0.14851,2.47654 0.63556,3.52487 3.79362,8.16525 2.46256,3.61843 2.88082,4.74452 2.70179,7.27417 -0.15569,2.19998 -1.23891,4.32512 -3.25941,6.39453 -1.4144,1.44865 -3.55532,3.27274 -3.55532,3.02917 z m -12.229682,-8.15615 c -6.996618,-7.03557 -9.995315,-11.98929 -9.995315,-16.51187 0,-4.58573 2.939698,-8.21542 13.487707,-16.653461 9.93151,-7.944871 12.77467,-11.271628 14.5994,-17.082667 0.50929,-1.62189 0.62018,-2.554606 0.62018,-5.216225 0,-1.782646 0.0364,-3.241162 0.0808,-3.241145 0.31931,1.16e-4 1.42252,3.174579 1.68096,4.836923 1.15183,7.40887 -3.56184,15.43403 -14.32945,24.396325 -7.395272,6.15536 -10.132209,10.08372 -10.509135,15.08389 -0.278804,3.6985 0.907338,6.6167 5.404797,13.2971 1.690412,2.51089 2.999188,4.63954 2.908388,4.73034 -0.0908,0.0908 -1.867538,-1.54685 -3.948322,-3.63921 z"
         id="path966" />
      <path
         style="fill:#ebeaea;fill-opacity:1;stroke-width:0.264583"
         d="m 94.591021,191.86233 c -6.587963,-0.34354 -13.368284,-1.11979 -15.927821,-1.82351 -1.734539,-0.4769 -0.955254,-0.46947 4.430565,0.0423 5.834586,0.55437 23.326785,0.63247 29.224335,0.13049 15.53198,-1.32204 27.74454,-3.99951 32.76495,-7.18336 0.68881,-0.43683 1.31451,-0.79424 1.39045,-0.79424 0.44029,0 -1.01926,1.80664 -2.14081,2.64991 -4.24918,3.19488 -12.51171,5.31625 -25.26771,6.48736 -4.14038,0.38012 -20.360469,0.70559 -24.473959,0.49109 z m -8.863541,-5.96305 c -5.06617,-0.27872 -13.463889,-1.11767 -18.388541,-1.83705 -7.161808,-1.04616 -9.19039,-1.77861 -9.344656,-3.374 -0.116527,-1.2051 1.173947,-2.37223 4.277417,-3.86857 3.661159,-1.76522 9.858137,-3.33096 11.836849,-2.99071 0.777373,0.13367 0.54034,0.2287 -2.139402,0.85773 -2.08561,0.48956 -5.596244,1.97036 -6.40371,2.7011 -0.57876,0.52377 -0.616341,1.4925 -0.07876,2.03008 1.125241,1.12525 6.985801,2.52949 13.361634,3.20158 19.245183,2.02866 51.797089,0.063 59.029779,-3.56459 1.67871,-0.84196 2.61814,-1.80761 2.61814,-2.69122 0,-0.92227 0.4397,-0.96551 0.84189,-0.0828 1.8338,4.02477 -14.55016,8.5626 -34.84085,9.6498 -5.77911,0.30965 -14.819734,0.296 -20.769792,-0.0314 z m 9.271002,-11.63311 c -9.132011,-0.81036 -15.282293,-3.75652 -13.764053,-6.59338 0.28021,-0.52358 2.070574,-1.65735 3.103988,-1.96564 0.525968,-0.15691 0.595313,-0.0837 0.595313,0.62861 0,1.1794 1.341665,1.76584 5.201401,2.27354 7.069867,0.92995 13.289839,0.80168 21.015649,-0.43338 3.59517,-0.57473 3.59517,-0.57473 6.60594,0.9103 3.01076,1.48503 3.01076,1.48503 2.00768,1.90414 -1.77705,0.7425 -7.1093,2.18008 -9.69525,2.61386 -5.34189,0.89605 -10.084868,1.10438 -15.070668,0.66195 z M 92.738938,160.7861 c -9.058357,-0.53096 -15.478124,-2.58563 -15.478124,-4.95381 0,-0.37759 0.351062,-0.96834 0.859895,-1.44699 0.854128,-0.80347 3.559694,-2.21577 3.79466,-1.9808 0.06751,0.0675 0.01016,0.41889 -0.127458,0.78084 -0.34825,0.91597 0.152389,1.82126 1.324999,2.39598 2.533782,1.24186 17.1638,1.7693 24.57499,0.88597 2.11005,-0.2515 5.41403,-0.72723 7.34218,-1.05718 3.50572,-0.59993 3.50572,-0.59993 5.02708,0.40222 2.85243,1.87893 2.74182,1.71328 1.38907,2.08034 -2.4876,0.67498 -7.41164,1.63776 -10.89365,2.13 -3.21436,0.45441 -11.957651,1.09186 -13.712601,0.99976 -0.363802,-0.0191 -2.20927,-0.12544 -4.101041,-0.23633 z m 37.328752,-1.53784 c 0.13315,-0.11714 1.49224,-1.01985 3.0202,-2.00602 3.47915,-2.24548 7.18843,-5.90604 8.32281,-8.21348 0.99248,-2.01883 1.22959,-4.84767 0.55448,-6.61541 -0.5968,-1.56272 -2.25807,-3.21249 -4.07032,-4.04216 -1.22078,-0.5589 -1.87945,-0.68145 -3.61299,-0.67223 -2.12002,0.0113 -2.12002,0.0113 -1.06168,-0.36859 1.56009,-0.55996 4.83802,-0.73283 6.51142,-0.3434 3.13408,0.72938 5.86809,3.00143 6.72838,5.59152 1.62292,4.88617 -1.93068,10.35755 -9.06264,13.95346 -2.7595,1.39133 -8.05365,3.3533 -7.32966,2.71631 z M 86.388938,147.80282 c -13.547597,-0.37312 -21.050267,-2.39389 -17.808354,-4.7965 1.887574,-1.3989 7.694474,-3.47286 12.420035,-4.43587 3.532339,-0.71984 4.788673,-0.59482 2.180365,0.21697 -2.569204,0.79962 -5.512045,2.0333 -6.459383,2.70787 -1.082069,0.7705 -1.088499,1.93831 -0.01373,2.49409 1.566873,0.81026 5.315918,1.2433 12.062316,1.39328 10.01785,0.2227 21.467293,-0.4722 31.838393,-1.93235 2.66799,-0.37563 4.90748,-0.62637 4.97665,-0.5572 0.34748,0.34748 -3.23406,1.87693 -5.7265,2.44543 -8.59996,1.96156 -20.339509,2.82591 -33.469792,2.46428 z"
         id="path964" />
    </g>
  </g>
</svg>
