<?xml version="1.0" encoding="UTF-8" standalone="no"?>
<!-- Created with Inkscape (http://www.inkscape.org/) -->

<svg
   width="150mm"
   height="110mm"
   viewBox="0 0 150 110"
   version="1.1"
   id="svg5"
   inkscape:version="1.1.1 (c3084ef, 2021-09-22)"
   sodipodi:docname="jboss_logo.svg"
   xmlns:inkscape="http://www.inkscape.org/namespaces/inkscape"
   xmlns:sodipodi="http://sodipodi.sourceforge.net/DTD/sodipodi-0.dtd"
   xmlns="http://www.w3.org/2000/svg"
   xmlns:svg="http://www.w3.org/2000/svg">
  <sodipodi:namedview
     id="namedview7"
     pagecolor="#ffffff"
     bordercolor="#666666"
     borderopacity="1.0"
     inkscape:pageshadow="2"
     inkscape:pageopacity="0.0"
     inkscape:pagecheckerboard="0"
     inkscape:document-units="mm"
     showgrid="false"
     inkscape:zoom="0.51936728"
     inkscape:cx="322.5078"
     inkscape:cy="407.22627"
     inkscape:window-width="1312"
     inkscape:window-height="779"
     inkscape:window-x="0"
     inkscape:window-y="25"
     inkscape:window-maximized="0"
     inkscape:current-layer="layer1" />
  <defs
     id="defs2" />
  <g
     inkscape:label="Layer 1"
     inkscape:groupmode="layer"
     id="layer1">
    <g
       id="g890"
       transform="matrix(0.50306277,0,0,0.47209302,39.777747,27.822395)"
       style="fill:#ebeaea;fill-opacity:1">
      <path
         style="fill:#ebeaea;fill-opacity:1;stroke-width:0.264583"
         d="m 29.780494,139.1643 c -12.569068,-2.72578 -17.857067,-18.09427 -9.622351,-27.96539 10.341986,-12.397157 30.41443,-5.00235 30.342537,11.17837 -0.04853,10.92293 -10.123132,19.08514 -20.720186,16.78702 z m 52.988535,-2.90879 c -0.08638,-0.2251 0.226502,-1.40137 0.695291,-2.61395 0.852344,-2.20467 0.852344,-2.20467 -1.437648,-8.34221 -2.537947,-6.80209 -2.567556,-6.98606 -1.143505,-7.10456 1.717151,-0.14289 1.913948,0.12649 3.394807,4.64696 0.75056,2.29116 1.429652,4.27221 1.509099,4.40235 0.07944,0.13013 0.834464,-1.76369 1.677823,-4.2085 1.669651,-4.84014 1.730518,-4.92973 3.280717,-4.82839 1.44885,0.0947 -3.439903,16.59609 -5.370319,18.12684 -0.606549,0.48098 -2.412444,0.42655 -2.606265,-0.0785 z m -96.36651,-4.50606 c -11.379991,-3.06078 -15.195343,-17.15395 -6.913832,-25.53836 8.327204,-8.430664 22.1986329,-4.75349 25.5516576,6.77348 3.1624877,10.87196 -7.6202351,21.72819 -18.6378256,18.76488 z m 83.988551,-0.0268 c -0.758208,-0.32449 -1.070665,-0.36079 -1.146529,-0.13321 -0.165473,0.49643 -2.614298,0.40434 -2.810002,-0.10566 -0.264271,-0.68868 -0.182632,-16.24386 0.08791,-16.74937 1.297683,-2.42474 2.917171,-1.43601 2.922441,1.78421 0.0037,2.25624 0.0451,2.45811 0.467072,2.27719 4.391422,-1.88276 7.260889,0.0963 7.878169,5.43357 0.613844,5.30753 -3.283582,9.25458 -7.399059,7.49327 z m 3.423698,-3.15287 c 1.602769,-1.72942 1.013465,-6.82532 -0.872773,-7.54714 -3.161245,-1.20975 -5.472076,4.72022 -2.858056,7.33424 1.180087,1.18008 2.751373,1.26975 3.730829,0.2129 z m 47.467972,2.9867 c -4.22939,-2.21388 -4.49122,-10.35123 -0.41004,-12.74296 4.02284,-2.35754 8.44734,0.18162 8.83998,5.07314 0.19774,2.46335 0.20495,2.45938 -4.46906,2.45938 -4.3156,0 -4.3521,0.0161 -3.55195,1.56337 0.69945,1.35261 2.47634,1.66245 4.56751,0.79646 1.47342,-0.61017 2.86319,1.18393 1.71913,2.21928 -1.49518,1.35313 -4.73336,1.65846 -6.69557,0.63133 z m 5.11088,-8.64029 c -0.24526,-2.18899 -3.68945,-2.73732 -4.71666,-0.75092 -0.71183,1.37654 -0.41506,1.56426 2.33782,1.47878 2.43124,-0.0755 2.45125,-0.0816 2.37884,-0.72786 z m 8.28107,8.64595 c -5.89099,-3.33649 -2.01447,-15.68373 4.18117,-13.3176 0.61722,0.23572 1.20253,0.42859 1.30069,0.42859 0.0982,0 0.21323,-0.91847 0.25574,-2.04105 0.0831,-2.19607 1.00686,-3.40189 2.44799,-3.19559 1.42802,0.20443 0.70225,18.32314 -0.73763,18.41499 -0.70253,0.0448 -1.43012,-0.0453 -1.61686,-0.2003 -0.24373,-0.20228 -0.60882,-0.16928 -1.29386,0.11695 -1.40416,0.5867 -3.28871,0.50114 -4.53724,-0.20599 z m 4.65126,-2.91085 c 1.38212,-0.93036 1.53045,-5.80696 0.21042,-6.9177 -2.26477,-1.90568 -4.33848,-0.41893 -4.33848,3.1105 0,3.95653 1.64813,5.47654 4.12806,3.8072 z m 33.7948,2.97933 c -2.45291,-1.29574 -3.14871,-4.75791 -1.37892,-6.86119 1.1476,-1.36385 2.0761,-1.7043 4.73106,-1.73472 2.36598,-0.0271 2.38069,-0.0314 2.29351,-0.67308 -0.19153,-1.40983 -1.8694,-1.89968 -4.12461,-1.20419 -1.48348,0.45748 -1.59155,0.4238 -2.15867,-0.67289 -1.51917,-2.93775 6.62519,-3.5509 8.69134,-0.65433 2.19504,3.07728 0.31527,13.77525 -2.07231,11.79374 -0.28978,-0.2405 -0.61528,-0.21427 -1.441,0.11612 -1.42424,0.56987 -3.34191,0.52363 -4.5404,-0.10946 z m 4.54806,-2.77377 c 1.44002,-0.74467 1.72682,-2.53317 0.46062,-2.87245 -3.14765,-0.84344 -5.59616,1.07317 -3.58861,2.80904 0.65797,0.56893 2.09412,0.59804 3.12799,0.0634 z m 9.76888,2.92069 c -1.19741,-0.65127 -1.41655,-1.52225 -1.56582,-6.22327 -0.13856,-4.36365 -0.13856,-4.36365 -0.93231,-4.49911 -1.46648,-0.25026 -1.19503,-2.9112 0.29698,-2.9112 0.59771,0 0.62906,-0.0855 0.62906,-1.71648 0,-1.71647 0,-1.71647 1.07785,-2.39688 1.72716,-1.09032 1.95218,-0.89317 2.04112,1.78833 0.0763,2.29922 0.0763,2.29922 1.5875,2.37827 2.33725,0.12226 2.38673,2.64529 0.056,2.85718 -2.60148,0.23649 -2.3581,8.33237 0.24509,8.15312 1.19056,-0.082 1.21145,-0.0695 1.2927,0.77216 0.1781,1.84503 -2.65845,2.92362 -4.7282,1.79788 z m -85.80871,-0.28109 c -0.21296,-0.55497 -0.21751,-16.61316 -0.005,-17.16731 0.25748,-0.67099 9.33735,-0.60254 10.8196,0.0816 3.98526,1.83931 4.04273,7.9288 0.0941,9.97072 -0.7534,0.38959 -0.7534,0.38959 0.83302,3.55429 2.02414,4.0379 2.02457,4.0127 -0.0672,3.91306 -1.65364,-0.0788 -1.65364,-0.0788 -3.37343,-3.38606 -1.71979,-3.30729 -1.71979,-3.30729 -3.43959,-3.30729 -1.71979,0 -1.71979,0 -1.85208,3.30729 -0.12749,3.18727 -2.16317,5.23933 -3.00954,3.03374 z m 9.68604,-10.16941 c 1.48469,-1.16786 1.02298,-3.71415 -0.76902,-4.24108 -4.28911,-1.26121 -7.13906,0.9065 -5.79539,4.40805 0.24085,0.62766 5.73176,0.488 6.56441,-0.16697 z m 42.66158,10.2563 c -1.06081,-2.76443 0.1707,-17.54042 1.46192,-17.54042 1.45521,0 1.45521,0 1.52926,3.37343 0.11109,5.06113 7.46657,5.40826 7.46657,0.35237 0,-3.88024 -0.01,-3.85809 1.71979,-3.85809 1.82509,0 1.71979,-0.55079 1.71979,8.99583 0,9.55891 0.10911,8.99583 -1.74305,8.99583 -1.72233,0 -1.67356,0.12436 -1.76406,-4.49791 -0.11028,-5.63222 -7.14583,-5.12506 -7.3408,0.52916 -0.1236,3.5843 -2.14579,6.00463 -3.04942,3.6498 z M -45.572174,103.18466 c -10.379791,-2.79567 -13.913595,-15.54511 -6.422631,-23.171894 8.723542,-8.881714 23.526937,-2.736398 23.544775,9.774113 0.01265,8.87869 -8.671464,15.673871 -17.122144,13.397781 z M 7.796771,83.892547 C -2.1872224,82.255724 -6.8649603,76.292986 -7.2127735,64.759806 c -0.129794,-4.303935 -0.129794,-4.303935 6.84668868,-4.233334 6.97648532,0.0706 6.97648532,0.0706 7.12590352,3.642474 0.1536726,3.673632 0.4089982,4.637511 1.4868233,5.61293 1.868186,1.690685 5.766911,1.703215 7.287104,0.02341 1.383313,-1.52854 1.371327,-1.348584 1.520912,-22.834262 0.139075,-19.976043 0.139075,-19.976043 21.570324,-20.053034 25.930856,-0.09315 27.463945,0.02733 32.274845,2.536571 8.103372,4.226508 9.230354,15.414639 2.143958,21.284214 -2.004338,1.660174 -1.984306,1.528541 -0.352695,2.317666 10.028949,4.850477 9.572365,21.767539 -0.732864,27.153519 -4.937281,2.580447 -6.819164,2.7807 -25.263452,2.688312 C 31.481233,82.822072 31.481233,82.822072 31.41296,78.191859 31.32878,72.483272 31.258541,72.266226 30.264872,74.644373 27.275051,81.7999 18.090909,85.580214 7.796771,83.892542 Z M 60.921704,70.38013 C 65.777541,68.938101 66.52364,61.958104 62.065075,59.683512 60.035498,58.6481 47.377176,58.036127 46.483107,58.930196 c -0.343469,0.343469 -0.476377,11.341677 -0.14111,11.676944 0.390596,0.390599 13.170031,0.191619 14.579707,-0.22701 z M 60.055848,48.029362 c 2.021734,-1.011158 2.579346,-2.03795 2.468864,-4.5462 -0.186487,-4.23381 -1.278655,-4.748337 -9.875975,-4.652627 -6.03596,0.0672 -8.566914,3.916106 -6.358879,9.670159 0.283337,0.738362 12.160384,0.331705 13.76599,-0.471332 z m 33.154629,35.44453 C 85.439744,81.563063 79.427419,75.687357 80.57929,71.129727 c 1.188916,-4.704194 0.711271,-9.965201 -1.227317,-13.518325 -1.21167,-2.220799 -1.100418,-2.863366 1.178015,-6.803915 7.557822,-13.071248 29.600352,-12.878758 36.602082,0.319633 0.75642,1.425866 0.86623,1.418151 1.24535,-0.08748 3.07428,-12.209087 30.18001,-14.015932 36.04242,-2.402559 0.81915,1.622721 0.81915,1.622721 1.48601,0.309062 6.29069,-12.392007 33.35625,-10.182604 36.06568,2.944096 0.54365,2.633885 0.89663,2.489121 -6.06932,2.489121 -6.49689,0 -6.38661,0.02306 -6.38661,-1.33535 0,-2.892248 -9.15631,-4.241477 -10.59105,-1.560645 -1.57593,2.944657 1.14319,4.357069 12.62139,6.556024 11.03514,2.114073 15.46986,9.486061 10.8832,18.091513 -5.63498,10.572308 -30.58061,10.671308 -35.96482,0.142729 -0.62567,-1.223478 -0.57233,-1.228627 -1.37011,0.132292 -6.353,10.837432 -30.79508,10.139834 -36.20318,-1.033269 -1.2697,-2.623207 -1.0068,-2.541487 -2.16091,-0.671674 -4.41631,7.154987 -14.62055,10.961203 -23.519643,8.772909 z m 47.817853,-9.267789 c 2.41062,-1.240546 2.88577,-3.62622 1.04426,-5.243086 -1.06396,-0.934175 -1.98705,-1.233342 -7.83833,-2.540344 -7.71156,-1.722536 -10.01282,-2.565536 -12.61192,-4.620004 -1.3734,-1.085612 -1.3734,-1.085612 -1.37494,0.70648 -0.001,1.590349 -0.11962,2.565498 -0.70667,5.826985 -0.15478,0.859896 -0.15478,0.859896 5.11859,0.859896 5.5061,0 5.90837,0.07898 5.90837,1.160007 0,3.692713 6.27707,6.003007 10.46064,3.850066 z m 37.0732,0.07178 c 1.53873,-0.796575 2.20782,-1.735285 2.20782,-3.097482 0,-2.537116 -1.30612,-3.150701 -11.24479,-5.282534 -9.02427,-1.935694 -12.44792,-4.298145 -13.81678,-9.534133 -0.48419,-1.852084 -0.48419,-1.852084 -6.166,-1.984375 -5.6818,-0.132292 -5.6818,-0.132292 -5.93417,-1.154232 -1.01827,-4.123373 -11.25701,-4.493019 -11.25701,-0.406411 0,1.927781 2.76184,3.320871 8.86354,4.470821 8.59568,1.619978 10.31041,2.256595 12.82849,4.762739 1.58079,1.573294 2.43715,3.078834 2.93467,5.159375 0.174,0.727604 0.3559,1.471745 0.40423,1.653646 0.0663,0.249457 1.28743,0.330729 4.96934,0.330729 5.68187,0 5.66946,-0.0029 5.8884,1.366287 0.5965,3.730342 6.31649,5.78929 10.32226,3.71557 z m -75.75565,-1.734978 c 5.68546,-3.331904 5.48989,-16.942182 -0.28865,-20.087258 -6.916891,-3.764642 -13.077644,4.788668 -10.521698,14.607842 1.447268,5.559979 6.394233,8.067432 10.810348,5.479416 z M -50.734872,63.655162 c -7.866669,-2.514774 -11.129172,-11.882895 -6.534493,-18.763483 6.290509,-9.420114 20.812747,-5.981706 22.47341,5.320996 1.278347,8.700614 -7.531073,16.13026 -15.938917,13.442487 z M 194.59514,40.373818 c -5.30073,-1.612408 -6.81214,-7.910788 -2.78838,-11.619765 4.24714,-3.914881 11.25676,-0.808958 11.25676,4.987809 0,4.232357 -4.57595,7.81598 -8.46838,6.631956 z m 3.99733,-2.025558 c 1.80491,-0.907356 3.07809,-3.39938 2.72715,-5.337924 -1.0781,-5.955337 -9.60741,-5.692187 -10.10531,0.311772 -0.33371,4.024175 3.78717,6.831405 7.37816,5.026152 z m -4.47187,-1.219731 c -0.21045,-0.21045 -0.3175,-1.352315 -0.3175,-3.386667 0,-3.472064 0.10731,-3.704895 1.70656,-3.702691 3.23772,0.0045 4.79446,2.077996 2.88717,3.845619 -0.69794,0.646829 -0.69794,0.646829 0,1.701485 0.78,1.178666 0.84992,1.496578 0.36721,1.669661 -0.56748,0.203475 -1.17301,-0.281935 -1.9007,-1.523659 -0.88907,-1.517076 -1.47274,-1.579388 -1.47274,-0.157231 0,1.33083 -0.67139,2.152089 -1.27,1.553483 z m 3.05594,-4.176806 c 0.64558,-0.0071 0.34836,-1.068337 -0.37636,-1.343874 -0.93193,-0.35432 -1.40958,-0.142055 -1.40958,0.626404 0,0.805997 0.25304,1.044117 0.91931,0.865084 0.29475,-0.0792 0.68473,-0.145627 0.86663,-0.147614 z M -31.281625,27.816666 c -8.780249,-2.861376 -9.79614,-15.310293 -1.577525,-19.3312866 9.163002,-4.4830394 18.645377,5.2233246 13.878848,14.2066876 -2.259396,4.258234 -7.833857,6.580493 -12.301323,5.124599 z M -0.86312046,11.93989 C -11.171379,8.5760216 -8.9475009,-6.6070983 1.853465,-6.6070983 c 12.203617,0 12.589459,18.3222023 0.3965469,18.8306563 -1.2037801,0.0502 -2.4333649,-0.06184 -3.11313236,-0.283668 z M 31.878108,5.7290334 c -9.01627,-2.968505 -7.405579,-15.7536124 1.984375,-15.7512774 8.483681,0.0021 11.03727,11.2264964 3.439583,15.118806 -1.411785,0.7232595 -4.170979,1.045001 -5.423958,0.6324714 z"
         id="path904" />
      <path
         style="fill:#ebeaea;fill-opacity:1;stroke-width:0.264583"
         d="m 29.940074,138.88008 c -13.13024,-2.81694 -17.973084,-19.0677 -8.511634,-28.56186 10.670658,-10.707565 28.760715,-3.20893 28.772703,11.92677 0.0085,10.77328 -9.851112,18.86842 -20.261069,16.63509 z m 52.894204,-2.70582 c -0.0768,-0.12427 0.213828,-1.14389 0.645845,-2.26581 1.023282,-2.65742 1.117666,-2.07734 -1.463468,-8.99442 -2.462932,-6.60032 -2.451116,-6.5055 -0.810541,-6.5055 1.474134,0 1.425882,-0.0776 3.085838,4.96094 1.722591,5.22862 1.450708,5.25028 3.320783,-0.26458 1.566238,-4.61885 2.719731,-5.87908 4.109273,-4.48954 0.207824,0.20783 -5.300914,15.70001 -6.140395,17.26859 -0.289705,0.54132 -2.451052,0.76971 -2.747335,0.29032 z m -11.236679,-4.29471 c -0.491725,-0.10394 -1.168768,-0.33601 -1.50454,-0.51571 -0.511191,-0.27358 -0.683138,-0.25409 -1.057092,0.11987 -0.294704,0.2947 -0.772853,0.41933 -1.405874,0.36644 -1.445324,-0.12077 -1.667433,-16.80247 -0.235342,-17.67562 1.653638,-1.00823 1.789605,-0.85072 1.789605,2.07324 0,3.06545 -0.0076,3.05249 1.410586,2.40858 3.984244,-1.80899 6.923788,0.95023 6.923788,6.49906 0,4.756 -2.390309,7.47048 -5.921131,6.72414 z m 2.258983,-3.19174 c 3.000238,-2.81858 0.105995,-9.28796 -3.354607,-7.49841 -1.504314,0.77791 -2.025925,5.98647 -0.722172,7.21129 1.305325,1.22628 2.953523,1.34236 4.076779,0.28712 z m -87.150216,2.8343 c -8.260574,-2.00164 -13.443645,-11.31481 -10.69768,-19.22206 5.599406,-16.123999 29.1213894,-12.325921 29.1433657,4.70576 0.012409,9.61619 -9.0936282,16.78242 -18.4456857,14.5163 z m 134.997774,-0.10314 c -3.09265,-1.47632 -4.39393,-6.2237 -2.71261,-9.89621 2.70197,-5.90188 10.94362,-3.31033 10.4674,3.29143 -0.0819,1.13497 -0.0819,1.13497 -4.3152,1.26726 -2.32834,0.0728 -4.20357,0.22159 -4.16719,0.33073 0.0364,0.10914 0.0661,0.44847 0.0661,0.75406 0,1.77868 2.75835,2.86763 4.94721,1.95306 1.00457,-0.41973 2.19654,0.17053 2.19654,1.08773 0,1.30681 -4.51517,2.15097 -6.4823,1.21194 z m 5.05185,-7.82018 c 0.53986,-1.40685 -1.68824,-3.29195 -3.49117,-2.95372 -1.40802,0.26414 -2.79453,2.39454 -2.04574,3.14332 0.36819,0.3682 5.38883,0.19627 5.53691,-0.1896 z m 8.02431,7.70188 c -4.1713,-2.81103 -3.25812,-11.65301 1.33112,-12.88877 1.17528,-0.31647 3.26513,0.009 3.60682,0.56209 0.53523,0.86602 0.90381,0.12604 0.90766,-1.82223 0.005,-2.33096 0.0616,-2.46837 1.28312,-3.09445 1.3613,-0.69771 1.37123,-0.63079 1.2962,8.73375 -0.0716,8.93086 -0.66207,10.94112 -2.4826,8.45139 -0.29131,-0.39839 -0.40474,-0.38916 -1.38908,0.11301 -1.47442,0.75219 -3.38997,0.72915 -4.55324,-0.0548 z m 4.03839,-2.01881 c 2.11911,-0.82745 2.795,-6.40382 0.94327,-7.78242 -2.70153,-2.01126 -4.96285,-0.49896 -4.95946,3.31674 0.003,3.76321 1.51384,5.44276 4.01619,4.46568 z m 34.73067,2.24826 c -4.99338,-2.17498 -2.66107,-8.18444 3.18812,-8.21454 2.38125,-0.0122 2.38125,-0.0122 2.32498,-0.80601 -0.12085,-1.70475 -1.83388,-2.34883 -4.47698,-1.68329 -2.05261,0.51685 -2.88813,-1.09793 -1.03587,-2.00197 2.4305,-1.18627 6.02676,-0.57513 7.39354,1.25644 1.26773,1.69884 0.93415,11.55695 -0.39106,11.55695 -0.71618,0 -1.22122,-0.1515 -1.42245,-0.42669 -0.28397,-0.38836 -0.41042,-0.37647 -1.40769,0.13229 -1.24547,0.6354 -2.96589,0.71242 -4.17259,0.18682 z m 3.93311,-2.30673 c 1.76214,-0.90756 2.32386,-2.4584 1.18051,-3.25923 -1.02636,-0.71889 -3.78677,-0.55904 -4.61293,0.26712 -1.80982,1.80982 0.98969,4.25019 3.43242,2.99211 z m 10.03882,2.28663 c -1.10817,-0.80064 -1.24892,-1.41767 -1.38877,-6.08807 -0.13463,-4.49596 -0.13463,-4.49596 -0.92838,-4.63147 -1.4185,-0.24216 -1.16257,-2.38195 0.28489,-2.38195 0.57722,0 0.62202,-0.11447 0.69521,-1.77665 0.0746,-1.6935 0.12073,-1.80522 0.9862,-2.38727 1.2966,-0.872 1.45744,-0.69132 1.60558,1.80362 0.13229,2.22801 0.13229,2.22801 1.5875,2.3603 1.4552,0.13229 1.4552,0.13229 1.4552,1.19063 0,1.05833 0,1.05833 -1.4552,1.19062 -2.60586,0.2369 -2.36014,8.87011 0.24719,8.68481 1.21916,-0.0866 1.70072,1.11478 0.80561,2.00989 -0.474,0.47399 -3.24914,0.4922 -3.89503,0.0256 z m -85.63259,-0.29084 c -0.0883,-0.23018 -0.1606,-3.97091 -0.1606,-8.31273 0,-4.34182 0.0723,-8.08255 0.1606,-8.31274 0.20406,-0.53177 8.66694,-0.58302 10.10718,-0.0612 3.91186,1.41729 4.28828,7.54053 0.57984,9.43243 -1.29438,0.66035 -1.35439,0.21054 0.52947,3.9686 1.92589,3.84192 1.92024,3.70417 0.15188,3.70417 -1.43561,0 -1.43561,0 -3.19035,-3.45087 -2.64657,-5.20475 -5.51946,-5.16527 -5.63454,0.0774 -0.0713,3.24591 -1.70394,5.14271 -2.54348,2.95492 z m 9.54987,-9.50418 c 3.03627,-2.12669 0.895,-5.02626 -3.71178,-5.02626 -3.11609,0 -4.40931,2.02467 -3.23983,5.07229 0.20508,0.53442 6.17938,0.49486 6.95161,-0.046 z m 42.80304,9.60487 c -0.90255,-2.35203 0.12888,-17.01238 1.19691,-17.01238 1.19062,0 1.19062,0 1.26467,3.37344 0.1111,5.06121 7.99574,5.40868 7.99574,0.35237 0,-3.6182 1.81169,-5.88433 2.74982,-3.43959 1.12068,2.92043 0.0286,17.04399 -1.31787,17.04399 -1.41708,0 -1.41105,0.0181 -1.49948,-4.49792 -0.11031,-5.63379 -7.67499,-5.12515 -7.86997,0.52917 -0.12527,3.63294 -1.66863,5.86908 -2.51982,3.65092 z M -45.477039,102.90753 c -10.119255,-2.44934 -13.657231,-15.4172 -6.232016,-22.842416 8.483316,-8.483318 22.997582,-2.401753 22.997582,9.636125 0,8.819859 -8.200524,15.279441 -16.765566,13.206291 z M 9.0412122,83.723971 C -1.7207303,82.587228 -7.0104811,75.990599 -7.0146324,63.701383 c -0.00159,-5.074325 13.2925523,-4.48372 13.5025018,0.599855 0.2214932,5.363049 1.3080364,6.800131 5.2625596,6.960346 5.458616,0.221155 5.414028,0.413134 5.575596,-24.006877 0.132292,-19.995137 0.132292,-19.995137 21.034374,-20.074451 25.722775,-0.09761 28.119328,0.101264 32.819005,2.723369 8.098012,4.518147 8.20988,17.503249 0.187764,21.794646 -0.872582,0.466783 -0.771543,0.60457 1.185415,1.616572 9.30094,4.809784 9.579208,20.161629 0.469734,25.914783 -4.970939,3.139432 -5.929715,3.268345 -25.203064,3.388677 -16.205729,0.10118 -16.205729,0.10118 -16.205729,-5.454306 0,-5.851131 -0.19055,-6.75522 -0.940921,-4.464291 -2.713289,8.283853 -10.415061,12.209 -21.6313908,11.024265 z M 62.087469,70.211683 c 5.375513,-2.519923 3.811585,-10.516013 -2.263717,-11.573981 -2.347494,-0.408797 -13.190764,-0.386554 -13.605228,0.02791 -0.35111,0.35111 -0.473181,11.874043 -0.129432,12.217792 0.614355,0.614354 14.498465,0.0314 15.998377,-0.671722 z m -2.77014,-21.522376 c 4.824085,-1.4326 4.9183,-8.535736 0.131665,-9.926497 -7.287141,-2.117289 -13.418235,0.04647 -13.488016,4.760124 -0.03978,2.687452 -0.01376,5.038937 0.05784,5.225521 0.202311,0.527209 11.493134,0.476993 13.29851,-0.05915 z m 35.922279,35.080611 c -5.723014,-0.921406 -10.922314,-4.110763 -14.010091,-8.59408 -1.093473,-1.587672 -1.09455,-1.605438 -0.306679,-5.053766 0.954926,-4.179489 0.331018,-9.327505 -1.543804,-12.738326 -1.053991,-1.917504 -1.01637,-2.188168 0.778373,-5.599652 7.232128,-13.746984 28.999793,-14.248538 36.677933,-0.845109 1.03226,1.801988 1.34536,1.861458 1.6109,0.305988 2.04649,-11.987882 29.79679,-14.078808 35.77838,-2.695821 1.1757,2.237367 0.96423,2.22104 1.9823,0.153048 6.4321,-13.065448 36.87785,-8.510701 35.7709,5.3514 -0.0905,1.133655 -12.00291,0.208182 -12.34746,-0.959271 -0.99029,-3.355443 -7.78603,-4.578152 -10.47881,-1.885376 -2.64965,2.649654 0.73328,4.753822 10.60415,6.595727 6.38528,1.191495 7.83638,1.692701 10.12995,3.498895 4.73324,3.727424 5.34711,11.386249 1.3175,16.437518 -7.2136,9.042538 -30.05935,8.045466 -34.61641,-1.510787 -0.59851,-1.255096 -0.8652,-1.194559 -1.80968,0.41079 -6.62409,11.259077 -36.64479,8.471461 -36.64479,-3.402706 0,-0.671359 -0.49263,-0.314741 -1.17597,0.851302 -4.07162,6.947694 -13.25726,11.042195 -21.716692,9.680226 z m 44.979402,-9.029684 c 1.70883,-0.504421 3.04868,-2.046314 3.04868,-3.508402 0,-2.342907 -1.36633,-3.197305 -7.27605,-4.5499 -9.82931,-2.249699 -12.10159,-3.057085 -14.46931,-5.14124 -1.59502,-1.403993 -1.53726,-1.455344 -1.54257,1.371483 -0.003,1.346068 -0.1801,3.275902 -0.3946,4.288523 -0.50289,2.37398 -0.81437,2.23696 5.27456,2.320272 5.25736,0.07193 5.25736,0.07193 5.71631,1.480373 1.14895,3.525962 5.13222,5.070404 9.64298,3.738891 z m 37.84514,-0.352513 c 2.21794,-1.01541 2.9535,-2.55923 2.14326,-4.49839 -0.68176,-1.631688 -1.83549,-2.072407 -10.42565,-3.982538 -10.02004,-2.228083 -13.36406,-4.476761 -14.42003,-9.696707 -0.34359,-1.698432 -0.34359,-1.698432 -5.86761,-1.770084 -5.53037,-0.07174 -6.22643,-0.188584 -6.22643,-1.045239 0,-3.494077 -8.90109,-4.992132 -11.19103,-1.883449 -1.9487,2.645436 1.27968,4.553172 10.66186,6.300385 9.11786,1.69799 12.30632,3.967851 13.76155,9.796831 0.42935,1.719792 0.42935,1.719792 5.69166,1.852083 5.2623,0.132292 5.2623,0.132292 5.47695,1.167001 0.82163,3.960598 5.92528,5.806622 10.39547,3.760107 z M 100.91146,73.27936 c 7.74845,-2.301044 7.66781,-19.368347 -0.10179,-21.543701 -5.728714,-1.603941 -9.929482,3.037816 -9.929482,10.971869 0,7.787185 4.266639,12.283745 10.031272,10.571832 z M -50.555894,63.366042 C -59.20849,60.622111 -61.953827,50.19041 -55.77869,43.520523 c 5.726768,-6.185593 16.07572,-4.418256 19.721493,3.367927 4.307167,9.198711 -4.803005,19.552312 -14.498697,16.477592 z M 193.32547,39.671114 c -5.9051,-2.942636 -4.35906,-11.790988 2.17808,-12.465681 6.31463,-0.651727 9.85726,6.97024 5.2764,11.352155 -2.04223,1.953543 -4.90935,2.381822 -7.45448,1.113526 z m 4.91429,-1.047089 c 4.98343,-2.08221 3.86649,-9.595866 -1.50317,-10.111822 -3.26912,-0.314122 -6.29357,2.859841 -5.71161,5.993942 0.64126,3.453424 4.0917,5.422787 7.21478,4.11788 z m -4.04878,-1.767483 c -0.96398,-2.512094 0.11694,-6.4267 1.79487,-6.500204 2.76243,-0.121015 4.08062,1.644118 2.44746,3.277285 -0.79204,0.792036 -0.81222,1.091086 -0.13229,1.960322 0.28457,0.363802 0.52004,0.878549 0.52328,1.143879 0.009,0.763532 -0.82405,0.424404 -1.51508,-0.616543 -1.50796,-2.27157 -1.98072,-2.357112 -2.1832,-0.395044 -0.12862,1.246253 -0.64911,1.875438 -0.93504,1.130305 z m 3.33469,-4.062899 c 0.56417,-0.679776 -0.025,-1.30074 -1.23424,-1.30074 -1.05369,0 -1.40688,0.444339 -1.0638,1.338371 0.19965,0.520288 1.85754,0.493136 2.29804,-0.03763 z M -31.429564,27.404374 c -8.217605,-2.626448 -9.23884,-14.409786 -1.600155,-18.463099 9.608944,-5.0987912 19.346285,6.071025 12.998275,14.910472 -2.469745,3.439057 -7.169885,4.904023 -11.39812,3.552627 z M -0.58995935,11.662182 C -8.8892952,9.0684438 -9.6409658,-1.9489951 -1.7703158,-5.6386156 c 5.852038,-2.7433303 12.7463408,1.8132071 12.7463408,8.424226 0,6.069647 -5.9459198,10.6329746 -11.56598435,8.8765716 z M 31.388126,5.2058609 C 23.18418,2.2794487 25.173103,-9.796019 33.85305,-9.7595859 c 8.088574,0.033951 10.686954,10.9999663 3.44587,14.5426995 -1.909784,0.9343708 -4.047821,1.0872856 -5.910794,0.4227473 z"
         id="path902" />
      <path
         style="fill:#ebeaea;fill-opacity:1;stroke-width:0.264583"
         d="m 29.940074,138.88008 c -13.13024,-2.81694 -17.973084,-19.0677 -8.511634,-28.56186 10.670658,-10.707565 28.760715,-3.20893 28.772703,11.92677 0.0085,10.77328 -9.851112,18.86842 -20.261069,16.63509 z m 53.211387,-2.88847 c -0.0792,-0.0792 0.194513,-1.00194 0.608255,-2.05052 1.008875,-2.55689 1.065594,-2.20685 -1.447625,-8.93395 -2.358702,-6.3135 -2.371876,-6.41599 -0.808053,-6.28593 1.012333,0.0842 1.012333,0.0842 2.535973,4.71441 1.876001,5.70099 1.808543,5.70219 3.731323,-0.0661 1.390031,-4.17009 3.902604,-7.11606 3.902604,-4.57578 0,0.10512 -4.220718,11.58831 -5.814949,15.82057 -0.552984,1.46803 -1.920949,2.16393 -2.707528,1.37735 z m -96.445095,-4.4695 c -8.260574,-2.00164 -13.443645,-11.31481 -10.69768,-19.22206 5.599406,-16.123999 29.1213894,-12.325921 29.1433657,4.70576 0.012409,9.61619 -9.0936282,16.78242 -18.4456857,14.5163 z m 84.991531,0.18056 c -0.291041,-0.0645 -0.919662,-0.29927 -1.396933,-0.52183 -0.792345,-0.36948 -0.911045,-0.36549 -1.365666,0.0459 -0.292132,0.26438 -0.808259,0.41506 -1.248899,0.36462 -1.215168,-0.13912 -1.316845,-16.64924 -0.106386,-17.27519 1.293862,-0.66908 1.339759,-0.59287 1.339759,2.22463 0,3.01204 0.06628,3.10989 1.626857,2.40174 3.622969,-1.644 6.475743,0.63693 6.773905,5.41608 0.29719,4.76359 -2.250181,8.09085 -5.622637,7.34402 z m 1.605521,-2.30441 c 3.115537,-1.30175 2.151803,-8.87306 -1.129429,-8.87306 -4.564854,0 -4.698378,9.01813 -0.136864,9.24364 0.186573,0.009 0.756407,-0.15753 1.266293,-0.37058 z m 48.400722,2.02071 c -3.09265,-1.47632 -4.39393,-6.2237 -2.71261,-9.89621 2.70197,-5.90188 10.94362,-3.31033 10.4674,3.29143 -0.0819,1.13497 -0.0819,1.13497 -4.3152,1.26726 -2.32834,0.0728 -4.20357,0.22159 -4.16719,0.33073 0.0364,0.10914 0.0661,0.44847 0.0661,0.75406 0,1.77868 2.75835,2.86763 4.94721,1.95306 1.00457,-0.41973 2.19654,0.17053 2.19654,1.08773 0,1.30681 -4.51517,2.15097 -6.4823,1.21194 z m 5.05185,-7.82018 c 0.53986,-1.40685 -1.68824,-3.29195 -3.49117,-2.95372 -1.40802,0.26414 -2.79453,2.39454 -2.04574,3.14332 0.36819,0.3682 5.38883,0.19627 5.53691,-0.1896 z m 8.02431,7.70188 c -4.1713,-2.81103 -3.25812,-11.65301 1.33112,-12.88877 1.17528,-0.31647 3.26513,0.009 3.60682,0.56209 0.53523,0.86602 0.90381,0.12604 0.90766,-1.82223 0.005,-2.33096 0.0616,-2.46837 1.28312,-3.09445 1.3613,-0.69771 1.37123,-0.63079 1.2962,8.73375 -0.0716,8.93086 -0.66207,10.94112 -2.4826,8.45139 -0.29131,-0.39839 -0.40474,-0.38916 -1.38908,0.11301 -1.47442,0.75219 -3.38997,0.72915 -4.55324,-0.0548 z m 4.03839,-2.01881 c 2.11911,-0.82745 2.795,-6.40382 0.94327,-7.78242 -2.70153,-2.01126 -4.96285,-0.49896 -4.95946,3.31674 0.003,3.76321 1.51384,5.44276 4.01619,4.46568 z m 34.73067,2.24826 c -4.99338,-2.17498 -2.66107,-8.18444 3.18812,-8.21454 2.38125,-0.0122 2.38125,-0.0122 2.32498,-0.80601 -0.12085,-1.70475 -1.83388,-2.34883 -4.47698,-1.68329 -2.05261,0.51685 -2.88813,-1.09793 -1.03587,-2.00197 2.4305,-1.18627 6.02676,-0.57513 7.39354,1.25644 1.26773,1.69884 0.93415,11.55695 -0.39106,11.55695 -0.71618,0 -1.22122,-0.1515 -1.42245,-0.42669 -0.28397,-0.38836 -0.41042,-0.37647 -1.40769,0.13229 -1.24547,0.6354 -2.96589,0.71242 -4.17259,0.18682 z m 3.93311,-2.30673 c 1.76214,-0.90756 2.32386,-2.4584 1.18051,-3.25923 -1.02636,-0.71889 -3.78677,-0.55904 -4.61293,0.26712 -1.80982,1.80982 0.98969,4.25019 3.43242,2.99211 z m 10.03882,2.28663 c -1.10817,-0.80064 -1.24892,-1.41767 -1.38877,-6.08807 -0.13463,-4.49596 -0.13463,-4.49596 -0.92838,-4.63147 -1.4185,-0.24216 -1.16257,-2.38195 0.28489,-2.38195 0.57722,0 0.62202,-0.11447 0.69521,-1.77665 0.0746,-1.6935 0.12073,-1.80522 0.9862,-2.38727 1.2966,-0.872 1.45744,-0.69132 1.60558,1.80362 0.13229,2.22801 0.13229,2.22801 1.5875,2.3603 1.4552,0.13229 1.4552,0.13229 1.4552,1.19063 0,1.05833 0,1.05833 -1.4552,1.19062 -2.60586,0.2369 -2.36014,8.87011 0.24719,8.68481 1.21916,-0.0866 1.70072,1.11478 0.80561,2.00989 -0.474,0.47399 -3.24914,0.4922 -3.89503,0.0256 z m -85.63259,-0.29084 c -0.0883,-0.23018 -0.1606,-3.97091 -0.1606,-8.31273 0,-4.34182 0.0723,-8.08255 0.1606,-8.31274 0.20406,-0.53177 8.66694,-0.58302 10.10718,-0.0612 3.91186,1.41729 4.28828,7.54053 0.57984,9.43243 -1.29438,0.66035 -1.35439,0.21054 0.52947,3.9686 1.92589,3.84192 1.92024,3.70417 0.15188,3.70417 -1.43561,0 -1.43561,0 -3.19035,-3.45087 -2.64657,-5.20475 -5.51946,-5.16527 -5.63454,0.0774 -0.0713,3.24591 -1.70394,5.14271 -2.54348,2.95492 z m 9.54987,-9.50418 c 3.03627,-2.12669 0.895,-5.02626 -3.71178,-5.02626 -3.11609,0 -4.40931,2.02467 -3.23983,5.07229 0.20508,0.53442 6.17938,0.49486 6.95161,-0.046 z m 42.80304,9.60487 c -0.90255,-2.35203 0.12888,-17.01238 1.19691,-17.01238 1.19062,0 1.19062,0 1.26467,3.37344 0.1111,5.06121 7.99574,5.40868 7.99574,0.35237 0,-3.6182 1.81169,-5.88433 2.74982,-3.43959 1.12068,2.92043 0.0286,17.04399 -1.31787,17.04399 -1.41708,0 -1.41105,0.0181 -1.49948,-4.49792 -0.11031,-5.63379 -7.67499,-5.12515 -7.86997,0.52917 -0.12527,3.63294 -1.66863,5.86908 -2.51982,3.65092 z M -45.477039,102.90753 c -10.119255,-2.44934 -13.657231,-15.4172 -6.232016,-22.842416 8.483316,-8.483318 22.997582,-2.401753 22.997582,9.636125 0,8.819859 -8.200524,15.279441 -16.765566,13.206291 z M 9.0412122,83.723971 C -1.7207303,82.587228 -7.0104811,75.990599 -7.0146324,63.701383 c -0.00159,-5.074325 13.2925523,-4.48372 13.5025018,0.599855 0.2214932,5.363049 1.3080364,6.800131 5.2625596,6.960346 5.458616,0.221155 5.414028,0.413134 5.575596,-24.006877 0.132292,-19.995137 0.132292,-19.995137 21.034374,-20.074451 25.722775,-0.09761 28.119328,0.101264 32.819005,2.723369 8.098012,4.518147 8.20988,17.503249 0.187764,21.794646 -0.872582,0.466783 -0.771543,0.60457 1.185415,1.616572 9.30094,4.809784 9.579208,20.161629 0.469734,25.914783 -4.970939,3.139432 -5.929715,3.268345 -25.203064,3.388677 -16.205729,0.10118 -16.205729,0.10118 -16.205729,-5.454306 0,-5.851131 -0.19055,-6.75522 -0.940921,-4.464291 -2.713289,8.283853 -10.415061,12.209 -21.6313908,11.024265 z M 62.087469,70.211683 c 5.375513,-2.519923 3.811585,-10.516013 -2.263717,-11.573981 -2.347494,-0.408797 -13.190764,-0.386554 -13.605228,0.02791 -0.35111,0.35111 -0.473181,11.874043 -0.129432,12.217792 0.614355,0.614354 14.498465,0.0314 15.998377,-0.671722 z m -2.77014,-21.522376 c 4.824085,-1.4326 4.9183,-8.535736 0.131665,-9.926497 -7.287141,-2.117289 -13.418235,0.04647 -13.488016,4.760124 -0.03978,2.687452 -0.01376,5.038937 0.05784,5.225521 0.202311,0.527209 11.493134,0.476993 13.29851,-0.05915 z M 95.031733,83.47745 c -5.364824,-0.849508 -10.610339,-4.070432 -13.457845,-8.26357 -1.169728,-1.722504 -1.15442,-1.511493 -0.369396,-5.091808 0.925322,-4.220171 0.330788,-9.150377 -1.534599,-12.725753 -1.052888,-2.018062 -1.023339,-2.235594 0.766218,-5.641128 7.234745,-13.767746 29.300649,-13.747555 36.645899,0.03353 1.02066,1.914967 1.19146,1.911771 1.53326,-0.02868 2.19502,-12.461322 30.4495,-14.506414 35.64519,-2.580042 0.92809,2.130372 1.0144,2.144924 1.82678,0.307988 5.69849,-12.885301 35.59919,-9.843389 35.59919,3.621641 0,1.627262 -11.25392,1.458172 -11.81997,-0.177594 -1.62014,-4.681889 -12.78552,-4.389924 -11.60754,0.303525 0.53357,2.125901 3.28634,3.271192 11.67917,4.85911 11.57154,2.18933 15.95011,7.64213 12.94411,16.119775 -4.17725,11.780804 -29.92415,13.120474 -36.13507,1.88019 -0.851,-1.54011 -1.0609,-1.561642 -1.79184,-0.183803 -6.16833,11.62743 -36.48592,9.308087 -36.55585,-2.79658 -0.007,-1.227299 -0.67248,-0.799071 -1.86136,1.197933 -3.90098,6.552631 -13.14013,10.490039 -21.506347,9.165266 z M 140.2241,75.003412 c 1.75531,-0.517977 3.30817,-2.291847 3.30817,-3.778986 0,-2.433603 -1.58488,-3.443946 -7.54063,-4.807077 -10.03364,-2.296464 -12.30807,-3.123912 -14.53441,-5.287674 -1.67903,-1.631829 -1.73746,-1.582635 -1.73746,1.462926 0,1.461344 -0.18703,3.562461 -0.41562,4.669153 -0.53385,2.584487 -0.82394,2.454478 5.48783,2.459392 5.20449,0.004 5.20449,0.004 5.38375,0.863946 0.81264,3.898308 5.22939,5.840373 10.04837,4.41832 z m 37.15669,-0.0096 c 2.52806,-0.763411 3.94,-3.073041 3.1031,-5.076019 -0.77179,-1.847159 -2.01535,-2.343973 -10.70213,-4.275587 -9.61843,-2.138781 -13.07392,-4.353195 -14.06575,-9.013889 -0.60265,-2.831899 0.22376,-2.493637 -6.28982,-2.574539 -5.74026,-0.07129 -5.74026,-0.07129 -5.91461,-0.924555 -0.95706,-4.683823 -12.81436,-4.797549 -12.05459,-0.115617 0.39013,2.404057 2.46416,3.328755 11.39563,5.080662 8.91317,1.748319 12.26497,4.133866 13.40478,9.54047 0.45518,2.159133 0.2145,2.070513 5.84191,2.150991 5.01783,0.07176 5.01783,0.07176 5.49094,1.469917 1.19718,3.537974 5.28495,5.098746 9.79054,3.738174 z M 102.1443,73.034616 c 6.91397,-3.38268 6.19363,-19.062185 -0.98529,-21.446639 -5.907244,-1.962074 -10.543405,2.927432 -10.543405,11.119551 0,8.492035 5.397386,13.326867 11.528695,10.327096 z M -50.555894,63.366042 C -59.20849,60.622111 -61.953827,50.19041 -55.77869,43.520523 c 5.726768,-6.185593 16.07572,-4.418256 19.721493,3.367927 4.307167,9.198711 -4.803005,19.552312 -14.498697,16.477592 z M 193.64942,39.603793 c -6.29568,-2.940566 -4.16902,-12.214363 2.79951,-12.20787 6.15109,0.0057 8.37478,8.133239 3.21708,11.758208 -1.47887,1.039394 -4.30221,1.250402 -6.01659,0.449662 z m 4.59395,-0.716592 c 3.83965,-1.603918 4.67322,-6.568329 1.56162,-9.300364 -4.46989,-3.92462 -11.19519,1.43133 -8.43731,6.719385 1.31921,2.529507 4.31069,3.652441 6.87569,2.580979 z m -3.9111,-5.145339 c 0,-3.175 0,-3.175 1.71979,-3.175 2.70865,0 3.70437,1.565081 1.99122,3.129804 -0.7869,0.718724 -0.7869,0.718724 -0.14055,1.771023 1.25112,2.036889 0.59537,2.031664 -0.75758,-0.006 -1.33722,-2.013992 -2.28372,-1.882402 -2.28372,0.317497 0,0.62574 -0.11906,1.137709 -0.26458,1.137709 -0.16169,0 -0.26458,-1.234723 -0.26458,-3.175 z m 3.28839,-0.680358 c 0.91091,-0.91091 0.13969,-1.965476 -1.43738,-1.965476 -1.1309,0 -1.50847,0.54332 -1.2084,1.738887 0.19521,0.777814 1.94472,0.927645 2.64578,0.226589 z m -229.050224,-5.65713 c -8.217605,-2.626448 -9.23884,-14.409786 -1.600155,-18.463099 9.608944,-5.0987912 19.346285,6.071025 12.998275,14.910472 -2.469745,3.439057 -7.169885,4.904023 -11.39812,3.552627 z M -0.58995935,11.662182 C -8.8892952,9.0684438 -9.6409658,-1.9489951 -1.7703158,-5.6386156 c 5.852038,-2.7433303 12.7463408,1.8132071 12.7463408,8.424226 0,6.069647 -5.9459198,10.6329746 -11.56598435,8.8765716 z M 31.388126,5.2058609 C 23.18418,2.2794487 25.173103,-9.796019 33.85305,-9.7595859 c 8.088574,0.033951 10.686954,10.9999663 3.44587,14.5426995 -1.909784,0.9343708 -4.047821,1.0872856 -5.910794,0.4227473 z"
         id="path900" />
      <path
         style="fill:#ebeaea;fill-opacity:1;stroke-width:0.264583"
         d="m 30.34322,138.66248 c -9.437563,-1.77977 -15.420342,-11.25461 -13.023693,-20.62542 3.791828,-14.8259 24.110057,-16.92596 30.920403,-3.19588 6.056693,12.21067 -4.556334,26.33707 -17.89671,23.8213 z m 52.808241,-2.67087 c -0.0792,-0.0792 0.194513,-1.00194 0.608255,-2.05052 1.008875,-2.55689 1.065594,-2.20685 -1.447625,-8.93395 -2.358702,-6.3135 -2.371876,-6.41599 -0.808053,-6.28593 1.012333,0.0842 1.012333,0.0842 2.535973,4.71441 1.876001,5.70099 1.808543,5.70219 3.731323,-0.0661 1.390031,-4.17009 3.902604,-7.11606 3.902604,-4.57578 0,0.10512 -4.220718,11.58831 -5.814949,15.82057 -0.552984,1.46803 -1.920949,2.16393 -2.707528,1.37735 z m -11.453564,-4.28894 c -0.291041,-0.0645 -0.919662,-0.29927 -1.396933,-0.52183 -0.792345,-0.36948 -0.911045,-0.36549 -1.365666,0.0459 -0.292132,0.26438 -0.808259,0.41506 -1.248899,0.36462 -1.215168,-0.13912 -1.316845,-16.64924 -0.106386,-17.27519 1.293862,-0.66908 1.339759,-0.59287 1.339759,2.22463 0,3.01204 0.06628,3.10989 1.626857,2.40174 3.622969,-1.644 6.475743,0.63693 6.773905,5.41608 0.29719,4.76359 -2.250181,8.09085 -5.622637,7.34402 z m 1.605521,-2.30441 c 3.115537,-1.30175 2.151803,-8.87306 -1.129429,-8.87306 -4.564854,0 -4.698378,9.01813 -0.136864,9.24364 0.186573,0.009 0.756407,-0.15753 1.266293,-0.37058 z m -86.460466,1.82896 c -11.125295,-2.69734 -15.025377,-16.4914 -6.956213,-24.60318 9.254976,-9.303843 25.00387,-2.82857 25.00387,10.28053 0,9.49151 -8.8864383,16.5438 -18.047657,14.32265 z m 134.704368,-0.20538 c -3.76592,-1.98891 -3.94522,-9.60741 -0.27669,-11.75731 3.62301,-2.12323 7.67856,0.37126 7.79802,4.79641 0.0438,1.62363 0.0438,1.62363 -4.13426,1.69655 -4.74392,0.0828 -4.77857,0.10046 -3.9358,2.00569 0.83252,1.88205 3.14693,2.62063 5.07984,1.62108 0.72668,-0.37578 0.81284,-0.36464 1.35229,0.17481 1.54999,1.54999 -3.39182,2.77866 -5.8834,1.46277 z m 5.48533,-7.18994 c 0.79055,-2.06015 -2.48327,-4.30369 -4.64717,-3.18469 -1.07512,0.55597 -2.09316,2.59995 -1.59432,3.20101 0.46933,0.56552 6.02379,0.55099 6.24149,-0.0163 z m 8.02883,7.31446 c -2.35665,-1.25598 -3.41063,-6.80635 -1.88205,-9.91101 1.2118,-2.46126 4.00527,-3.39361 6.23179,-2.07993 1.34297,0.79237 1.47522,0.61862 1.47522,-1.93812 0,-2.34835 0.37629,-3.0421 1.65003,-3.0421 1.04837,0 0.52411,17.04734 -0.52738,17.14867 -0.59347,0.0572 -0.91113,-0.0458 -1.02049,-0.33073 -0.20913,-0.54498 -0.57171,-0.52202 -1.82196,0.11539 -1.29872,0.66213 -2.90598,0.67694 -4.10516,0.0378 z m 4.05641,-1.65839 c 3.17936,-1.63747 2.44364,-8.46469 -0.98142,-9.10724 -2.1329,-0.40013 -3.42325,1.10326 -3.5616,4.14964 -0.18739,4.12662 1.84667,6.34631 4.54302,4.9576 z m 34.32179,1.55442 c -4.75038,-2.43587 -1.18755,-8.59239 4.2605,-7.3621 1.47987,0.33419 1.96012,-0.0519 1.7117,-1.37603 -0.32932,-1.75544 -2.29374,-2.47827 -4.81597,-1.77209 -1.8782,0.52586 -2.49128,-0.75955 -0.71605,-1.50129 2.51482,-1.05076 6.03629,-0.29443 7.00056,1.50355 1.04591,1.95021 0.68608,10.83869 -0.43878,10.83869 -0.62255,0 -0.92604,-0.12285 -0.92604,-0.37483 0,-0.61843 -0.53438,-0.6089 -1.80056,0.0321 -1.51377,0.76637 -2.79715,0.76997 -4.27536,0.012 z m 4.82068,-1.9256 c 1.00508,-0.68297 1.36776,-1.44328 1.21102,-2.53879 -0.21386,-1.49485 -4.18354,-1.86574 -5.53238,-0.5169 -2.35921,2.3592 1.41689,5.02933 4.32136,3.05569 z m 9.55365,2.21146 c -1.02472,-0.49619 -1.24349,-1.45967 -1.40111,-6.1709 -0.15042,-4.49597 -0.15042,-4.49597 -0.94417,-4.6328 -0.67379,-0.11616 -0.79375,-0.25602 -0.79375,-0.92539 0,-0.6695 0.11983,-0.80913 0.79375,-0.92481 0.74578,-0.12802 0.79792,-0.21612 0.86288,-1.45781 0.10399,-1.98757 0.25155,-2.39252 0.9953,-2.7314 1.10067,-0.50149 1.15951,-0.41262 1.23997,1.87287 0.0768,2.18281 0.0768,2.18281 1.53205,2.31511 2.34294,0.21299 2.41047,1.78363 0.0819,1.90455 -2.6867,0.13952 -2.48816,9.20795 0.2016,9.20795 0.92838,0 1.03943,0.0697 1.03943,0.65215 0,1.09329 -2.11227,1.61464 -3.60784,0.89048 z m -85.55674,-8.4218 c 0,-8.56466 3.40975,-11.23203 10.06212,-7.87136 3.50256,1.76945 3.33034,7.43733 -0.27132,8.92919 -1.05659,0.43765 -1.02963,0.59975 0.66024,3.96925 1.73767,3.46482 1.73475,3.43959 0.39877,3.43959 -1.05644,0 -1.05644,0 -2.78532,-3.45017 -2.61996,-5.22841 -6.03865,-5.18578 -6.15417,0.0767 -0.074,3.37344 -0.074,3.37344 -0.99218,3.37344 -0.91814,0 -0.91814,0 -0.91814,-8.46667 z m 8.22173,-0.53024 c 2.71354,-0.7538 3.16484,-4.65033 0.65983,-5.69699 -1.36659,-0.571 -6.647,-0.54705 -6.86888,0.0312 -0.40221,1.04814 -0.17069,5.37015 0.30242,5.64571 0.59693,0.34768 4.67745,0.36158 5.90663,0.0201 z m 43.90118,0.53024 c 0,-8.46667 0,-8.46667 1.05834,-8.46667 1.05833,0 1.05833,0 1.05833,3.25438 0,4.10746 -0.23928,3.88937 4.26735,3.88937 4.65358,0 4.4639,0.16944 4.4639,-3.98765 0,-3.1561 0,-3.1561 0.92604,-3.1561 0.92604,0 0.92604,0 0.92604,8.46667 0,8.46667 0,8.46667 -0.92604,8.46667 -0.92604,0 -0.92604,0 -0.92604,-3.45698 0,-4.73857 0.2431,-4.48052 -4.221,-4.48052 -4.94421,0 -4.51025,-0.39732 -4.51025,4.12935 0,3.80815 0,3.80815 -1.05833,3.80815 -1.05834,0 -1.05834,0 -1.05834,-8.46667 z M -44.321889,102.89724 c -10.754409,-2.08201 -14.849474,-14.991403 -7.167211,-22.59412 10.680461,-10.569872 27.765253,2.065975 21.011195,15.539797 -2.428494,4.844653 -8.713963,8.047473 -13.843984,7.054323 z M 95.031733,83.47745 c -5.364824,-0.849508 -10.610339,-4.070432 -13.457845,-8.26357 -1.169728,-1.722504 -1.15442,-1.511493 -0.369396,-5.091808 0.925322,-4.220171 0.330788,-9.150377 -1.534599,-12.725753 -1.052888,-2.018062 -1.023339,-2.235594 0.766218,-5.641128 7.234745,-13.767746 29.300649,-13.747555 36.645899,0.03353 1.02066,1.914967 1.19146,1.911771 1.53326,-0.02868 2.19502,-12.461322 30.4495,-14.506414 35.64519,-2.580042 0.92809,2.130372 1.0144,2.144924 1.82678,0.307988 5.69849,-12.885301 35.59919,-9.843389 35.59919,3.621641 0,1.627262 -11.25392,1.458172 -11.81997,-0.177594 -1.62014,-4.681889 -12.78552,-4.389924 -11.60754,0.303525 0.53357,2.125901 3.28634,3.271192 11.67917,4.85911 11.57154,2.18933 15.95011,7.64213 12.94411,16.119775 -4.17725,11.780804 -29.92415,13.120474 -36.13507,1.88019 -0.851,-1.54011 -1.0609,-1.561642 -1.79184,-0.183803 -6.16833,11.62743 -36.48592,9.308087 -36.55585,-2.79658 -0.007,-1.227299 -0.67248,-0.799071 -1.86136,1.197933 -3.90098,6.552631 -13.14013,10.490039 -21.506347,9.165266 z M 140.2241,75.003412 c 1.75531,-0.517977 3.30817,-2.291847 3.30817,-3.778986 0,-2.433603 -1.58488,-3.443946 -7.54063,-4.807077 -10.03364,-2.296464 -12.30807,-3.123912 -14.53441,-5.287674 -1.67903,-1.631829 -1.73746,-1.582635 -1.73746,1.462926 0,1.461344 -0.18703,3.562461 -0.41562,4.669153 -0.53385,2.584487 -0.82394,2.454478 5.48783,2.459392 5.20449,0.004 5.20449,0.004 5.38375,0.863946 0.81264,3.898308 5.22939,5.840373 10.04837,4.41832 z m 37.15669,-0.0096 c 2.52806,-0.763411 3.94,-3.073041 3.1031,-5.076019 -0.77179,-1.847159 -2.01535,-2.343973 -10.70213,-4.275587 -9.61843,-2.138781 -13.07392,-4.353195 -14.06575,-9.013889 -0.60265,-2.831899 0.22376,-2.493637 -6.28982,-2.574539 -5.74026,-0.07129 -5.74026,-0.07129 -5.91461,-0.924555 -0.95706,-4.683823 -12.81436,-4.797549 -12.05459,-0.115617 0.39013,2.404057 2.46416,3.328755 11.39563,5.080662 8.91317,1.748319 12.26497,4.133866 13.40478,9.54047 0.45518,2.159133 0.2145,2.070513 5.84191,2.150991 5.01783,0.07176 5.01783,0.07176 5.49094,1.469917 1.19718,3.537974 5.28495,5.098746 9.79054,3.738174 z M 102.1443,73.034616 c 6.91397,-3.38268 6.19363,-19.062185 -0.98529,-21.446639 -5.907244,-1.962074 -10.543405,2.927432 -10.543405,11.119551 0,8.492035 5.397386,13.326867 11.528695,10.327096 z M 6.7426922,83.087708 c -9.063471,-1.823971 -13.4853594,-8.219456 -13.4921883,-19.514074 -0.00156,-2.579688 -0.00156,-2.579688 6.48073031,-2.579688 6.48229139,0 6.48229139,0 6.48376769,2.976563 0.00407,8.19544 8.0628221,11.283564 10.8746791,4.167187 0.295529,-0.74794 0.391607,-4.7425 0.499559,-20.769792 0.13366,-19.843751 0.13366,-19.843751 22.623242,-19.84052 25.512074,0.0037 25.305786,-0.01151 29.874836,2.197047 8.664712,4.188285 9.59623,15.719976 1.718606,21.27543 -1.934363,1.364149 -1.9392,1.309171 0.208132,2.366301 10.006679,4.926272 9.805741,20.94269 -0.330346,26.331107 -4.540662,2.413849 -7.441167,2.726264 -25.319666,2.727182 -14.485936,7.46e-4 -14.485936,7.46e-4 -14.489987,-6.150817 -0.0049,-7.36478 -0.23463,-8.270005 -1.192099,-4.696354 C 28.184699,80.898017 18.647777,85.48354 6.7426922,83.087708 Z M 61.184438,70.941134 c 5.590627,-1.785824 5.931016,-9.655979 0.523227,-12.097589 -1.637358,-0.739264 -14.88935,-1.146924 -15.689754,-0.48265 -0.633066,0.525401 -0.55731,12.552416 0.08155,12.946648 0.788847,0.486785 13.370726,0.181176 15.084977,-0.366409 z M 59.50331,48.922567 c 4.738947,-1.614721 5.196149,-8.179555 0.713912,-10.250787 -1.438658,-0.6648 -12.937045,-1.028502 -14.029631,-0.443767 -0.552355,0.295611 -0.885105,9.416963 -0.390551,10.705751 0.241432,0.629166 11.854751,0.619678 13.70627,-0.01119 z M -50.120833,63.21959 c -6.603155,-1.775341 -10.386055,-9.132404 -7.967973,-15.496277 4.040391,-10.633445 19.412963,-9.977961 22.37209,0.953942 2.37195,8.762691 -5.676885,16.88876 -14.404117,14.542335 z M 193.64942,39.603793 c -6.29568,-2.940566 -4.16902,-12.214363 2.79951,-12.20787 6.15109,0.0057 8.37478,8.133239 3.21708,11.758208 -1.47887,1.039394 -4.30221,1.250402 -6.01659,0.449662 z m 4.59395,-0.716592 c 3.83965,-1.603918 4.67322,-6.568329 1.56162,-9.300364 -4.46989,-3.92462 -11.19519,1.43133 -8.43731,6.719385 1.31921,2.529507 4.31069,3.652441 6.87569,2.580979 z m -3.9111,-5.145339 c 0,-3.175 0,-3.175 1.71979,-3.175 2.70865,0 3.70437,1.565081 1.99122,3.129804 -0.7869,0.718724 -0.7869,0.718724 -0.14055,1.771023 1.25112,2.036889 0.59537,2.031664 -0.75758,-0.006 -1.33722,-2.013992 -2.28372,-1.882402 -2.28372,0.317497 0,0.62574 -0.11906,1.137709 -0.26458,1.137709 -0.16169,0 -0.26458,-1.234723 -0.26458,-3.175 z m 3.28839,-0.680358 c 0.91091,-0.91091 0.13969,-1.965476 -1.43738,-1.965476 -1.1309,0 -1.50847,0.54332 -1.2084,1.738887 0.19521,0.777814 1.94472,0.927645 2.64578,0.226589 z M -30.846832,27.310161 c -9.997448,-2.823724 -9.111193,-17.5531774 1.156705,-19.2243207 9.112395,-1.4830807 14.951974,9.4792947 8.733742,16.3954617 -2.332468,2.594269 -6.500367,3.786367 -9.890447,2.828859 z M -0.26876579,11.425071 C -10.323183,8.8220701 -8.5211195,-6.0340463 1.853465,-6.0704789 9.5691273,-6.0975743 13.533302,2.8752049 8.4364038,8.8297857 6.5376375,11.048067 2.6973588,12.192974 -0.26876579,11.425071 Z M 32.274983,5.1875483 c -8.550823,-2.3526966 -7.218585,-14.631568 1.5875,-14.631568 7.778138,0 10.208066,10.41661638 3.258536,13.968692 -1.361844,0.6960719 -3.608474,1.0033823 -4.846036,0.662876 z"
         id="path898" />
      <path
         style="fill:#ebeaea;fill-opacity:1;stroke-width:0.264583"
         d="m 30.34322,138.66248 c -9.437563,-1.77977 -15.420342,-11.25461 -13.023693,-20.62542 3.791828,-14.8259 24.110057,-16.92596 30.920403,-3.19588 6.056693,12.21067 -4.556334,26.33707 -17.89671,23.8213 z m 53.023926,-2.74682 c -0.08491,-0.13737 0.201578,-1.11296 0.636627,-2.16797 1.007729,-2.44376 1.142852,-1.64564 -1.459166,-8.6187 -2.311612,-6.19481 -2.370603,-6.56439 -1.023213,-6.41041 0.734825,0.084 0.812954,0.24359 2.373551,4.84933 2.025457,5.97766 1.945378,5.97495 3.919458,0.13229 1.614432,-4.77822 1.743279,-5.01621 2.71944,-5.02303 1.018455,-0.007 0.933283,0.33267 -2.231662,8.90309 -3.227491,8.73977 -3.940662,9.94433 -4.935035,8.3354 z m -96.524194,-4.68844 c -11.125295,-2.69734 -15.025377,-16.4914 -6.956213,-24.60318 9.254976,-9.303843 25.00387,-2.82857 25.00387,10.28053 0,9.49151 -8.8864383,16.5438 -18.047657,14.32265 z m 83.588822,-0.1651 c -1.19194,-0.5256 -1.285717,-0.53152 -1.600547,-0.10096 -0.21962,0.30035 -0.602432,0.42685 -1.115126,0.36851 -1.285655,-0.14631 -1.357125,-16.09841 -0.07562,-16.87774 1.192181,-0.72501 1.279289,-0.56369 1.279289,2.3691 0,2.95731 0.111379,3.13907 1.442345,2.35379 3.057519,-1.80399 6.081775,0.1492 6.754862,4.36256 0.899033,5.62773 -2.446798,9.39374 -6.685205,7.52474 z m 3.239603,-1.66774 c 2.390878,-1.23638 2.060665,-7.73167 -0.446323,-8.77915 -2.698361,-1.12745 -4.569865,0.63931 -4.569865,4.31411 0,4.03206 2.15097,5.9467 5.016188,4.46504 z m 47.875943,1.62746 c -3.76592,-1.98891 -3.94522,-9.60741 -0.27669,-11.75731 3.62301,-2.12323 7.67856,0.37126 7.79802,4.79641 0.0438,1.62363 0.0438,1.62363 -4.13426,1.69655 -4.74392,0.0828 -4.77857,0.10046 -3.9358,2.00569 0.83252,1.88205 3.14693,2.62063 5.07984,1.62108 0.72668,-0.37578 0.81284,-0.36464 1.35229,0.17481 1.54999,1.54999 -3.39182,2.77866 -5.8834,1.46277 z m 5.48533,-7.18994 c 0.79055,-2.06015 -2.48327,-4.30369 -4.64717,-3.18469 -1.07512,0.55597 -2.09316,2.59995 -1.59432,3.20101 0.46933,0.56552 6.02379,0.55099 6.24149,-0.0163 z m 8.02883,7.31446 c -2.35665,-1.25598 -3.41063,-6.80635 -1.88205,-9.91101 1.2118,-2.46126 4.00527,-3.39361 6.23179,-2.07993 1.34297,0.79237 1.47522,0.61862 1.47522,-1.93812 0,-2.34835 0.37629,-3.0421 1.65003,-3.0421 1.04837,0 0.52411,17.04734 -0.52738,17.14867 -0.59347,0.0572 -0.91113,-0.0458 -1.02049,-0.33073 -0.20913,-0.54498 -0.57171,-0.52202 -1.82196,0.11539 -1.29872,0.66213 -2.90598,0.67694 -4.10516,0.0378 z m 4.05641,-1.65839 c 3.17936,-1.63747 2.44364,-8.46469 -0.98142,-9.10724 -2.1329,-0.40013 -3.42325,1.10326 -3.5616,4.14964 -0.18739,4.12662 1.84667,6.34631 4.54302,4.9576 z m 34.32179,1.55442 c -4.75038,-2.43587 -1.18755,-8.59239 4.2605,-7.3621 1.47987,0.33419 1.96012,-0.0519 1.7117,-1.37603 -0.32932,-1.75544 -2.29374,-2.47827 -4.81597,-1.77209 -1.8782,0.52586 -2.49128,-0.75955 -0.71605,-1.50129 2.51482,-1.05076 6.03629,-0.29443 7.00056,1.50355 1.04591,1.95021 0.68608,10.83869 -0.43878,10.83869 -0.62255,0 -0.92604,-0.12285 -0.92604,-0.37483 0,-0.61843 -0.53438,-0.6089 -1.80056,0.0321 -1.51377,0.76637 -2.79715,0.76997 -4.27536,0.012 z m 4.82068,-1.9256 c 1.00508,-0.68297 1.36776,-1.44328 1.21102,-2.53879 -0.21386,-1.49485 -4.18354,-1.86574 -5.53238,-0.5169 -2.35921,2.3592 1.41689,5.02933 4.32136,3.05569 z m 9.55365,2.21146 c -1.02472,-0.49619 -1.24349,-1.45967 -1.40111,-6.1709 -0.15042,-4.49597 -0.15042,-4.49597 -0.94417,-4.6328 -0.67379,-0.11616 -0.79375,-0.25602 -0.79375,-0.92539 0,-0.6695 0.11983,-0.80913 0.79375,-0.92481 0.74578,-0.12802 0.79792,-0.21612 0.86288,-1.45781 0.10399,-1.98757 0.25155,-2.39252 0.9953,-2.7314 1.10067,-0.50149 1.15951,-0.41262 1.23997,1.87287 0.0768,2.18281 0.0768,2.18281 1.53205,2.31511 2.34294,0.21299 2.41047,1.78363 0.0819,1.90455 -2.6867,0.13952 -2.48816,9.20795 0.2016,9.20795 0.92838,0 1.03943,0.0697 1.03943,0.65215 0,1.09329 -2.11227,1.61464 -3.60784,0.89048 z m -85.55674,-8.4218 c 0,-8.56466 3.40975,-11.23203 10.06212,-7.87136 3.50256,1.76945 3.33034,7.43733 -0.27132,8.92919 -1.05659,0.43765 -1.02963,0.59975 0.66024,3.96925 1.73767,3.46482 1.73475,3.43959 0.39877,3.43959 -1.05644,0 -1.05644,0 -2.78532,-3.45017 -2.61996,-5.22841 -6.03865,-5.18578 -6.15417,0.0767 -0.074,3.37344 -0.074,3.37344 -0.99218,3.37344 -0.91814,0 -0.91814,0 -0.91814,-8.46667 z m 8.22173,-0.53024 c 2.71354,-0.7538 3.16484,-4.65033 0.65983,-5.69699 -1.36659,-0.571 -6.647,-0.54705 -6.86888,0.0312 -0.40221,1.04814 -0.17069,5.37015 0.30242,5.64571 0.59693,0.34768 4.67745,0.36158 5.90663,0.0201 z m 43.90118,0.53024 c 0,-8.46667 0,-8.46667 1.05834,-8.46667 1.05833,0 1.05833,0 1.05833,3.25438 0,4.10746 -0.23928,3.88937 4.26735,3.88937 4.65358,0 4.4639,0.16944 4.4639,-3.98765 0,-3.1561 0,-3.1561 0.92604,-3.1561 0.92604,0 0.92604,0 0.92604,8.46667 0,8.46667 0,8.46667 -0.92604,8.46667 -0.92604,0 -0.92604,0 -0.92604,-3.45698 0,-4.73857 0.2431,-4.48052 -4.221,-4.48052 -4.94421,0 -4.51025,-0.39732 -4.51025,4.12935 0,3.80815 0,3.80815 -1.05833,3.80815 -1.05834,0 -1.05834,0 -1.05834,-8.46667 z M -44.321889,102.89724 c -10.754409,-2.08201 -14.849474,-14.991403 -7.167211,-22.59412 10.680461,-10.569872 27.765253,2.065975 21.011195,15.539797 -2.428494,4.844653 -8.713963,8.047473 -13.843984,7.054323 z M 6.7426922,83.087708 c -9.063471,-1.823971 -13.4853594,-8.219456 -13.4921883,-19.514074 -0.00156,-2.579688 -0.00156,-2.579688 6.48073031,-2.579688 6.48229139,0 6.48229139,0 6.48376769,2.976563 0.00407,8.19544 8.0628221,11.283564 10.8746791,4.167187 0.295529,-0.74794 0.391607,-4.7425 0.499559,-20.769792 0.13366,-19.843751 0.13366,-19.843751 22.623242,-19.84052 25.512074,0.0037 25.305786,-0.01151 29.874836,2.197047 8.664712,4.188285 9.59623,15.719976 1.718606,21.27543 -1.934363,1.364149 -1.9392,1.309171 0.208132,2.366301 10.006679,4.926272 9.805741,20.94269 -0.330346,26.331107 -4.540662,2.413849 -7.441167,2.726264 -25.319666,2.727182 -14.485936,7.46e-4 -14.485936,7.46e-4 -14.489987,-6.150817 -0.0049,-7.36478 -0.23463,-8.270005 -1.192099,-4.696354 C 28.184699,80.898017 18.647777,85.48354 6.7426922,83.087708 Z M 61.184438,70.941134 c 5.590627,-1.785824 5.931016,-9.655979 0.523227,-12.097589 -1.637358,-0.739264 -14.88935,-1.146924 -15.689754,-0.48265 -0.633066,0.525401 -0.55731,12.552416 0.08155,12.946648 0.788847,0.486785 13.370726,0.181176 15.084977,-0.366409 z M 59.50331,48.922567 c 4.738947,-1.614721 5.196149,-8.179555 0.713912,-10.250787 -1.438658,-0.6648 -12.937045,-1.028502 -14.029631,-0.443767 -0.552355,0.295611 -0.885105,9.416963 -0.390551,10.705751 0.241432,0.629166 11.854751,0.619678 13.70627,-0.01119 z M 93.658313,83.06778 C 87.13022,81.643578 79.830964,75.250874 80.929397,71.919767 c 1.505741,-4.566301 1.093838,-10.20095 -1.06041,-14.505967 -0.930928,-1.860351 -0.930928,-1.860351 -0.383598,-3.32323 5.74159,-15.345771 28.866221,-17.00555 37.195891,-2.669749 1.49255,2.56876 1.85166,2.692537 2.0564,0.708797 1.31018,-12.694457 30.55941,-14.82258 35.5225,-2.584558 0.83086,2.048737 1.22552,2.061091 1.95472,0.06118 4.60852,-12.639289 33.36619,-10.19614 35.3455,3.002825 0.27394,1.826787 -11.03897,1.87578 -11.66161,0.0505 -1.52771,-4.478462 -11.76027,-4.315323 -11.76027,0.187497 0,2.59502 2.40789,3.62127 13.44772,5.731457 10.37165,1.98247 14.53269,8.599221 10.60856,16.869398 -5.05951,10.663023 -29.63365,10.927924 -35.44899,0.382127 -0.8832,-1.601645 -1.16814,-1.599372 -1.98664,0.01585 -4.79122,9.455024 -27.52948,10.467412 -34.11691,1.51901 -0.96838,-1.315447 -1.52566,-2.469798 -2.37677,-4.923282 -0.2063,-0.594659 -0.78343,-0.06821 -1.72072,1.569604 -4.03749,7.055049 -13.99655,10.996009 -22.886457,9.056539 z m 46.200917,-7.790574 c 6.57568,-1.826546 4.92192,-6.906652 -2.8483,-8.749518 -11.50008,-2.727476 -13.1819,-3.33588 -15.5226,-5.615339 -1.6625,-1.61902 -2.03132,-1.509983 -1.84494,0.545444 0.0776,0.85626 -0.002,2.560698 -0.17745,3.787642 -0.71974,5.039067 -1.34654,4.459225 4.9082,4.540436 5.5157,0.07162 5.5157,0.07162 5.73033,1.157819 0.67166,3.39911 5.46023,5.526416 9.75476,4.333516 z m 38.49329,-0.551151 c 1.59159,-0.819039 2.486,-2.065894 2.486,-3.465624 0,-2.532761 -1.41273,-3.506547 -7.0176,-4.837203 -2.17944,-0.517422 -5.43615,-1.294754 -7.23713,-1.727406 -6.88905,-1.654964 -9.90381,-4.110205 -10.88063,-8.861251 -0.42642,-2.074024 -0.11082,-1.975662 -6.3541,-1.980324 -5.428,-0.0041 -5.428,-0.0041 -5.89298,-1.313223 -1.54727,-4.356439 -12.09464,-4.137689 -12.09464,0.250838 0,2.586498 2.31367,3.673454 11.79262,5.540132 8.58425,1.690489 12.22221,4.353052 12.96518,9.488999 0.28357,1.960248 0.1128,1.904204 5.80256,1.904204 5.09556,0 5.09556,0 5.38191,1.137181 1.02589,4.074174 6.75001,6.075853 11.04881,3.863677 z M 101.5149,73.523296 c 7.26184,-2.28749 7.43933,-18.672488 0.23686,-21.866419 -5.994709,-2.658349 -11.24161,2.382578 -11.233263,10.792278 0.0087,8.720296 4.407059,13.149792 10.996403,11.074141 z M -50.120833,63.21959 c -6.603155,-1.775341 -10.386055,-9.132404 -7.967973,-15.496277 4.040391,-10.633445 19.412963,-9.977961 22.37209,0.953942 2.37195,8.762691 -5.676885,16.88876 -14.404117,14.542335 z M 194.39095,39.71591 c -6.07163,-1.965219 -5.55767,-10.734633 0.70789,-12.078354 5.80501,-1.244952 9.71561,6.01204 5.61937,10.428016 -1.51755,1.636 -4.20549,2.337096 -6.32726,1.650338 z m 3.32256,-0.464018 c 6.32089,-1.59162 5.05632,-11.066281 -1.47701,-11.066281 -7.34088,0 -7.43883,10.775567 -0.10317,11.350002 0.19022,0.0149 0.9013,-0.112779 1.58018,-0.283721 z m -3.38124,-5.494415 c 0,-2.856269 0.22037,-3.605244 0.86972,-2.955896 0.2162,0.216207 0.21008,0.294447 -0.023,0.294447 -0.43619,0 -0.42382,2.298169 0.0132,2.458421 0.26458,0.09701 0.26458,0.191381 0,0.47184 -0.1819,0.192815 -0.33073,0.862541 -0.33073,1.488281 0,0.62574 -0.11906,1.137708 -0.26458,1.137708 -0.16027,0 -0.26459,-1.141322 -0.26459,-2.894801 z m 3.04009,1.723576 c -0.39091,-0.667023 -0.90742,-1.327595 -1.14781,-1.467935 -0.40272,-0.235112 -0.40166,-0.255797 0.0135,-0.26321 1.6325,-0.02915 2.39882,-1.283753 1.3964,-2.286172 -0.65904,-0.659043 -0.46008,-0.829072 0.41938,-0.3584 0.78468,0.41995 0.6937,1.927299 -0.14968,2.479903 -0.80764,0.529185 -0.83267,1.02512 -0.10343,2.04924 0.30692,0.431025 0.49601,0.845707 0.4202,0.921512 -0.0758,0.07581 -0.45766,-0.407916 -0.84856,-1.074938 z M -30.846832,27.310161 c -9.997448,-2.823724 -9.111193,-17.5531774 1.156705,-19.2243207 9.112395,-1.4830807 14.951974,9.4792947 8.733742,16.3954617 -2.332468,2.594269 -6.500367,3.786367 -9.890447,2.828859 z M -0.26876579,11.425071 C -10.323183,8.8220701 -8.5211195,-6.0340463 1.853465,-6.0704789 9.5691273,-6.0975743 13.533302,2.8752049 8.4364038,8.8297857 6.5376375,11.048067 2.6973588,12.192974 -0.26876579,11.425071 Z M 32.274983,5.1875483 c -8.550823,-2.3526966 -7.218585,-14.631568 1.5875,-14.631568 7.778138,0 10.208066,10.41661638 3.258536,13.968692 -1.361844,0.6960719 -3.608474,1.0033823 -4.846036,0.662876 z"
         id="path896" />
      <path
         style="fill:#ebeaea;fill-opacity:1;stroke-width:0.264583"
         d="m 30.34322,138.66248 c -9.437563,-1.77977 -15.420342,-11.25461 -13.023693,-20.62542 3.791828,-14.8259 24.110057,-16.92596 30.920403,-3.19588 6.056693,12.21067 -4.556334,26.33707 -17.89671,23.8213 z m 53.128635,-2.90113 c 0,-0.0603 0.361289,-1.05581 0.802865,-2.21218 0.802865,-2.10249 0.802865,-2.10249 -1.455208,-8.19105 -2.616377,-7.05467 -2.488375,-6.47648 -1.410436,-6.37104 0.847638,0.0829 0.847638,0.0829 2.432995,4.92318 2.066784,6.31013 2.032455,6.31132 4.158064,-0.14392 1.476327,-4.48344 3.144636,-6.93364 3.144636,-4.61845 0,0.16663 -5.213609,14.39706 -5.957223,16.26012 -0.158305,0.39662 -1.715693,0.71736 -1.715693,0.35334 z m -96.628903,-4.53413 c -11.125295,-2.69734 -15.025377,-16.4914 -6.956213,-24.60318 9.254976,-9.303843 25.00387,-2.82857 25.00387,10.28053 0,9.49151 -8.8864383,16.5438 -18.047657,14.32265 z m 134.704368,-0.20538 c -3.76592,-1.98891 -3.94522,-9.60741 -0.27669,-11.75731 3.62301,-2.12323 7.67856,0.37126 7.79802,4.79641 0.0438,1.62363 0.0438,1.62363 -4.13426,1.69655 -4.74392,0.0828 -4.77857,0.10046 -3.9358,2.00569 0.83252,1.88205 3.14693,2.62063 5.07984,1.62108 0.72668,-0.37578 0.81284,-0.36464 1.35229,0.17481 1.54999,1.54999 -3.39182,2.77866 -5.8834,1.46277 z m 5.48533,-7.18994 c 0.79055,-2.06015 -2.48327,-4.30369 -4.64717,-3.18469 -1.07512,0.55597 -2.09316,2.59995 -1.59432,3.20101 0.46933,0.56552 6.02379,0.55099 6.24149,-0.0163 z m 8.02883,7.31446 c -2.35665,-1.25598 -3.41063,-6.80635 -1.88205,-9.91101 1.2118,-2.46126 4.00527,-3.39361 6.23179,-2.07993 1.34297,0.79237 1.47522,0.61862 1.47522,-1.93812 0,-2.34835 0.37629,-3.0421 1.65003,-3.0421 1.04837,0 0.52411,17.04734 -0.52738,17.14867 -0.59347,0.0572 -0.91113,-0.0458 -1.02049,-0.33073 -0.20913,-0.54498 -0.57171,-0.52202 -1.82196,0.11539 -1.29872,0.66213 -2.90598,0.67694 -4.10516,0.0378 z m 4.05641,-1.65839 c 3.17936,-1.63747 2.44364,-8.46469 -0.98142,-9.10724 -2.1329,-0.40013 -3.42325,1.10326 -3.5616,4.14964 -0.18739,4.12662 1.84667,6.34631 4.54302,4.9576 z m 34.32179,1.55442 c -4.75038,-2.43587 -1.18755,-8.59239 4.2605,-7.3621 1.47987,0.33419 1.96012,-0.0519 1.7117,-1.37603 -0.32932,-1.75544 -2.29374,-2.47827 -4.81597,-1.77209 -1.8782,0.52586 -2.49128,-0.75955 -0.71605,-1.50129 2.51482,-1.05076 6.03629,-0.29443 7.00056,1.50355 1.04591,1.95021 0.68608,10.83869 -0.43878,10.83869 -0.62255,0 -0.92604,-0.12285 -0.92604,-0.37483 0,-0.61843 -0.53438,-0.6089 -1.80056,0.0321 -1.51377,0.76637 -2.79715,0.76997 -4.27536,0.012 z m 4.82068,-1.9256 c 1.00508,-0.68297 1.36776,-1.44328 1.21102,-2.53879 -0.21386,-1.49485 -4.18354,-1.86574 -5.53238,-0.5169 -2.35921,2.3592 1.41689,5.02933 4.32136,3.05569 z m 9.55365,2.21146 c -1.02472,-0.49619 -1.24349,-1.45967 -1.40111,-6.1709 -0.15042,-4.49597 -0.15042,-4.49597 -0.94417,-4.6328 -0.67379,-0.11616 -0.79375,-0.25602 -0.79375,-0.92539 0,-0.6695 0.11983,-0.80913 0.79375,-0.92481 0.74578,-0.12802 0.79792,-0.21612 0.86288,-1.45781 0.10399,-1.98757 0.25155,-2.39252 0.9953,-2.7314 1.10067,-0.50149 1.15951,-0.41262 1.23997,1.87287 0.0768,2.18281 0.0768,2.18281 1.53205,2.31511 2.34294,0.21299 2.41047,1.78363 0.0819,1.90455 -2.6867,0.13952 -2.48816,9.20795 0.2016,9.20795 0.92838,0 1.03943,0.0697 1.03943,0.65215 0,1.09329 -2.11227,1.61464 -3.60784,0.89048 z M 70.284771,130.79301 c -1.079563,-0.56682 -1.168709,-0.57546 -1.484376,-0.14376 -0.184708,0.25261 -0.650131,0.45928 -1.034269,0.45928 -1.177309,0 -1.085514,-15.92583 0.09531,-16.53646 0.79375,-0.41046 0.79375,-0.41046 0.79375,2.38276 0,3.24338 0.07834,3.33836 1.963071,2.38008 3.79422,-1.92914 6.9123,1.33717 6.410123,6.71486 -0.405124,4.3384 -3.443877,6.47576 -6.743612,4.74324 z m 3.374961,-1.12803 c 2.859437,-1.47867 2.241513,-8.69711 -0.803148,-9.38222 -2.890048,-0.65033 -4.201395,0.82818 -4.201395,4.73697 0,4.24489 2.067565,6.16402 5.004543,4.64525 z m 28.597538,-6.75853 c 0,-8.56466 3.40975,-11.23203 10.06212,-7.87136 3.50256,1.76945 3.33034,7.43733 -0.27132,8.92919 -1.05659,0.43765 -1.02963,0.59975 0.66024,3.96925 1.73767,3.46482 1.73475,3.43959 0.39877,3.43959 -1.05644,0 -1.05644,0 -2.78532,-3.45017 -2.61996,-5.22841 -6.03865,-5.18578 -6.15417,0.0767 -0.074,3.37344 -0.074,3.37344 -0.99218,3.37344 -0.91814,0 -0.91814,0 -0.91814,-8.46667 z m 8.22173,-0.53024 c 2.71354,-0.7538 3.16484,-4.65033 0.65983,-5.69699 -1.36659,-0.571 -6.647,-0.54705 -6.86888,0.0312 -0.40221,1.04814 -0.17069,5.37015 0.30242,5.64571 0.59693,0.34768 4.67745,0.36158 5.90663,0.0201 z m 43.90118,0.53024 c 0,-8.46667 0,-8.46667 1.05834,-8.46667 1.05833,0 1.05833,0 1.05833,3.25438 0,4.10746 -0.23928,3.88937 4.26735,3.88937 4.65358,0 4.4639,0.16944 4.4639,-3.98765 0,-3.1561 0,-3.1561 0.92604,-3.1561 0.92604,0 0.92604,0 0.92604,8.46667 0,8.46667 0,8.46667 -0.92604,8.46667 -0.92604,0 -0.92604,0 -0.92604,-3.45698 0,-4.73857 0.2431,-4.48052 -4.221,-4.48052 -4.94421,0 -4.51025,-0.39732 -4.51025,4.12935 0,3.80815 0,3.80815 -1.05833,3.80815 -1.05834,0 -1.05834,0 -1.05834,-8.46667 z M -44.321889,102.89724 c -10.754409,-2.08201 -14.849474,-14.991403 -7.167211,-22.59412 10.680461,-10.569872 27.765253,2.065975 21.011195,15.539797 -2.428494,4.844653 -8.713963,8.047473 -13.843984,7.054323 z M 6.7426922,83.087708 c -9.063471,-1.823971 -13.4853594,-8.219456 -13.4921883,-19.514074 -0.00156,-2.579688 -0.00156,-2.579688 6.48073031,-2.579688 6.48229139,0 6.48229139,0 6.48376769,2.976563 0.00407,8.19544 8.0628221,11.283564 10.8746791,4.167187 0.295529,-0.74794 0.391607,-4.7425 0.499559,-20.769792 0.13366,-19.843751 0.13366,-19.843751 22.623242,-19.84052 25.512074,0.0037 25.305786,-0.01151 29.874836,2.197047 8.664712,4.188285 9.59623,15.719976 1.718606,21.27543 -1.934363,1.364149 -1.9392,1.309171 0.208132,2.366301 10.006679,4.926272 9.805741,20.94269 -0.330346,26.331107 -4.540662,2.413849 -7.441167,2.726264 -25.319666,2.727182 -14.485936,7.46e-4 -14.485936,7.46e-4 -14.489987,-6.150817 -0.0049,-7.36478 -0.23463,-8.270005 -1.192099,-4.696354 C 28.184699,80.898017 18.647777,85.48354 6.7426922,83.087708 Z M 61.184438,70.941134 c 5.590627,-1.785824 5.931016,-9.655979 0.523227,-12.097589 -1.637358,-0.739264 -14.88935,-1.146924 -15.689754,-0.48265 -0.633066,0.525401 -0.55731,12.552416 0.08155,12.946648 0.788847,0.486785 13.370726,0.181176 15.084977,-0.366409 z M 59.50331,48.922567 c 4.738947,-1.614721 5.196149,-8.179555 0.713912,-10.250787 -1.438658,-0.6648 -12.937045,-1.028502 -14.029631,-0.443767 -0.552355,0.295611 -0.885105,9.416963 -0.390551,10.705751 0.241432,0.629166 11.854751,0.619678 13.70627,-0.01119 z M 95.520694,83.201104 C 88.962549,82.19625 80.07101,75.887422 80.929027,72.847857 c 1.58691,-5.6217 1.318927,-10.921821 -0.76844,-15.198104 -1.151546,-2.35911 -1.158825,-2.218542 0.260498,-5.029433 7.226993,-14.312636 28.960825,-14.615153 36.421665,-0.506958 1.33387,2.522289 1.91623,2.503943 2.14941,-0.06771 1.17817,-12.993026 35.64345,-13.89761 35.6524,-0.935741 7.9e-4,1.126471 1.13444,0.508397 1.52529,-0.831588 3.84667,-13.188004 35.252,-10.540863 35.252,2.971374 0,1.299072 -10.83313,0.740431 -11.29082,-0.582245 -1.59415,-4.606954 -12.26217,-4.578279 -12.25611,0.03294 0.004,2.679425 2.91367,4.053565 12.22726,5.773579 11.71771,2.163996 16.09913,8.482878 11.81983,17.046526 -5.26502,10.536235 -29.68067,10.578542 -35.01048,0.06067 -0.87515,-1.727015 -1.22602,-1.706195 -2.26478,0.134393 -6.48774,11.495641 -35.98531,9.166312 -35.98531,-2.841644 0,-1.511387 -1.03081,-1.195557 -2.06211,0.631809 -3.88015,6.875249 -12.77686,10.967398 -21.078636,9.695382 z m 45.233446,-8.032976 c 5.65531,-2.365438 3.95646,-7.028341 -3.175,-8.714579 -1.60072,-0.378494 -4.68763,-1.108712 -6.85978,-1.622708 -4.83844,-1.144921 -7.33023,-2.280864 -9.33829,-4.257096 -1.81909,-1.790258 -1.92601,-1.710962 -1.92535,1.428004 2.7e-4,1.41024 -0.19078,3.60652 -0.42462,4.880621 -0.61423,3.346649 -1.02082,3.10741 5.28113,3.10741 5.40282,0 5.40282,0 5.56744,0.877536 0.72888,3.885258 6.45429,6.149639 10.87447,4.300812 z M 178.366,74.863635 c 2.5534,-1.275998 3.46471,-3.545102 2.2342,-5.563034 -0.98699,-1.618583 -2.47201,-2.176761 -10.47731,-3.938127 -10.06071,-2.21361 -13.29273,-4.384932 -14.24945,-9.572993 -0.33322,-1.806993 -0.33322,-1.806993 -6.12819,-1.939285 -5.79498,-0.132292 -5.79498,-0.132292 -5.95817,-0.931577 -0.94782,-4.642355 -12.69023,-5.00162 -12.69023,-0.388263 0,2.859707 2.66967,4.235609 11.2787,5.812849 9.18118,1.682065 12.42553,3.988371 13.59207,9.6622 0.42521,2.068105 0.14419,1.975649 6.01934,1.980324 5.05883,0.004 5.09322,0.008 5.09322,0.581975 0,4.083947 6.64694,6.614094 11.28582,4.295931 z M 102.49133,73.28815 c 6.55291,-3.566541 6.3015,-18.446783 -0.36635,-21.683399 -7.242432,-3.515521 -13.608288,4.800304 -11.481573,14.998568 1.315109,6.306352 6.828163,9.416926 11.847923,6.684831 z M -50.120833,63.21959 c -6.603155,-1.775341 -10.386055,-9.132404 -7.967973,-15.496277 4.040391,-10.633445 19.412963,-9.977961 22.37209,0.953942 2.37195,8.762691 -5.676885,16.88876 -14.404117,14.542335 z M 195.72497,39.637419 c 0.40218,-0.06082 0.99749,-0.05919 1.32291,0.0036 0.32542,0.0628 -0.004,0.112559 -0.73124,0.110575 -0.7276,-0.0021 -0.99386,-0.05337 -0.59167,-0.114186 z m 2.84063,-0.443291 c 0,-0.05719 0.18478,-0.17489 0.41062,-0.261554 0.23545,-0.09035 0.34166,-0.046 0.24896,0.103984 -0.15537,0.25141 -0.65958,0.371859 -0.65958,0.15757 z m 3.48136,-4.658516 c 0,-0.363802 0.0601,-0.512631 0.13346,-0.330729 0.0734,0.181901 0.0734,0.479557 0,0.661458 -0.0734,0.181901 -0.13346,0.03307 -0.13346,-0.330729 z m -11.90625,-0.79375 c 0,-0.363802 0.06,-0.512631 0.13345,-0.330729 0.0734,0.181901 0.0734,0.479557 0,0.661458 -0.0734,0.181901 -0.13345,0.03307 -0.13345,-0.330729 z m 11.90625,-0.79375 c 0,-0.363802 0.0601,-0.512631 0.13346,-0.33073 0.0734,0.181902 0.0734,0.479558 0,0.661459 -0.0734,0.181901 -0.13346,0.03307 -0.13346,-0.330729 z m -0.68622,-2.03911 c -0.14359,-0.377084 -0.11319,-0.407474 0.14811,-0.148114 0.18082,0.179478 0.26212,0.39297 0.18066,0.474433 -0.0815,0.08146 -0.22942,-0.06538 -0.32877,-0.326319 z m -5.7717,-3.174698 c 0.32742,-0.06307 0.8632,-0.06307 1.19062,0 0.32742,0.06306 0.0595,0.114662 -0.59531,0.114662 -0.65484,0 -0.92273,-0.0516 -0.59531,-0.114662 z M -30.846832,27.310161 c -9.997448,-2.823724 -9.111193,-17.5531774 1.156705,-19.2243207 9.112395,-1.4830807 14.951974,9.4792947 8.733742,16.3954617 -2.332468,2.594269 -6.500367,3.786367 -9.890447,2.828859 z M -0.26876579,11.425071 C -10.323183,8.8220701 -8.5211195,-6.0340463 1.853465,-6.0704789 9.5691273,-6.0975743 13.533302,2.8752049 8.4364038,8.8297857 6.5376375,11.048067 2.6973588,12.192974 -0.26876579,11.425071 Z M 32.274983,5.1875483 c -8.550823,-2.3526966 -7.218585,-14.631568 1.5875,-14.631568 7.778138,0 10.208066,10.41661638 3.258536,13.968692 -1.361844,0.6960719 -3.608474,1.0033823 -4.846036,0.662876 z"
         id="path894" />
      <path
         style="fill:#ebeaea;fill-opacity:1;stroke-width:0.264583"
         d="m 30.34322,138.66248 c -9.437563,-1.77977 -15.420342,-11.25461 -13.023693,-20.62542 3.791828,-14.8259 24.110057,-16.92596 30.920403,-3.19588 6.056693,12.21067 -4.556334,26.33707 -17.89671,23.8213 z m -43.500268,-7.43526 c -11.125295,-2.69734 -15.025377,-16.4914 -6.956213,-24.60318 9.254976,-9.303843 25.00387,-2.82857 25.00387,10.28053 0,9.49151 -8.8864383,16.5438 -18.047657,14.32265 z m 134.704368,-0.20538 c -3.76592,-1.98891 -3.94522,-9.60741 -0.27669,-11.75731 3.62301,-2.12323 7.67856,0.37126 7.79802,4.79641 0.0438,1.62363 0.0438,1.62363 -4.13426,1.69655 -4.74392,0.0828 -4.77857,0.10046 -3.9358,2.00569 0.83252,1.88205 3.14693,2.62063 5.07984,1.62108 0.72668,-0.37578 0.81284,-0.36464 1.35229,0.17481 1.54999,1.54999 -3.39182,2.77866 -5.8834,1.46277 z m 5.48533,-7.18994 c 0.79055,-2.06015 -2.48327,-4.30369 -4.64717,-3.18469 -1.07512,0.55597 -2.09316,2.59995 -1.59432,3.20101 0.46933,0.56552 6.02379,0.55099 6.24149,-0.0163 z m 8.02883,7.31446 c -2.35665,-1.25598 -3.41063,-6.80635 -1.88205,-9.91101 1.2118,-2.46126 4.00527,-3.39361 6.23179,-2.07993 1.34297,0.79237 1.47522,0.61862 1.47522,-1.93812 0,-2.34835 0.37629,-3.0421 1.65003,-3.0421 1.04837,0 0.52411,17.04734 -0.52738,17.14867 -0.59347,0.0572 -0.91113,-0.0458 -1.02049,-0.33073 -0.20913,-0.54498 -0.57171,-0.52202 -1.82196,0.11539 -1.29872,0.66213 -2.90598,0.67694 -4.10516,0.0378 z m 4.05641,-1.65839 c 3.17936,-1.63747 2.44364,-8.46469 -0.98142,-9.10724 -2.1329,-0.40013 -3.42325,1.10326 -3.5616,4.14964 -0.18739,4.12662 1.84667,6.34631 4.54302,4.9576 z m 34.32179,1.55442 c -4.75038,-2.43587 -1.18755,-8.59239 4.2605,-7.3621 1.47987,0.33419 1.96012,-0.0519 1.7117,-1.37603 -0.32932,-1.75544 -2.29374,-2.47827 -4.81597,-1.77209 -1.8782,0.52586 -2.49128,-0.75955 -0.71605,-1.50129 2.51482,-1.05076 6.03629,-0.29443 7.00056,1.50355 1.04591,1.95021 0.68608,10.83869 -0.43878,10.83869 -0.62255,0 -0.92604,-0.12285 -0.92604,-0.37483 0,-0.61843 -0.53438,-0.6089 -1.80056,0.0321 -1.51377,0.76637 -2.79715,0.76997 -4.27536,0.012 z m 4.82068,-1.9256 c 1.00508,-0.68297 1.36776,-1.44328 1.21102,-2.53879 -0.21386,-1.49485 -4.18354,-1.86574 -5.53238,-0.5169 -2.35921,2.3592 1.41689,5.02933 4.32136,3.05569 z m 9.55365,2.21146 c -1.02472,-0.49619 -1.24349,-1.45967 -1.40111,-6.1709 -0.15042,-4.49597 -0.15042,-4.49597 -0.94417,-4.6328 -0.67379,-0.11616 -0.79375,-0.25602 -0.79375,-0.92539 0,-0.6695 0.11983,-0.80913 0.79375,-0.92481 0.74578,-0.12802 0.79792,-0.21612 0.86288,-1.45781 0.10399,-1.98757 0.25155,-2.39252 0.9953,-2.7314 1.10067,-0.50149 1.15951,-0.41262 1.23997,1.87287 0.0768,2.18281 0.0768,2.18281 1.53205,2.31511 2.34294,0.21299 2.41047,1.78363 0.0819,1.90455 -2.6867,0.13952 -2.48816,9.20795 0.2016,9.20795 0.92838,0 1.03943,0.0697 1.03943,0.65215 0,1.09329 -2.11227,1.61464 -3.60784,0.89048 z m -85.55674,-8.4218 c 0,-8.56466 3.40975,-11.23203 10.06212,-7.87136 3.50256,1.76945 3.33034,7.43733 -0.27132,8.92919 -1.05659,0.43765 -1.02963,0.59975 0.66024,3.96925 1.73767,3.46482 1.73475,3.43959 0.39877,3.43959 -1.05644,0 -1.05644,0 -2.78532,-3.45017 -2.61996,-5.22841 -6.03865,-5.18578 -6.15417,0.0767 -0.074,3.37344 -0.074,3.37344 -0.99218,3.37344 -0.91814,0 -0.91814,0 -0.91814,-8.46667 z m 8.22173,-0.53024 c 2.71354,-0.7538 3.16484,-4.65033 0.65983,-5.69699 -1.36659,-0.571 -6.647,-0.54705 -6.86888,0.0312 -0.40221,1.04814 -0.17069,5.37015 0.30242,5.64571 0.59693,0.34768 4.67745,0.36158 5.90663,0.0201 z m 43.90118,0.53024 c 0,-8.46667 0,-8.46667 1.05834,-8.46667 1.05833,0 1.05833,0 1.05833,3.25438 0,4.10746 -0.23928,3.88937 4.26735,3.88937 4.65358,0 4.4639,0.16944 4.4639,-3.98765 0,-3.1561 0,-3.1561 0.92604,-3.1561 0.92604,0 0.92604,0 0.92604,8.46667 0,8.46667 0,8.46667 -0.92604,8.46667 -0.92604,0 -0.92604,0 -0.92604,-3.45698 0,-4.73857 0.2431,-4.48052 -4.221,-4.48052 -4.94421,0 -4.51025,-0.39732 -4.51025,4.12935 0,3.80815 0,3.80815 -1.05833,3.80815 -1.05834,0 -1.05834,0 -1.05834,-8.46667 z M -44.321889,102.89724 c -10.754409,-2.08201 -14.849474,-14.991403 -7.167211,-22.59412 10.680461,-10.569872 27.765253,2.065975 21.011195,15.539797 -2.428494,4.844653 -8.713963,8.047473 -13.843984,7.054323 z M 6.7426922,83.087708 c -9.063471,-1.823971 -13.4853594,-8.219456 -13.4921883,-19.514074 -0.00156,-2.579688 -0.00156,-2.579688 6.48073031,-2.579688 6.48229139,0 6.48229139,0 6.48376769,2.976563 0.00407,8.19544 8.0628221,11.283564 10.8746791,4.167187 0.295529,-0.74794 0.391607,-4.7425 0.499559,-20.769792 0.13366,-19.843751 0.13366,-19.843751 22.623242,-19.84052 25.512074,0.0037 25.305786,-0.01151 29.874836,2.197047 8.664712,4.188285 9.59623,15.719976 1.718606,21.27543 -1.934363,1.364149 -1.9392,1.309171 0.208132,2.366301 10.006679,4.926272 9.805741,20.94269 -0.330346,26.331107 -4.540662,2.413849 -7.441167,2.726264 -25.319666,2.727182 -14.485936,7.46e-4 -14.485936,7.46e-4 -14.489987,-6.150817 -0.0049,-7.36478 -0.23463,-8.270005 -1.192099,-4.696354 C 28.184699,80.898017 18.647777,85.48354 6.7426922,83.087708 Z M 61.184438,70.941134 c 5.590627,-1.785824 5.931016,-9.655979 0.523227,-12.097589 -1.637358,-0.739264 -14.88935,-1.146924 -15.689754,-0.48265 -0.633066,0.525401 -0.55731,12.552416 0.08155,12.946648 0.788847,0.486785 13.370726,0.181176 15.084977,-0.366409 z M 59.50331,48.922567 c 4.738947,-1.614721 5.196149,-8.179555 0.713912,-10.250787 -1.438658,-0.6648 -12.937045,-1.028502 -14.029631,-0.443767 -0.552355,0.295611 -0.885105,9.416963 -0.390551,10.705751 0.241432,0.629166 11.854751,0.619678 13.70627,-0.01119 z M -50.120833,63.21959 c -6.603155,-1.775341 -10.386055,-9.132404 -7.967973,-15.496277 4.040391,-10.633445 19.412963,-9.977961 22.37209,0.953942 2.37195,8.762691 -5.676885,16.88876 -14.404117,14.542335 z m 19.274001,-35.909429 c -9.997448,-2.823724 -9.111193,-17.5531774 1.156705,-19.2243207 9.112395,-1.4830807 14.951974,9.4792947 8.733742,16.3954617 -2.332468,2.594269 -6.500367,3.786367 -9.890447,2.828859 z M -0.26876579,11.425071 C -10.323183,8.8220701 -8.5211195,-6.0340463 1.853465,-6.0704789 9.5691273,-6.0975743 13.533302,2.8752049 8.4364038,8.8297857 6.5376375,11.048067 2.6973588,12.192974 -0.26876579,11.425071 Z M 32.274983,5.1875483 c -8.550823,-2.3526966 -7.218585,-14.631568 1.5875,-14.631568 7.778138,0 10.208066,10.41661638 3.258536,13.968692 -1.361844,0.6960719 -3.608474,1.0033823 -4.846036,0.662876 z"
         id="path892" />
    </g>
  </g>
</svg>
