<?xml version="1.0" encoding="UTF-8" standalone="no"?>
<!-- Created with Inkscape (http://www.inkscape.org/) -->

<svg
   width="310mm"
   height="110mm"
   viewBox="0 0 310 110"
   version="1.1"
   id="svg5"
   inkscape:version="1.1.1 (c3084ef, 2021-09-22)"
   sodipodi:docname="server_error.svg"
   xmlns:inkscape="http://www.inkscape.org/namespaces/inkscape"
   xmlns:sodipodi="http://sodipodi.sourceforge.net/DTD/sodipodi-0.dtd"
   xmlns:xlink="http://www.w3.org/1999/xlink"
   xmlns="http://www.w3.org/2000/svg"
   xmlns:svg="http://www.w3.org/2000/svg">
  <sodipodi:namedview
     id="namedview7"
     pagecolor="#ffffff"
     bordercolor="#666666"
     borderopacity="1.0"
     inkscape:pageshadow="2"
     inkscape:pageopacity="0.0"
     inkscape:pagecheckerboard="0"
     inkscape:document-units="mm"
     showgrid="false"
     inkscape:zoom="0.47502341"
     inkscape:cx="669.44069"
     inkscape:cy="95.784752"
     inkscape:window-width="1312"
     inkscape:window-height="779"
     inkscape:window-x="0"
     inkscape:window-y="25"
     inkscape:window-maximized="0"
     inkscape:current-layer="layer1" />
  <defs
     id="defs2">
    <linearGradient
       inkscape:collect="always"
       id="linearGradient1220">
      <stop
         style="stop-color:#c2c2c2;stop-opacity:1;"
         offset="0"
         id="stop1216" />
      <stop
         style="stop-color:#c2c2c2;stop-opacity:0;"
         offset="1"
         id="stop1218" />
    </linearGradient>
    <filter
       inkscape:collect="always"
       style="color-interpolation-filters:sRGB"
       id="filter2313"
       x="-5.7828486e-05"
       y="-0.00030840556"
       width="1.0001157"
       height="1.0006168">
      <feGaussianBlur
         inkscape:collect="always"
         stdDeviation="0.0036514503"
         id="feGaussianBlur2315" />
    </filter>
    <radialGradient
       inkscape:collect="always"
       xlink:href="#linearGradient1220"
       id="radialGradient1224"
       cx="169.88196"
       cy="92.181862"
       fx="169.88196"
       fy="92.181862"
       r="63.496876"
       gradientTransform="matrix(1,0,0,0.42543855,0,52.964144)"
       gradientUnits="userSpaceOnUse" />
  </defs>
  <g
     inkscape:label="Layer 1"
     inkscape:groupmode="layer"
     id="layer1">
    <g
       id="g1244"
       transform="translate(-8.9118414,-9.4688315)">
      <ellipse
         style="opacity:0.992793;fill:url(#radialGradient1224);fill-opacity:1;stroke-width:0.206136"
         id="path1134"
         cx="169.88196"
         cy="92.181862"
         rx="63.496876"
         ry="27.014019" />
      <g
         id="g2619"
         transform="matrix(1.5882277,0,0,1.5846985,-117.72741,-46.37673)">
        <g
           id="g915"
           transform="matrix(3.0217256,0,0,2.8522878,32.820822,-43.07853)">
          <path
             style="fill:#bbc0c3;fill-opacity:0.647059;stroke:#f7f7f7;stroke-width:0.514655px;stroke-linecap:butt;stroke-linejoin:miter;stroke-opacity:1"
             d="m 40.348894,33.92797 0.05316,-1.399213 c 0.02053,1.255779 -0.159258,3.043695 0.02647,4.019897 0.239936,1.26114 2.293436,2.370561 4.491017,2.619845 1.967192,0.223163 6.507516,0.231779 7.945088,0.04055 2.579927,-0.343068 2.708244,-0.607909 3.696567,-1.405685 0.460073,-0.371373 0.727188,-0.919748 0.886407,-1.45017 0.35809,-1.192971 0.09604,-3.700007 0.09604,-3.700007"
             id="path14883-65-5-8"
             sodipodi:nodetypes="ccsssssc" />
          <path
             style="fill:#bbc0c3;fill-opacity:0.647059;stroke:#f7f7f7;stroke-width:0.533674px;stroke-linecap:butt;stroke-linejoin:miter;stroke-opacity:1"
             d="m 40.283299,37.199204 0.05344,-1.496743 c 0.02067,1.343316 -0.160084,3.255847 0.02662,4.300064 0.241189,1.349045 2.305405,2.535795 4.514452,2.802461 1.977456,0.238699 6.54147,0.247938 7.986544,0.04346 2.593392,-0.366984 2.722378,-0.650297 3.715858,-1.503682 0.462474,-0.397253 0.730982,-0.983835 0.891031,-1.551239 0.359959,-1.276113 0.09654,-3.95789 0.09654,-3.95789"
             id="path14883-4-4-0-7"
             sodipodi:nodetypes="ccsssssc" />
          <path
             style="fill:#bbc0c3;fill-opacity:0.647059;stroke:#f7f7f7;stroke-width:0.523963px;stroke-linecap:butt;stroke-linejoin:miter;stroke-opacity:1"
             d="m 40.247615,40.86427 0.05337,-1.444825 c 0.02064,1.296719 -0.159855,3.142909 0.02658,4.150904 0.240846,1.302251 2.302125,2.447835 4.508029,2.705252 1.974641,0.230418 6.532161,0.239337 7.975179,0.04195 2.5897,-0.354254 2.718503,-0.627739 3.710569,-1.451524 0.461816,-0.383473 0.729942,-0.949707 0.889763,-1.497429 0.359447,-1.231848 0.09641,-3.820601 0.09641,-3.820601"
             id="path14883-6-7-0-4"
             sodipodi:nodetypes="ccsssssc" />
          <ellipse
             style="fill:#bbc0c3;fill-opacity:0.647059;stroke:#f7f7f7;stroke-width:0.507145"
             id="path16594-0-1-4"
             cx="48.962597"
             cy="32.831379"
             rx="8.5943499"
             ry="2.6062331" />
          <ellipse
             style="fill:#ffffff;fill-opacity:1;stroke:#f7f7f7;stroke-width:0.603246"
             id="path17975-25-2-3"
             cx="44.814976"
             cy="36.679478"
             rx="0.43459904"
             ry="0.33417797" />
          <ellipse
             style="fill:#ffffff;fill-opacity:1;stroke:#f7f7f7;stroke-width:0.603246"
             id="path17975-4-3-0-6"
             cx="44.696449"
             cy="40.875233"
             rx="0.43459904"
             ry="0.33417797" />
          <ellipse
             style="fill:#ffffff;fill-opacity:1;stroke:#f7f7f7;stroke-width:0.603246"
             id="path17975-4-2-0-5-9"
             cx="44.854492"
             cy="44.142773"
             rx="0.43459904"
             ry="0.33417797" />
        </g>
        <g
           id="g2109"
           transform="matrix(0.12402445,-0.19106342,0.1472182,0.12540644,113.97681,66.661381)"
           style="opacity:0.992793;fill:#c2c2c2;fill-opacity:1;filter:url(#filter2313)">
          <path
             style="fill:#c2c2c2;fill-opacity:1;stroke-width:0.264583"
             d="m 85.491385,145.25019 c -3.382324,-0.30888 -8.476414,-1.5389 -10.37605,-2.50539 -1.128554,-0.57419 -1.5302,-1.18484 -1.5302,-2.32647 0,-1.07786 0.4895,-1.30073 5.820833,-2.65023 2.401094,-0.60778 4.63883,-1.28382 4.972747,-1.5023 0.732418,-0.47923 1.05895,-1.27388 1.272887,-3.09769 0.214956,-1.8325 -0.253309,-3.43054 -1.366187,-4.66236 -1.103886,-1.22187 -2.011874,-1.44222 -3.8691,-0.93896 -0.773972,0.20973 -3.05074,0.76095 -5.059484,1.22494 l -3.652263,0.8436 -0.534894,-0.53489 c -0.294191,-0.29419 -0.602483,-1.03881 -0.685092,-1.65471 l -0.150198,-1.11981 2.485271,-2.43782 c 4.72836,-4.63808 10.042758,-7.40161 13.359431,-6.94701 1.498423,0.20538 2.494543,0.72491 6.202054,3.23472 3.642521,2.46581 6.554264,3.8767 9.54259,4.62389 3.15784,0.78958 12.51208,0.97382 54.3437,1.07038 27.04641,0.0624 34.67847,0.008 35.7186,-0.25481 2.2297,-0.56334 4.47254,-1.84526 6.65074,-3.8013 3.55473,-3.1922 5.8537,-3.81971 11.07649,-3.02337 5.13111,0.78237 8.33437,2.17263 8.33437,3.61724 0,1.49755 -1.29915,2.16118 -6.2177,3.17612 -3.42375,0.70648 -4.29899,1.09111 -4.52413,1.98813 -0.37148,1.48009 0.89479,4.5169 2.53298,6.07466 1.0561,1.00425 1.82895,0.98831 6.48387,-0.13372 3.90428,-0.94108 5.03378,-0.90567 5.443,0.17065 0.1868,0.49134 0.14299,0.90443 -0.16471,1.55286 -0.93666,1.97384 -5.9541,6.30654 -9.37414,8.09481 -1.45364,0.76008 -1.98594,0.89765 -3.43958,0.88893 -1.99797,-0.012 -2.9245,-0.42816 -6.93034,-3.11295 -4.98516,-3.34116 -7.31587,-4.03524 -14.89779,-4.43658 -3.07665,-0.16286 -19.91197,-0.23174 -43.39166,-0.17752 -34.87527,0.0805 -38.53304,0.12914 -40.21667,0.53446 -3.879075,0.93385 -5.657205,1.93824 -9.499126,5.36567 -1.213035,1.08216 -2.63856,2.14851 -3.167832,2.36965 -1.057711,0.44194 -3.341457,0.65621 -5.192417,0.48718 z M 203.0766,136.86014 c -0.0918,-0.23911 -0.27734,-0.43475 -0.41241,-0.43475 -0.13516,0 -0.11279,0.24813 0.0497,0.55183 0.3369,0.62951 0.61474,0.53981 0.36267,-0.11708 z m -106.605449,-1.4938 c 0.245287,0.39689 1.375746,0.32021 2.296128,-0.15574 0.792028,-0.40957 0.809721,-0.45913 0.649791,-1.8199 -0.09043,-0.76938 -0.400582,-1.91936 -0.689237,-2.55553 -0.288655,-0.63616 -0.527442,-1.34426 -0.530638,-1.57356 -0.0032,-0.22929 -0.289838,-0.68373 -0.636984,-1.00985 -0.51362,-0.48252 -0.808871,-0.55962 -1.585257,-0.41397 -0.879829,0.16505 -0.938813,0.23335 -0.757888,0.87756 0.107907,0.38422 0.190484,2.08888 0.183504,3.78814 -0.01172,2.85391 0.02238,3.07079 0.446964,2.84355 0.29166,-0.15609 0.519578,-0.14904 0.623617,0.0193 z m 24.657749,-4.6906 c -0.0671,-0.25743 -0.12638,-0.11087 -0.13177,0.32569 -0.005,0.43657 0.0495,0.64719 0.12197,0.46806 0.0725,-0.17913 0.0769,-0.53632 0.01,-0.79375 z m 53.52707,0.1934 c 0,-0.14552 -0.11906,-0.26458 -0.26459,-0.26458 -0.14552,0 -0.26458,0.11906 -0.26458,0.26458 0,0.14552 0.11906,0.26458 0.26458,0.26458 0.14553,0 0.26459,-0.11906 0.26459,-0.26458 z"
             id="path2123" />
          <path
             style="fill:#c2c2c2;fill-opacity:1;stroke-width:0.264583"
             d="m 84.565343,144.70978 c -4.122841,-0.53496 -8.85622,-1.8331 -10.018994,-2.74774 -0.898002,-0.70637 -0.948135,-1.92509 -0.101318,-2.46305 0.327421,-0.20801 2.538166,-0.8572 4.912765,-1.44266 2.374599,-0.58546 4.616965,-1.26072 4.983037,-1.50057 2.758478,-1.80743 1.471443,-9.25333 -1.688814,-9.77031 -0.695779,-0.11383 -1.600101,0.03 -2.99254,0.47592 -1.097496,0.35148 -3.342956,0.91694 -4.989911,1.2566 l -2.994463,0.61756 -0.500194,-0.61772 c -0.901812,-1.11369 -0.656943,-1.95966 1.115747,-3.85467 3.822826,-4.08661 9.873322,-7.55286 13.182603,-7.55212 1.254596,2.6e-4 3.489964,1.08997 7.029582,3.42676 1.600729,1.05677 3.58948,2.26475 4.419444,2.68439 2.157399,1.0908 5.543963,2.00887 8.573783,2.32429 3.67103,0.38217 21.07001,0.56357 55.30094,0.57657 32.03343,0.0122 31.18835,0.0487 34.31543,-1.48251 0.755,-0.36969 2.42653,-1.56409 3.7145,-2.65423 3.55937,-3.01264 3.91985,-3.15929 7.71132,-3.13714 3.31845,0.0194 6.05861,0.52601 9.19801,1.70062 2.49191,0.93234 2.746,2.51446 0.55918,3.48179 -0.85715,0.37916 -6.98772,1.72766 -8.21694,1.80743 -0.026,0.002 -0.23434,0.19017 -0.46302,0.41884 -0.28954,0.28955 -0.41577,0.91934 -0.41577,2.07441 0,2.72064 1.91921,5.9158 3.84349,6.39877 0.34891,0.0876 2.38736,-0.265 4.58961,-0.79383 2.17904,-0.52326 4.24483,-0.95137 4.59065,-0.95137 0.84044,0 1.26375,0.47103 1.26375,1.40622 0,1.52556 -5.59224,6.61537 -9.36211,8.52097 -3.20217,1.61863 -5.00129,1.2925 -9.41813,-1.70726 -2.78903,-1.89421 -5.45424,-3.26946 -7.44417,-3.84119 -4.06936,-1.16918 -5.04406,-1.19342 -47.99122,-1.19334 -25.66894,5e-5 -41.43114,0.0977 -42.59791,0.26389 -4.32187,0.6156 -7.021683,1.98219 -11.027638,5.58195 -2.650517,2.38176 -3.745052,2.87316 -6.302574,2.82955 -1.091406,-0.0186 -2.341562,-0.0802 -2.778125,-0.13682 z m 126.693547,-4.61946 c 1.74004,-0.8768 4.18112,-2.6987 5.42736,-4.05072 0.62963,-0.68306 1.10421,-1.27587 1.05464,-1.31735 -0.0496,-0.0415 -1.10216,0.0802 -2.33909,0.27027 -3.57592,0.54966 -5.03826,0.48564 -6.05583,-0.2651 -0.98919,-0.72979 -1.93761,-1.92695 -2.74222,-3.4614 -0.60535,-1.15445 -0.80141,-4.49768 -0.36075,-6.15157 0.18468,-0.69311 0.15122,-0.85989 -0.17253,-0.85989 -0.2209,0 -0.47017,-0.1786 -0.55393,-0.39688 -0.11166,-0.29098 -0.57054,-0.39687 -1.71979,-0.39687 -1.14926,0 -1.60814,-0.1059 -1.7198,-0.39688 -0.0953,-0.24834 -0.49943,-0.39687 -1.07984,-0.39687 -1.18685,0 -1.64431,0.81409 -2.04908,3.64651 -0.38932,2.72423 -0.0105,4.43841 1.72273,7.79616 1.58138,3.06356 2.68022,4.43482 4.32713,5.39998 2.62289,1.53711 4.09236,1.67338 6.261,0.58061 z M 95.383314,136.65244 c 0.331674,-0.47353 0.635312,-0.58279 1.481003,-0.53289 1.132662,0.0668 6.075363,-1.41096 6.416243,-1.91836 0.30467,-0.45349 0.2796,-0.49823 -1.13327,-2.02289 -0.73466,-0.7928 -1.67906,-2.10661 -2.09865,-2.91958 -0.767796,-1.48761 -2.364991,-3.15208 -3.02469,-3.15208 -0.1954,0 -0.503491,0.17859 -0.684649,0.39688 -0.55005,0.66277 -1.247402,0.44922 -1.881034,-0.57602 -0.820558,-1.32768 -0.91237,-0.74928 -0.225105,1.41813 0.455589,1.43679 0.568093,2.42269 0.55303,4.84643 -0.01707,2.74681 -0.182081,3.77881 -0.951881,5.95312 -0.149135,0.42124 -0.05282,0.38372 0.472223,-0.18396 0.362762,-0.39222 0.847315,-0.98118 1.07678,-1.30878 z m 79.476586,-3.18427 8.00913,-0.31854 0.20757,-0.80104 c 0.14007,-0.54056 0.41791,-0.85214 0.85441,-0.95819 0.63699,-0.15475 0.63478,-0.16024 -0.14544,-0.36047 -1.28094,-0.32874 -1.53774,-0.65913 -1.06871,-1.37496 0.23403,-0.35718 0.29563,-0.67476 0.14851,-0.76568 -0.13826,-0.0854 -1.71452,-0.20602 -3.50279,-0.26793 -1.78827,-0.0619 -4.08484,-0.18881 -5.10349,-0.282 -1.51647,-0.13874 -1.79215,-0.10707 -1.52135,0.17475 0.1929,0.20076 0.33073,1.03631 0.33073,2.00497 0,1.45689 -0.0773,1.7114 -0.62928,2.0731 -0.56245,0.36853 -3.25086,0.39726 -25.31316,0.27055 -28.47236,-0.16352 -25.77163,0.13729 -25.60274,-2.85163 0.0934,-1.65328 0.0636,-1.77509 -0.39815,-1.62852 -0.68416,0.21714 -2.97637,0.55201 -6.13271,0.89593 -3.85591,0.42014 -3.87328,0.42579 -3.67966,1.19722 0.11618,0.46291 0.0402,0.70054 -0.26103,0.81613 -0.23372,0.0897 -0.42494,0.36833 -0.42494,0.61921 0,0.25089 -0.29747,0.61536 -0.66106,0.80994 -0.36358,0.19459 -0.5926,0.42225 -0.50892,0.50592 0.0837,0.0837 2.07779,0.12602 4.43137,0.0941 2.35358,-0.0319 5.3508,0.0409 6.66049,0.16185 3.83745,0.35435 45.31447,0.34313 54.31122,-0.0147 z m 22.60718,-0.61465 c 0.30831,-1.08811 -0.23305,-3.58452 -0.98063,-4.52207 l -0.60134,-0.75416 -2.21405,0.35201 c -1.21773,0.19361 -2.98796,0.40396 -3.93384,0.46745 -2.50652,0.16825 -2.86287,0.28155 -2.95822,0.94063 -0.0522,0.36108 -0.32685,0.64083 -0.71936,0.73282 l -0.63487,0.14879 0.73411,0.33448 c 0.64626,0.29446 0.71662,0.44221 0.58801,1.23473 -0.0955,0.58831 -0.0221,1.00318 0.21182,1.19729 0.35067,0.29103 6.40078,0.75899 8.97838,0.69445 1.21273,-0.0304 1.321,-0.0888 1.52999,-0.82642 z m -67.00707,-1.57481 c 0.36641,-0.44149 0.11121,-1.54555 -0.32374,-1.40057 -0.47353,0.15784 -0.82027,0.8878 -0.64217,1.35191 0.20535,0.53516 0.54784,0.55241 0.96591,0.0487 z m 26.32711,-0.60801 c -0.0586,-0.96515 -0.0881,-0.99218 -1.08371,-0.99218 -0.9917,0 -1.02603,0.0308 -1.1056,0.99218 l -0.0821,0.99219 h 1.16584 1.16583 z m 10.87111,0.74981 c -0.0824,-0.13331 -0.0328,-0.55003 0.11013,-0.92604 0.20087,-0.52834 0.17782,-0.68366 -0.10145,-0.68366 -0.21603,0 -0.40487,0.37248 -0.46949,0.92604 -0.0767,0.65686 -0.004,0.92604 0.25125,0.92604 0.19765,0 0.29195,-0.10907 0.20956,-0.24238 z m 3.6243,-0.0884 c -0.0364,-0.10914 -0.0662,-0.49609 -0.0662,-0.85989 0,-0.48507 -0.14111,-0.66146 -0.52916,-0.66146 -0.43034,0 -0.52917,0.17639 -0.52917,0.94444 0,0.82809 0.0734,0.93403 0.59531,0.8599 0.32743,-0.0465 0.56555,-0.17385 0.52917,-0.28299 z m -47.69956,-1.05003 c 0.005,-0.10457 -0.17018,-0.1216 -0.38846,-0.0378 -0.21828,0.0838 -0.39688,0.40044 -0.39688,0.70373 0,0.54167 0.007,0.54234 0.38847,0.0378 0.21365,-0.28248 0.39224,-0.59915 0.39687,-0.70373 z m 7.48653,-2.50965 c -0.32542,-0.0628 -0.92073,-0.0644 -1.32291,-0.004 -0.40219,0.0608 -0.13593,0.1122 0.59167,0.11418 0.7276,0.002 1.05666,-0.0478 0.73124,-0.11057 z m 29.11996,-0.0121 c -5.11892,-0.0401 -13.57236,-0.0402 -18.78542,-4e-5 -5.21305,0.0401 -1.02484,0.073 9.30714,0.073 10.33198,2e-5 14.5972,-0.0328 9.47828,-0.073 z"
             id="path2121" />
          <path
             style="fill:#c2c2c2;fill-opacity:1;stroke-width:0.264583"
             d="m 85.491385,144.32401 c -6.832995,-0.56155 -11.641667,-2.17575 -11.641667,-3.90793 0,-0.75828 0.464035,-0.93906 5.53562,-2.15654 5.275496,-1.26644 5.873825,-1.61531 6.378542,-3.71921 0.625835,-2.60878 -0.01046,-5.28627 -1.746573,-7.34953 -1.16508,-1.38462 -2.046429,-1.71017 -3.612682,-1.33443 -0.906665,0.21751 -1.371882,0.47628 -1.459651,0.8119 -0.172726,0.66051 -1.885845,1.14349 -4.036923,1.13813 -1.353236,-0.003 -1.79348,0.097 -2.065523,0.47089 -0.190153,0.26135 -0.551435,0.47518 -0.80285,0.47518 -0.452207,0 -1.36496,-1.24041 -1.36496,-1.85496 0,-0.50176 3.660864,-4.14839 5.55625,-5.53464 3.405235,-2.49052 6.804739,-3.98769 9.053633,-3.98727 1.42253,2.6e-4 3.466122,0.9523 7.331329,3.41543 4.843112,3.0863 6.700095,3.88368 10.86712,4.66629 1.91636,0.35992 6.61191,0.46017 31.75,0.67786 37.88623,0.32808 55.43548,0.22175 57.31711,-0.34727 2.12293,-0.642 4.28855,-1.91528 6.44747,-3.79081 1.09141,-0.94814 2.61294,-2.03439 3.38119,-2.41389 1.34216,-0.663 1.52847,-0.68456 4.7625,-0.55103 3.51103,0.14497 7.06016,0.89017 9.19037,1.92968 0.87622,0.42758 1.05449,0.64698 1.05449,1.29778 0,0.58927 -0.21414,0.92752 -0.86477,1.36598 -1.09012,0.73463 -4.52811,1.37192 -4.82342,0.8941 -0.13918,-0.22521 -0.54916,-0.26405 -1.35668,-0.12852 -1.94653,0.32669 -2.3453,0.58409 -2.92096,1.88546 -0.99017,2.23845 -0.32157,4.99497 1.81776,7.49429 1.11775,1.30584 0.41429,1.07048 -0.89785,-0.3004 -1.38404,-1.446 -2.19329,-3.50442 -2.19629,-5.58647 -0.004,-3.00199 0.68581,-4.01587 3.29279,-4.83743 0.73416,-0.23136 1.50194,-0.47422 1.70618,-0.5397 0.52505,-0.16831 -0.44536,-0.87863 -1.21563,-0.88981 -0.31883,-0.005 -0.65759,-0.13445 -0.75279,-0.28849 -0.10008,-0.16193 -0.50186,-0.20786 -0.95249,-0.10889 -0.42867,0.0942 -0.92336,0.058 -1.0993,-0.0803 -0.99966,-0.78595 -4.00815,-0.81039 -5.50893,-0.0447 -0.53825,0.2746 -1.23015,0.81901 -1.53755,1.2098 -0.84084,1.06895 -1.43047,3.41766 -1.4527,5.78653 -0.0181,1.92544 0.0711,2.30788 0.98711,4.23333 1.6503,3.46897 3.27218,5.87022 4.56632,6.76062 2.63945,1.81598 4.33167,2.1932 6.46394,1.44089 1.95793,-0.6908 6.59022,-4.14479 7.57554,-5.64857 l 0.42127,-0.64294 -1.94869,0.19185 c -1.07178,0.10552 -1.88876,0.13178 -1.81551,0.0583 0.29713,-0.29786 5.5441,-1.48645 5.92189,-1.34147 0.62742,0.24076 0.76109,1.05794 0.31436,1.92182 -0.22259,0.43044 -1.48758,1.77584 -2.81108,2.98979 -5.41971,4.97104 -8.78411,6.38508 -11.93694,5.01701 -0.63053,-0.27359 -2.2509,-1.22597 -3.60083,-2.1164 -1.34993,-0.89042 -3.18611,-1.98831 -4.08042,-2.43975 -2.07098,-1.04543 -5.79767,-1.99209 -9.22796,-2.34411 -1.73071,-0.1776 -16.91131,-0.27485 -42.8043,-0.2742 -43.47145,0.001 -42.59196,-0.0261 -46.47249,1.43742 -2.255195,0.85054 -3.932193,1.93709 -6.656522,4.31288 -3.413329,2.97663 -3.603602,3.04007 -8.027853,2.67648 z m 4.793488,-2.97141 c 1.388627,-0.66196 4.385902,-3.2093 4.863996,-4.13383 0.367962,-0.71156 0.539179,-0.79339 1.660248,-0.79351 0.687488,-8e-5 1.891257,-0.24387 2.675046,-0.54177 0.783787,-0.2979 2.391127,-0.79982 3.571877,-1.11538 l 2.1468,-0.57375 38.36459,-0.0736 c 21.10052,-0.0405 38.62194,-0.13346 38.9365,-0.20657 0.42382,-0.0985 0.61752,-0.40291 0.74806,-1.17557 0.1521,-0.90021 0.29082,-1.06806 1.01559,-1.22879 l 0.83943,-0.18616 -0.66146,-0.25619 c -2.11241,-0.8182 -1.96716,-0.69093 -1.4459,-1.26692 0.38466,-0.42504 0.41728,-0.6401 0.17706,-1.16732 -0.28746,-0.63091 -0.38451,-0.64967 -4.07688,-0.7881 -8.45175,-0.31685 -54.48624,-0.45076 -57.696,-0.16783 -1.78002,0.1569 -4.84375,0.41849 -6.80828,0.5813 -4.40175,0.36481 -6.01358,1.01782 -4.36562,1.76868 0.64068,0.29191 0.93285,1.10647 0.39687,1.10647 -0.14552,0 -0.26458,0.23394 -0.26458,0.51986 0,0.58242 -1.10164,1.33461 -1.25978,0.86018 -0.0567,-0.17014 -0.46878,-0.22261 -1.03132,-0.13132 -0.63573,0.10317 -1.00746,0.0378 -1.1565,-0.20335 -0.34065,-0.55119 0.21482,-1.30995 0.95898,-1.30995 0.87659,0 0.60085,-0.41724 -0.40924,-0.61926 -0.56024,-0.11205 -0.8414,-0.35446 -0.96023,-0.82792 -0.19051,-0.75904 -0.21947,-0.77147 -0.92181,-0.39559 -0.28147,0.15064 -0.51177,0.50782 -0.51177,0.79375 0,0.61926 -0.33836,0.67169 -0.79375,0.12298 -0.18116,-0.21828 -0.64971,-0.39688 -1.04123,-0.39688 -0.45211,0 -0.9954,-0.29887 -1.48896,-0.8191 -1.13107,-1.1922 -3.710864,-3.11222 -4.421215,-3.29051 -0.42151,-0.10579 -0.765855,0.0159 -1.104823,0.39046 -0.270848,0.29929 -0.648965,0.54415 -0.840256,0.54415 -0.191293,0 -0.933836,-0.8632 -1.650095,-1.91822 -0.71626,-1.05503 -1.672388,-2.26793 -2.12473,-2.69534 l -0.82244,-0.7771 v 0.69595 c 0,0.38278 0.221994,0.85154 0.49332,1.04169 0.967712,0.6782 1.63505,2.35634 1.587792,3.99278 -0.02431,0.84171 -0.131816,1.58454 -0.238909,1.65073 -0.107093,0.0662 -0.272355,0.53419 -0.367248,1.04002 -0.18057,0.96252 -0.681205,1.55011 -0.681205,0.79952 0,-0.239 -0.148828,-0.38236 -0.330729,-0.31859 -0.185947,0.0652 -0.295385,0.43509 -0.249993,0.84499 0.04441,0.40097 -0.09357,0.92426 -0.306605,1.16287 -0.213039,0.23861 -0.427964,0.73027 -0.477612,1.09258 -0.12051,0.87945 -0.940733,1.02116 -1.277844,0.22079 -0.20878,-0.49569 -0.228482,-0.42253 -0.101586,0.37723 0.122758,0.77368 0.07046,0.99219 -0.23749,0.99219 -0.480501,0 -1.780641,1.64652 -1.780641,2.25504 0,0.24104 -0.26789,0.67336 -0.595312,0.96069 -0.422236,0.37055 -0.49701,0.56308 -0.257193,0.66224 0.537124,0.22209 0.08122,1.98133 -0.665726,2.56887 -0.504889,0.39715 -0.567195,0.55765 -0.290009,0.74707 0.557629,0.38107 4.211726,0.0941 5.278812,-0.41462 z m 31.822467,-9.2305 c -0.50802,-0.3996 -0.63262,-0.74444 -0.63262,-1.75076 0,-2.41631 -2.59172,-2.19758 25.67785,-2.16702 l 24.98986,0.027 0.46302,0.55446 c 0.58595,0.70167 0.60801,2.55235 0.0401,3.36317 l -0.42293,0.60382 -24.74132,-0.0665 c -23.76275,-0.0639 -24.76634,-0.0862 -25.37394,-0.56416 z m 9.4039,-0.63392 c 0.0631,-0.0543 -0.0262,-0.23958 -0.19843,-0.41178 -0.1722,-0.1722 -0.31309,-0.58694 -0.31309,-0.92163 0,-0.53358 -0.13038,-0.60855 -1.05834,-0.60855 -1.05503,0 -1.05833,0.003 -1.05833,1.03894 0,0.77098 0.11942,1.06742 0.46302,1.14941 0.46159,0.11013 1.94743,-0.0589 2.16517,-0.24639 z m 5.68675,-0.82728 c 0.0447,-0.92217 -0.0293,-1.11468 -0.42851,-1.11468 -0.41635,0 -0.43722,0.0726 -0.15211,0.52917 0.25607,0.41004 0.26009,0.64187 0.0178,1.02981 -0.3176,0.50856 -0.17997,0.89996 0.26437,0.75184 0.13441,-0.0448 0.2687,-0.58306 0.29843,-1.19614 z m 3.06214,1.00199 c 0,-0.14552 -0.36421,-0.26458 -0.80936,-0.26458 -0.4722,0 -0.74125,0.11022 -0.64584,0.26458 0.0899,0.14552 0.45415,0.26458 0.80936,0.26458 0.35522,0 0.64584,-0.11906 0.64584,-0.26458 z m 17.19792,0.1149 c 0,-0.0823 -0.12325,-0.37999 -0.27389,-0.66146 -0.19015,-0.3553 -0.1873,-0.67357 0.009,-1.04094 0.26816,-0.50107 0.20121,-0.52917 -1.26117,-0.52917 h -1.54437 l -0.0281,0.99072 c -0.0154,0.54489 0.0275,1.08067 0.0955,1.19062 0.14176,0.22937 3.00274,0.27722 3.00274,0.0502 z m 5.09827,-0.0239 c -0.17914,-0.0725 -0.53632,-0.0769 -0.79375,-0.01 -0.25744,0.0671 -0.11087,0.12638 0.32569,0.13177 0.43656,0.005 0.64719,-0.0495 0.46806,-0.12197 z m 1.51631,-0.091 c 0,-0.14552 -0.11203,-0.26458 -0.24896,-0.26458 -0.13694,0 -0.32256,0.11906 -0.41249,0.26458 -0.0899,0.14552 0.0221,0.26458 0.24896,0.26458 0.22687,0 0.41249,-0.11906 0.41249,-0.26458 z m 4.01928,-0.57004 c -0.045,-0.38628 0.0443,-0.78026 0.19843,-0.87551 0.56959,-0.35203 0.25482,-0.70214 -0.55898,-0.62173 -0.70115,0.0693 -0.85578,0.20871 -0.94007,0.84771 -0.14428,1.09375 0.0968,1.53442 0.78589,1.43657 0.47371,-0.0673 0.57966,-0.22928 0.51473,-0.78704 z m 3.34254,0.60439 c 0.21071,-0.13359 0.31617,-0.58019 0.26458,-1.12043 -0.082,-0.85825 -0.13799,-0.90202 -1.25718,-0.98194 -1.02057,-0.0729 -1.12861,-0.0321 -0.83912,0.31671 0.18275,0.22021 0.30975,0.67457 0.28222,1.0097 -0.0275,0.33512 -0.0369,0.69862 -0.0208,0.80776 0.0394,0.2673 1.13346,0.24514 1.57027,-0.0318 z m -47.23016,-0.53647 c -0.0722,-0.27616 0.003,-0.75241 0.16637,-1.05833 0.27559,-0.51495 0.23039,-0.55622 -0.60937,-0.55622 -0.95821,0 -1.22824,0.32469 -1.22824,1.47685 0,0.55148 0.12443,0.63982 0.90127,0.63982 0.75483,0 0.87994,-0.0816 0.76997,-0.50212 z m 21.34751,-0.55621 c 0,-0.14552 -0.11906,-0.26459 -0.26458,-0.26459 -0.14552,0 -0.26459,0.11907 -0.26459,0.26459 0,0.14552 0.11907,0.26458 0.26459,0.26458 0.14552,0 0.26458,-0.11906 0.26458,-0.26458 z m 15.27418,-0.95361 c -0.0879,-0.0879 -0.31613,-0.0973 -0.50712,-0.0209 -0.21107,0.0845 -0.14837,0.14715 0.15985,0.15985 0.27892,0.0115 0.43519,-0.0511 0.34727,-0.13897 z m 37.21538,3.90903 c 0.4974,-1.74454 -0.76077,-6.28462 -1.81494,-6.5492 -0.32734,-0.0822 -1.94686,0.0975 -3.59895,0.39928 -1.65208,0.30177 -3.54974,0.54866 -4.21702,0.54866 -1.34616,0 -1.84823,0.33576 -1.84823,1.23598 0,0.45589 -0.2076,0.65482 -0.8599,0.82399 l -0.85989,0.22301 0.85484,0.2982 c 0.8069,0.28147 0.85192,0.36561 0.80255,1.49991 -0.0288,0.66094 0.0894,1.3434 0.26256,1.51658 0.20463,0.20463 1.6373,0.34657 4.09224,0.40544 2.07757,0.0498 4.19411,0.1981 4.70343,0.32951 1.62935,0.42037 2.20312,0.25139 2.48331,-0.73136 z M 89.724718,120.01555 c 0,-0.33348 -1.263221,-0.93597 -1.489013,-0.71017 -0.09012,0.0901 -0.09336,0.34758 -0.0072,0.57214 0.172364,0.44917 1.496199,0.5713 1.496199,0.13803 z"
             id="path2119" />
          <path
             style="fill:#c2c2c2;fill-opacity:1;stroke-width:0.264583"
             d="m 84.565343,143.56599 c -1.600729,-0.11873 -3.505729,-0.34894 -4.233333,-0.51157 -1.794697,-0.40117 -5.479478,-1.61185 -5.886979,-1.93425 -0.412632,-0.32645 -0.430875,-1.16207 -0.03077,-1.40935 0.370059,-0.22871 3.993454,-0.93229 4.124801,-0.80095 0.05231,0.0523 -0.415846,0.30322 -1.040346,0.55758 l -1.135456,0.46246 1.190625,0.52317 c 3.36504,1.47866 10.808579,2.15535 12.7,1.15455 1.453386,-0.76902 4.207049,-3.09288 4.798065,-4.04916 0.449167,-0.72677 0.695486,-0.8685 1.509427,-0.8685 0.534969,0 2.004054,-0.3508 3.264635,-0.77955 4.793208,-1.6303 2.369708,-1.55125 50.355998,-1.64247 42.68512,-0.0811 43.97485,-0.0691 45.84058,0.42692 2.31752,0.61615 2.52147,0.48983 2.52147,-1.56165 0,-0.80868 0.0749,-1.47033 0.16652,-1.47033 0.0916,0 0.8745,1.22039 1.73981,2.71198 1.85221,3.19278 3.08294,4.60939 4.83124,5.56094 2.83703,1.5441 4.58114,1.42311 7.728,-0.53611 2.32737,-1.449 5.83175,-4.68442 5.83175,-5.38416 0,-1.0147 2.19319,-1.01986 2.33736,-0.005 0.0696,0.4901 -0.42894,1.12329 -2.35182,2.98669 -4.60946,4.46688 -6.84658,5.66086 -10.23371,5.46182 -1.95136,-0.11466 -2.24992,-0.22328 -5.92271,-2.15483 -4.26393,-2.24241 -6.51353,-3.10439 -10.28745,-3.94181 -2.48468,-0.55135 -2.98136,-0.55894 -43.25937,-0.66071 -42.64588,-0.10777 -44.09833,-0.0763 -47.72478,1.03418 -2.545893,0.77959 -5.446218,2.36398 -7.709191,4.21136 -3.411825,2.78526 -4.12521,2.99004 -9.124366,2.61925 z m 0.778734,-7.53464 c 0.566181,-1.06484 0.676053,-1.62173 0.67389,-3.41568 -0.0029,-2.41478 -0.606814,-4.09046 -2.078063,-5.76612 -1.337284,-1.52309 -2.012997,-1.67775 -4.40166,-1.00749 -3.662576,1.02772 -7.961233,2.02055 -8.283405,1.91316 -0.173546,-0.0578 -0.315538,-0.37136 -0.315538,-0.69671 0,-0.66792 3.837433,-4.55562 5.820834,-5.89708 1.072607,-0.72545 4.81998,-2.71813 4.497916,-2.39179 -0.07276,0.0737 -1.336144,1.07011 -2.807519,2.21417 -3.032158,2.35765 -6.093919,5.12283 -5.672283,5.12283 0.154885,0 1.887203,-0.35719 3.849594,-0.79375 1.962391,-0.43656 4.226837,-0.79375 5.032101,-0.79375 1.38502,0 1.529202,0.0651 2.668897,1.20478 0.662629,0.66263 1.522699,1.88302 1.911266,2.71198 0.601616,1.28347 0.706486,1.86067 0.706486,3.88845 0,2.57822 -0.429904,3.75712 -1.668662,4.57588 l -0.610329,0.4034 z m 98.171443,-2.52283 c -0.0921,-0.14907 -0.0897,-0.62532 0.005,-1.05833 0.14268,-0.64964 0.3053,-0.7873 0.93003,-0.7873 1.20724,0 1.17052,-0.47424 -0.0639,-0.82544 -0.62266,-0.17716 -1.22422,-0.40009 -1.3368,-0.49541 -0.38933,-0.32965 0.73872,-0.99637 1.99062,-1.17654 1.0399,-0.14965 1.25677,-0.10958 1.25677,0.23222 0,0.30555 -0.27552,0.41309 -1.05833,0.41309 -1.33148,0 -1.36356,0.39059 -0.0662,0.80519 1.38359,0.44214 1.53604,0.65088 1.03446,1.41638 -0.26498,0.40442 -0.33164,0.72406 -0.17162,0.82295 0.46597,0.28799 0.27683,0.70013 -0.24526,0.53442 -0.27879,-0.0885 -0.58347,-0.037 -0.67707,0.11446 -0.21922,0.35471 -1.37965,0.35784 -1.59814,0.004 z m -74.34894,-1.32458 c -0.0961,-0.1555 -0.54466,-0.20214 -1.04365,-0.10853 -0.56897,0.10674 -0.94613,0.0493 -1.07812,-0.16431 -0.28287,-0.45768 0.59685,-1.04196 1.56881,-1.04196 0.98645,0 0.64638,-0.39782 -0.61466,-0.71905 -0.97831,-0.2492 -1.43157,-0.86859 -0.63535,-0.86823 0.52895,2.3e-4 2.86276,0.83407 3.15644,1.12775 0.10019,0.10019 0.0472,0.34482 -0.11783,0.54363 -0.165,0.1988 -0.22453,0.43693 -0.13229,0.52916 0.19027,0.19028 -0.38769,0.97424 -0.71824,0.97424 -0.11912,0 -0.29242,-0.12272 -0.38511,-0.2727 z m 20.84095,0.0903 c 0.25466,-0.0666 0.67138,-0.0666 0.92604,0 0.25466,0.0666 0.0463,0.121 -0.46302,0.121 -0.50932,0 -0.71768,-0.0545 -0.46302,-0.121 z m 10.51719,-0.47908 c -0.33962,-0.89327 -2.11667,-0.8695 -2.11667,0.0283 0,0.20271 -0.25478,0.36857 -0.56618,0.36857 -0.5281,0 -0.55608,-0.0979 -0.41599,-1.45521 l 0.15019,-1.45521 h -0.77463 c -0.86501,0 -0.90456,0.0637 -0.47068,0.75848 0.23371,0.37423 0.21878,0.67916 -0.0646,1.31933 -0.36762,0.83051 -0.37373,0.83261 -2.42063,0.83261 -1.8549,0 -2.05208,-0.0494 -2.05208,-0.51355 0,-0.28246 -0.11906,-0.58714 -0.26459,-0.67708 -0.14552,-0.0899 -0.26458,-0.5202 -0.26458,-0.95615 0,-0.78053 -0.0192,-0.7914 -1.25677,-0.71199 l -1.25677,0.0806 -0.08,1.38907 c -0.0695,1.20653 -0.15255,1.38906 -0.63229,1.38906 -0.30378,0 -0.71427,-0.20836 -0.91222,-0.46302 -0.34276,-0.44098 -0.37703,-0.44098 -0.71979,0 -0.46729,0.60118 -0.84145,0.58459 -1.49219,-0.0661 -0.57298,-0.57298 -0.68603,-1.19474 -0.26458,-1.45521 0.14552,-0.0899 0.26458,-0.34193 0.26458,-0.55999 0,-0.30279 -0.26558,-0.37725 -1.12396,-0.31512 -1.1123,0.0805 -1.12674,0.0946 -1.39306,1.35618 -0.33546,1.58918 -0.65798,1.33632 -0.65798,-0.51585 0,-1.12883 0.10257,-1.4567 0.5267,-1.68369 0.36294,-0.19424 8.12801,-0.27274 24.97483,-0.25248 21.09195,0.0254 24.52466,0.083 25.00559,0.41987 0.44637,0.31265 0.55746,0.66693 0.55746,1.77775 0,0.76301 -0.14287,1.53017 -0.3175,1.70479 -0.22158,0.22159 -1.40051,0.30064 -3.9026,0.2617 -3.38919,-0.0527 -3.43329,-0.0599 -0.80698,-0.13158 3.96218,-0.10808 3.96875,-0.11062 3.96875,-1.53745 v -1.18559 l -3.10885,-0.0225 c -1.70987,-0.0124 -5.66387,-0.0421 -8.78666,-0.0661 l -5.67781,-0.0437 -0.0107,1.32292 c -0.0106,1.30705 2.7e-4,1.32488 0.91531,1.48652 0.82939,0.14654 0.78414,0.16725 -0.43358,0.19844 l -1.35961,0.0348 -0.19488,-0.99219 -0.19487,-0.99218 -0.31582,0.91006 c -0.43462,1.2524 -0.84083,1.2879 -1.07136,0.0936 -0.18033,-0.9342 -0.21003,-0.96079 -0.42899,-0.38396 -0.12939,0.34087 -0.16846,0.72782 -0.0868,0.8599 0.0816,0.13208 -0.0967,0.24015 -0.39636,0.24015 -0.29963,0 -0.5484,-0.14883 -0.55283,-0.33073 -0.004,-0.18355 -0.12806,-0.12468 -0.27773,0.13229 -0.40646,0.69785 -2.36146,0.6471 -2.54798,-0.0661 -0.0761,-0.29104 -0.21709,-0.52916 -0.3133,-0.52916 -0.0962,0 -0.37881,0.23812 -0.62801,0.52916 -0.2492,0.29105 -0.69238,0.52917 -0.98484,0.52917 -0.29247,0 -0.76988,-0.23812 -1.06093,-0.52917 -0.62503,-0.62503 -0.79375,-0.65917 -0.79375,-0.1606 0,0.20272 -0.18833,0.44084 -0.41851,0.52917 -0.62549,0.24002 -0.71181,0.20067 -0.5403,-0.24629 0.1728,-0.45031 -0.43414,-0.80291 -0.89345,-0.51904 -0.20806,0.12859 -0.20248,0.28487 0.0197,0.55261 0.25035,0.30166 0.20078,0.37332 -0.25828,0.37332 -0.36254,0 -0.65912,-0.23935 -0.8196,-0.66146 z m 5.17362,-0.94909 c 0.27266,-0.44117 -0.34057,-0.94708 -0.70557,-0.58209 -0.30531,0.30531 -0.11422,0.86972 0.29445,0.86972 0.12834,0 0.31335,-0.12943 0.41112,-0.28763 z m 2.96228,-0.39591 c -0.25214,-0.25214 -0.75763,0.15626 -0.56973,0.4603 0.11169,0.18071 0.25968,0.17614 0.4497,-0.0139 0.15577,-0.15577 0.20979,-0.35666 0.12003,-0.44642 z m -13.42757,0.15438 c 0,-0.14552 -0.11203,-0.26459 -0.24897,-0.26459 -0.13693,0 -0.32255,0.11907 -0.41249,0.26459 -0.0899,0.14552 0.0221,0.26458 0.24897,0.26458 0.22687,0 0.41249,-0.11906 0.41249,-0.26458 z m -8.19087,-1.15296 c -0.35327,-0.35327 -0.94567,0.18207 -0.67898,0.61359 0.13727,0.22209 0.28602,0.21723 0.57025,-0.0187 0.26677,-0.2214 0.30007,-0.40359 0.10873,-0.59493 z m 30.61739,2.81791 c 0.32912,-0.0633 0.80537,-0.0609 1.05834,0.005 0.25296,0.0662 -0.0163,0.118 -0.5984,0.11506 -0.58208,-0.003 -0.78905,-0.0571 -0.45994,-0.1204 z m 2.92387,0.006 c 0.191,-0.0764 0.4192,-0.067 0.50712,0.0209 0.0879,0.0879 -0.0684,0.15045 -0.34726,0.13896 -0.30823,-0.0127 -0.37092,-0.0754 -0.15986,-0.15985 z m 5.27531,-0.76717 c -0.0823,-0.0823 -1.60659,-0.14049 -3.38739,-0.12938 -2.03816,0.0127 -3.37067,-0.0901 -3.5964,-0.2774 -0.26776,-0.22223 -0.46193,-0.21182 -0.76666,0.0411 -0.54207,0.44988 -1.02862,-0.0277 -0.79099,-0.77642 0.14249,-0.44896 0.38913,-0.55502 1.28305,-0.55175 0.60866,0.002 1.27883,0.11299 1.48927,0.24613 0.22392,0.14166 0.56377,0.14512 0.81936,0.008 0.27317,-0.1462 0.54682,-0.12366 0.73065,0.0602 0.20345,0.20346 0.39913,0.20991 0.63584,0.021 0.18807,-0.15012 1.22509,-0.25818 2.30448,-0.24014 1.83919,0.0307 1.96531,0.0705 2.0066,0.63216 0.044,0.59903 -0.44533,1.24874 -0.72781,0.96626 z m 2.72792,-0.10046 c -0.47512,-0.29363 -0.234,-1.17685 0.35209,-1.28972 0.54977,-0.10588 0.97526,0.38917 0.77748,0.90458 -0.17266,0.44994 -0.72178,0.63717 -1.12957,0.38514 z m 38.05539,-1.24902 c -0.49725,-1.45215 -0.4409,-4.00741 0.11118,-5.04221 0.58311,-1.09296 1.73564,-1.65703 5.27512,-2.58175 1.56435,-0.4087 2.84427,-0.83467 2.84427,-0.9466 0,-0.26062 -1.13531,-0.62424 -4.04514,-1.29557 -3.15791,-0.72857 -6.76446,-0.72216 -8.39027,0.0149 -2.34943,1.06513 -3.15774,2.32256 -3.92072,6.09923 -0.35712,1.76769 -0.55211,2.3119 -0.68187,1.90307 -0.1,-0.31491 -0.42358,-0.88004 -0.71919,-1.25584 -0.62377,-0.793 -1.30059,-0.85095 -3.4034,-0.29136 -0.79702,0.2121 -2.64249,0.52228 -4.10104,0.68929 -1.94563,0.22278 -2.7749,0.43304 -3.1137,0.78947 -0.67064,0.70552 -2.84844,0.56407 -3.13237,-0.20345 -0.19827,-0.53597 -0.40895,-0.5491 -11.66533,-0.72696 -17.49616,-0.27646 -50.24988,-0.3065 -56.11186,-0.0515 -4.84185,0.21065 -5.22552,0.26357 -5.22552,0.72081 0,0.66928 -1.48892,1.44741 -1.98376,1.03673 -0.19703,-0.16352 -0.57543,-0.26029 -0.84088,-0.21505 -0.36842,0.0628 -0.48062,-0.0844 -0.47405,-0.62182 0.009,-0.69662 -0.0164,-0.70605 -2.34903,-0.89067 -2.00929,-0.15903 -2.65406,-0.3382 -4.36397,-1.21266 -2.653326,-1.35692 -3.594909,-1.52843 -4.373806,-0.7967 -0.328662,0.30876 -0.721257,0.56139 -0.872429,0.56139 -0.15117,0 -0.837861,-0.84668 -1.525978,-1.88151 -0.688117,-1.03484 -1.73278,-2.40405 -2.321474,-3.04271 -1.594197,-1.7295 -1.191118,-1.58598 3.142282,1.11888 5.352449,3.34094 7.211125,3.75019 18.476635,4.0682 4.65667,0.13145 24.00432,0.24339 42.99479,0.24874 37.52032,0.0106 36.22982,0.0581 39.22087,-1.44421 0.71762,-0.36044 2.44193,-1.55346 3.8318,-2.65115 2.93597,-2.31878 3.54238,-2.66443 5.35734,-3.05367 2.42568,-0.52021 8.82189,0.50432 12.26608,1.96476 1.32223,0.56066 1.21348,1.21218 -0.29537,1.76954 -0.62163,0.22963 -1.06193,0.48581 -0.97844,0.5693 0.0835,0.0835 -0.0259,0.21997 -0.24302,0.30329 -0.26767,0.10272 -0.34743,0.028 -0.24768,-0.2319 0.0809,-0.21087 0.007,-0.3834 -0.16488,-0.3834 -0.38048,0 -5.88417,1.25877 -6.4455,1.47418 -0.90452,0.34709 -1.70404,3.70211 -1.26294,5.29966 0.36721,1.32991 0.1714,1.46879 -0.26675,0.1892 z"
             id="path2117" />
          <path
             style="fill:#c2c2c2;fill-opacity:1;stroke-width:0.264583"
             d="m 84.238766,143.2979 c -4.299388,-0.34995 -9.886846,-1.9976 -10.074253,-2.97072 -0.141067,-0.7325 0.69689,-0.85045 1.767424,-0.24877 2.276318,1.27936 7.739895,2.28737 11.505291,2.12268 2.395076,-0.10475 2.591543,-0.15911 3.925726,-1.08631 1.610855,-1.11948 3.226123,-2.60758 3.828773,-3.52733 0.301236,-0.45975 0.65805,-0.63289 1.304255,-0.63289 0.489265,0 1.636432,-0.28093 2.549258,-0.62428 0.912828,-0.34335 2.79078,-0.8994 4.17323,-1.23566 l 2.51354,-0.61139 44.45,-0.0211 44.45,-0.0211 1.71979,0.5919 c 2.24163,0.7715 2.64583,0.76522 2.64583,-0.0411 0,-0.79008 0.24971,-1.47685 0.53698,-1.47685 0.11867,0 0.82823,0.99872 1.5768,2.21938 1.57098,2.56175 1.9573,2.96359 4.06929,4.23279 2.82724,1.69903 4.62142,1.57228 8.08695,-0.57131 1.67569,-1.03649 5.16802,-4.18795 6.31177,-5.6957 0.42372,-0.55857 1.07971,-0.5825 1.28525,-0.0469 0.35456,0.92399 -5.17939,6.00049 -8.24099,7.55976 -1.95459,0.99547 -2.25057,1.07074 -3.8652,0.98293 -1.51081,-0.0822 -2.19425,-0.31664 -5.02708,-1.72477 -5.69291,-2.8298 -8.87113,-3.92842 -13.33272,-4.60873 -3.47601,-0.53002 -83.16256,-0.52313 -86.12188,0.007 -4.04065,0.72446 -8.125371,2.61017 -10.980207,5.06901 -2.75312,2.37122 -4.218585,2.75289 -9.057827,2.359 z m 2.06314,-10.6329 c -0.02309,-2.4451 -0.812708,-4.44855 -2.363483,-5.99672 -0.67384,-0.6727 -1.463288,-1.36492 -1.75433,-1.53827 -0.51541,-0.30697 -0.513537,-0.31557 0.07206,-0.33073 0.868272,-0.0225 2.836282,1.90602 3.657047,3.5836 0.776523,1.58716 1.119437,4.31997 0.677176,5.39668 -0.226049,0.55033 -0.274514,0.36307 -0.288467,-1.11456 z m 97.349894,0.32081 c 0,-0.14552 0.18562,-0.26459 0.41249,-0.26459 0.22687,0 0.33891,-0.11906 0.24897,-0.26458 -0.0899,-0.14552 0.009,-0.26458 0.22066,-0.26458 0.41123,0 0.77313,0.63781 0.51076,0.90017 -0.26334,0.26334 -1.39288,0.17704 -1.39288,-0.10642 z m -11.77396,-2.18235 v -1.38953 l -9.19427,-0.0696 c -5.05685,-0.0383 -9.19427,-0.007 -9.19427,0.0697 0,0.0766 0.13785,0.36005 0.30634,0.62984 0.3297,0.52794 0.14784,1.35438 -0.29804,1.35438 -0.15008,0 -0.27288,-0.29766 -0.27288,-0.66146 0,-0.91803 -0.73573,-0.86025 -0.84232,0.0661 -0.0971,0.84376 -0.55208,0.88415 -0.74518,0.0661 -0.0728,-0.30822 -0.25136,-0.56039 -0.39688,-0.56039 -0.14552,0 -0.32411,0.25217 -0.39687,0.56039 -0.0728,0.30822 -0.25136,0.52361 -0.39688,0.47864 -0.30244,-0.0935 -0.30867,-0.91992 -0.0121,-1.60312 0.16818,-0.38742 0.0601,-0.46302 -0.66206,-0.46302 -0.81937,0 -0.8409,0.0245 -0.42519,0.48386 0.58246,0.6436 0.55226,1.1827 -0.0993,1.77235 -0.42904,0.38828 -0.68204,0.43386 -1.25677,0.22642 -0.64079,-0.23127 -0.71411,-0.38144 -0.6695,-1.37117 0.0453,-1.00391 -0.01,-1.11146 -0.57054,-1.11146 -0.50149,0 -0.59256,0.10736 -0.47441,0.5592 0.13218,0.50542 0.09,0.5291 -0.43855,0.24622 -0.45084,-0.24128 -0.67183,-0.24074 -0.96476,0.002 -0.89545,0.74316 -0.10492,1.6051 0.9529,1.03898 0.46823,-0.25059 0.55779,-0.24174 0.46324,0.0458 -0.0645,0.19603 -0.55379,0.39333 -1.08738,0.43844 -0.82596,0.0698 -1.01654,-0.0197 -1.28206,-0.60248 -0.23857,-0.52361 -0.23894,-0.75747 -0.002,-0.99484 0.48622,-0.48621 0.36778,-0.73367 -0.35111,-0.73367 -0.69276,0 -0.83868,0.24612 -0.40377,0.68103 0.14931,0.14931 0.17032,0.58442 0.0499,1.03451 -0.1335,0.49918 -0.27846,0.66239 -0.4056,0.45667 -0.25997,-0.42063 -1.41303,-0.4128 -1.56113,0.0106 -0.0848,0.24242 -0.25521,0.2071 -0.63819,-0.13229 -0.63728,-0.56472 -1.371,-0.59101 -2.10701,-0.0755 -0.30431,0.21315 -0.62845,0.31237 -0.72033,0.22049 -0.2638,-0.2638 -0.19451,-1.35356 0.0975,-1.53406 0.14553,-0.0899 0.26459,-0.26231 0.26459,-0.38305 0,-0.29242 -1.67235,-0.59535 -2.19004,-0.3967 -0.36613,0.1405 -0.36363,0.236 0.0238,0.9111 0.40441,0.70466 0.40192,0.7883 -0.038,1.27438 -0.36884,0.40756 -0.77839,0.51075 -1.89114,0.47652 -1.67424,-0.0515 -2.51928,-0.65227 -2.51928,-1.79098 0,-0.41532 -0.14825,-0.76155 -0.33072,-0.7724 -0.18191,-0.0108 -2.14553,-0.0261 -4.36361,-0.0341 -2.98568,-0.0107 -4.14306,0.077 -4.45718,0.33773 -0.37193,0.30867 -0.413,0.27204 -0.33275,-0.29666 l 0.0916,-0.6488 24.91673,-0.0675 c 27.92804,-0.0757 25.75097,-0.23506 25.75097,1.88556 0,0.98444 -0.34188,1.75286 -0.78052,1.75428 -0.08,2.6e-4 -0.14552,-0.62482 -0.14552,-1.38907 z m -22.9342,-0.15348 c 0.0629,-0.42724 -0.0519,-0.57459 -0.4474,-0.57459 -0.69636,0 -0.95698,0.45155 -0.54626,0.94644 0.42965,0.51769 0.88801,0.34616 0.99366,-0.37185 z m -13.44601,0.0786 c 0,-0.54411 -0.7911,-0.82097 -1.06757,-0.37362 -0.29294,0.47398 -0.0761,0.77879 0.55402,0.77879 0.28478,0 0.51355,-0.18049 0.51355,-0.40517 z m 5.36548,-1.40953 c -0.23964,-0.0522 -0.57577,0.0966 -0.74695,0.33073 -0.17118,0.2341 -0.47671,0.43401 -0.67894,0.44424 -0.20224,0.0102 -0.12959,0.11212 0.16146,0.22642 0.37747,0.14826 0.697,0.0481 1.11465,-0.34932 0.50307,-0.47873 0.52415,-0.57052 0.14978,-0.65207 z m 1.51369,1.02095 c 0,-0.14552 -0.11906,-0.26458 -0.26458,-0.26458 -0.14552,0 -0.26459,0.11906 -0.26459,0.26458 0,0.14553 0.11907,0.26459 0.26459,0.26459 0.14552,0 0.26458,-0.11906 0.26458,-0.26459 z m -35.18958,1.31463 c 0,-0.26998 0.70092,-0.52088 1.45521,-0.52088 0.73134,0 1.4552,0.24864 1.4552,0.49985 0,0.0983 -0.65484,0.18811 -1.4552,0.19968 -0.80037,0.0116 -1.45521,-0.0688 -1.45521,-0.17865 z m 20.15013,-0.20192 c -0.49916,-0.33497 -0.71902,-0.35378 -1.13057,-0.0968 -0.36918,0.23055 -0.65603,0.2414 -1.03399,0.0391 -0.66137,-0.35396 -0.66536,-0.84429 -0.0117,-1.43585 0.48887,-0.44242 0.52659,-0.4384 0.85739,0.0913 0.41766,0.66878 0.71618,0.69859 1.14349,0.1142 0.48283,-0.6603 1.19191,-0.25545 1.19191,0.68053 0,0.99132 -0.23514,1.13183 -1.01654,0.60746 z m 35.14112,-0.32307 c -0.67914,-0.41973 0.0544,-0.74803 1.92489,-0.86152 1.7388,-0.10549 1.78594,-0.0916 1.78594,0.52655 0,0.4103 -0.1074,0.56852 -0.30361,0.44726 -0.45394,-0.28055 -2.43436,-0.34922 -2.74797,-0.0953 -0.1504,0.12178 -0.44706,0.11412 -0.65925,-0.017 z m 6.22704,0.008 c -0.19514,-0.31576 0.0525,-0.79808 0.40982,-0.79808 0.32195,0 0.32404,0.71613 0.003,0.91475 -0.13547,0.0837 -0.32109,0.0312 -0.41249,-0.11668 z m -9.54191,-0.29195 c -0.0978,-0.15821 -0.0503,-0.4151 0.10546,-0.57087 0.33017,-0.33018 1.1891,0.23475 0.94859,0.6239 -0.20138,0.32584 -0.83974,0.29373 -1.05405,-0.053 z m 1.65303,0.11844 c -0.21138,-0.21139 0.0276,-0.62457 0.3612,-0.62457 0.13694,0 0.24897,0.1786 0.24897,0.39688 0,0.40915 -0.3122,0.52565 -0.61017,0.22768 z m -3.094,-0.49227 c 0,-0.21829 0.19318,-0.39688 0.42928,-0.39688 0.35157,0 0.36965,0.0718 0.0999,0.39688 -0.18116,0.21828 -0.37433,0.39687 -0.42927,0.39687 -0.0549,0 -0.0999,-0.17859 -0.0999,-0.39687 z m -49.9401,-1.90652 c -0.64366,-0.12398 -0.82789,-0.60703 -0.23151,-0.60703 0.20009,0 0.70611,-0.0628 1.12448,-0.13947 0.41837,-0.0767 0.93927,-0.0172 1.15755,0.1323 0.35278,0.24156 0.35278,0.30071 0,0.53229 -0.40354,0.2649 -0.98072,0.28796 -2.05052,0.0819 z m 77.58791,-0.34431 c -0.0906,-0.14655 0.0266,-0.33985 0.26038,-0.42956 0.50658,-0.1944 0.78891,0.0198 0.5454,0.41382 -0.2197,0.35549 -0.59132,0.36275 -0.80578,0.0157 z M 71.045208,127.32391 c -0.267154,-0.69619 0.352023,-1.19494 1.299541,-1.0468 0.463931,0.0725 2.272261,-0.17365 4.018511,-0.5471 5.702643,-1.21953 5.537326,-0.75529 -0.264584,0.74301 -2.037291,0.52611 -3.97061,1.0296 -4.296264,1.11886 -0.409185,0.11216 -0.643102,0.0294 -0.757204,-0.26797 z m 109.486652,-0.0922 c -2.36156,-0.0508 -3.72169,-0.17794 -3.6224,-0.3386 0.0958,-0.15493 2.65909,-0.25725 6.44478,-0.25725 8.63502,0 10.63703,-0.43468 14.10589,-3.0627 1.04064,-0.78839 1.92314,-1.40236 1.96112,-1.36438 0.0772,0.0772 -0.8506,3.16369 -1.23556,4.11031 l -0.24776,0.60926 -0.61053,-0.70978 -0.61053,-0.70979 -2.36535,0.68132 c -2.62262,0.75542 -6.35396,1.26861 -8.58305,1.18048 -0.80037,-0.0316 -3.15684,-0.0941 -5.23661,-0.13887 z m -74.13839,-0.47041 c -0.21828,-0.0428 -1.25969,-0.21829 -2.31425,-0.39006 -1.05455,-0.17176 -1.99219,-0.43337 -2.08365,-0.58135 -0.10045,-0.16254 0.0302,-0.20948 0.32987,-0.11859 1.04556,0.3171 6.11675,0.69997 9.27105,0.69997 2.12921,0 3.23702,0.0936 3.13135,0.26459 -0.1452,0.23493 -7.23116,0.34159 -8.33437,0.12544 z m 100.27708,-0.86789 c 0,-0.43579 1.08621,-1.63984 1.8093,-2.00559 0.38733,-0.19593 1.9544,-0.67741 3.48237,-1.06998 1.52797,-0.39256 3.07787,-0.92736 3.44422,-1.18844 0.74571,-0.53142 1.84744,-0.32276 1.84744,0.34989 0,0.4419 -0.42658,0.60875 -2.42179,0.9472 -5.51772,0.93599 -7.63237,1.64088 -7.63237,2.54413 0,0.18714 -0.11906,0.41384 -0.26459,0.50378 -0.14552,0.0899 -0.26458,0.0535 -0.26458,-0.081 z M 94.442974,124.84987 c -0.857931,-1.01637 -2.911571,-4.07769 -2.806165,-4.1831 0.06179,-0.0618 1.389492,0.69043 2.950459,1.67158 2.31916,1.45772 2.71966,1.79874 2.190289,1.86498 -0.356306,0.0446 -0.857255,0.31248 -1.113216,0.59531 -0.572034,0.63209 -0.725617,0.63853 -1.221367,0.0512 z"
             id="path2115" />
          <path
             style="fill:#c2c2c2;fill-opacity:1;stroke-width:0.264583"
             d="m 83.242426,143.01348 c -3.594197,-0.4272 -8.675976,-1.98945 -8.816796,-2.71049 -0.106545,-0.54553 0.557263,-0.57351 1.351626,-0.057 1.797057,1.16858 8.776753,2.4408 12.090181,2.20373 2.285043,-0.1635 3.695333,-0.94434 6.184131,-3.42399 1.401419,-1.39626 1.986757,-1.80664 2.576904,-1.80664 0.419976,0 1.508988,-0.29273 2.420025,-0.65051 0.911037,-0.35778 2.668463,-0.92333 3.905383,-1.25677 l 2.24896,-0.60626 44.71459,0.005 44.71458,0.005 2.21505,0.71815 c 1.21827,0.39498 2.3196,0.65353 2.44739,0.57455 0.1278,-0.079 0.23235,-0.44415 0.23235,-0.81149 0,-1.04047 0.5276,-0.64824 2.01476,1.49779 1.71102,2.46909 4.09291,4.16084 6.46388,4.59104 2.25711,0.40953 6.32034,-1.85031 9.98725,-5.55459 2.03077,-2.05149 2.70078,-2.548 2.70078,-2.0014 0,0.46235 -3.79438,4.2997 -5.50684,5.5692 -2.62571,1.94653 -4.33953,2.67676 -6.28959,2.67989 -1.42092,0.002 -1.91804,-0.15629 -4.23334,-1.35035 -3.20241,-1.65156 -7.9319,-3.53094 -10.60812,-4.21541 -4.19166,-1.07204 -5.17436,-1.0943 -47.21421,-1.06954 -44.3436,0.0261 -43.17927,-0.0118 -47.039602,1.53156 -2.272212,0.90842 -5.331774,2.72651 -6.868985,4.08177 -1.945535,1.71526 -3.040075,2.16476 -5.457023,2.24111 -1.164167,0.0368 -3.069167,-0.0464 -4.233334,-0.18472 z m 88.503124,-13.64003 c -0.3638,-0.19173 -1.61396,-0.367 -2.77812,-0.3895 l -2.11667,-0.0409 2.11667,-0.20822 c 2.38336,-0.23446 3.19734,-0.12132 3.42666,0.47628 0.2113,0.55064 0.12788,0.57152 -0.64854,0.16235 z m -49.47708,-0.35639 c 0,-0.14552 0.12609,-0.26459 0.2802,-0.26459 0.15411,0 0.20661,0.11907 0.11667,0.26459 -0.0899,0.14552 -0.21602,0.26458 -0.2802,0.26458 -0.0642,0 -0.11667,-0.11906 -0.11667,-0.26458 z m 2.33164,-0.18074 c 0.19099,-0.0764 0.4192,-0.067 0.50712,0.0209 0.0879,0.0879 -0.0683,0.15046 -0.34727,0.13897 -0.30822,-0.0127 -0.37092,-0.0754 -0.15985,-0.15985 z m 30.1625,0 c 0.19099,-0.0764 0.4192,-0.067 0.50712,0.0209 0.0879,0.0879 -0.0684,0.15046 -0.34727,0.13897 -0.30822,-0.0127 -0.37092,-0.0754 -0.15985,-0.15985 z m 5.82083,0 c 0.191,-0.0764 0.4192,-0.067 0.50712,0.0209 0.0879,0.0879 -0.0684,0.15046 -0.34726,0.13897 -0.30823,-0.0127 -0.37092,-0.0754 -0.15986,-0.15985 z m 2.36472,0.006 c 0.1819,-0.0734 0.47955,-0.0734 0.66145,0 0.1819,0.0734 0.0331,0.13345 -0.33073,0.13345 -0.3638,0 -0.51263,-0.06 -0.33072,-0.13345 z m -91.69753,-1.85336 c 0.107123,-0.55235 0.496224,-0.68634 1.011588,-0.34835 0.352778,0.23136 0.352778,0.28923 0,0.52081 -0.611139,0.40119 -1.106464,0.31674 -1.011588,-0.17246 z m 126.17027,-1.53031 c -0.17258,-0.20794 -0.55219,-0.41499 -0.84359,-0.46011 -0.43095,-0.0667 -0.27761,-0.27373 0.82184,-1.10944 0.7434,-0.56507 1.40684,-0.97222 1.47429,-0.90476 0.16036,0.16035 -0.65639,2.55427 -0.92893,2.7227 -0.11541,0.0713 -0.35103,-0.0404 -0.52361,-0.24839 z M 93.905663,123.79154 c -0.358531,-0.54571 -0.874344,-1.33495 -1.14625,-1.75387 l -0.494377,-0.76168 0.912654,0.47149 c 0.501959,0.25932 1.357468,0.76562 1.901134,1.12512 l 0.988478,0.65362 -0.591603,0.62418 c -0.325385,0.3433 -0.665081,0.62624 -0.754883,0.62875 -0.0898,0.003 -0.456623,-0.44191 -0.815153,-0.98761 z m 121.876197,-1.95228 c 0.49639,-0.39045 0.80054,-0.47868 0.99159,-0.28764 0.43408,0.43409 -0.004,0.85085 -0.89378,0.85085 h -0.81382 z"
             id="path2113" />
          <path
             style="fill:#c2c2c2;fill-opacity:1;stroke-width:0.264583"
             d="m 200.18317,138.27936 c -1.74904,-0.7131 -4.24936,-1.58903 -5.55625,-1.94652 -4.4492,-1.21701 -4.47295,-1.2315 -1.75413,-1.06939 1.43926,0.0858 3.36738,0.41488 4.6097,0.78672 2.02911,0.60734 2.16078,0.61642 2.64081,0.182 0.47921,-0.43368 0.51894,-0.43271 0.77171,0.019 0.14657,0.2619 0.79302,1.12263 1.43656,1.91272 0.64354,0.79009 1.13894,1.43102 1.10088,1.42428 -0.038,-0.007 -1.50023,-0.59569 -3.24928,-1.30879 z m -105.132257,0.24417 c 0.592828,-0.89285 1.207328,-1.2267 1.577168,-0.85686 0.228073,0.22807 0.01947,0.44817 -0.840669,0.88698 l -1.144016,0.58363 z"
             id="path2111" />
        </g>
      </g>
    </g>
  </g>
</svg>
