<?xml version="1.0" encoding="UTF-8" standalone="no"?>
<!-- Created with Inkscape (http://www.inkscape.org/) -->

<svg
   width="150mm"
   height="110mm"
   viewBox="0 0 150 110"
   version="1.1"
   id="svg5"
   inkscape:version="1.1.1 (c3084ef, 2021-09-22)"
   sodipodi:docname="springboot_logo.svg"
   xmlns:inkscape="http://www.inkscape.org/namespaces/inkscape"
   xmlns:sodipodi="http://sodipodi.sourceforge.net/DTD/sodipodi-0.dtd"
   xmlns="http://www.w3.org/2000/svg"
   xmlns:svg="http://www.w3.org/2000/svg">
  <sodipodi:namedview
     id="namedview7"
     pagecolor="#ffffff"
     bordercolor="#666666"
     borderopacity="1.0"
     inkscape:pageshadow="2"
     inkscape:pageopacity="0.0"
     inkscape:pagecheckerboard="0"
     inkscape:document-units="mm"
     showgrid="false"
     inkscape:zoom="0.75726384"
     inkscape:cx="217.22944"
     inkscape:cy="160.44606"
     inkscape:window-width="1312"
     inkscape:window-height="779"
     inkscape:window-x="0"
     inkscape:window-y="25"
     inkscape:window-maximized="0"
     inkscape:current-layer="layer1" />
  <defs
     id="defs2" />
  <g
     inkscape:label="Layer 1"
     inkscape:groupmode="layer"
     id="layer1">
    <g
       id="g908"
       style="fill:#ebeaea;fill-opacity:1"
       transform="translate(1.7469693,-2.0963631)">
      <path
         style="fill:#ebeaea;fill-opacity:1;stroke-width:0.264583"
         d="M 69.575396,88.454432 C 46.998113,85.300758 37.467778,55.294117 53.672586,38.383797 70.070616,21.271843 101.64924,30.083534 104.66262,52.612045 107.77617,75.889338 92.360198,91.637092 69.575396,88.454432 Z M 59.455083,74.013186 c 0.882439,-1.062845 0.562125,-2.678647 -0.655871,-3.308498 -1.913732,-0.989629 -3.737598,0.887695 -2.819674,2.90232 0.590959,1.297014 2.546202,1.525519 3.475545,0.406178 z m 25.366134,-1.144204 c 9.186716,-1.947257 13.219739,-15.32972 8.561776,-28.409877 -0.07758,-0.217861 -0.678561,0.251444 -1.609127,1.256565 -2.587443,2.794746 -6.791701,5.166494 -10.860217,6.126574 -0.711073,0.167797 -3.881589,0.328916 -7.10492,0.361057 -6.559049,0.0654 -7.861314,0.333347 -10.665041,2.194355 -6.365496,4.225175 -6.361499,15.341525 0.0053,14.79784 12.594068,-1.075454 21.438197,-5.467911 26.065376,-12.94543 1.617998,-2.614685 1.978369,-1.523335 0.504825,1.528818 -3.465579,7.178255 -9.604029,11.699232 -19.217773,14.153912 -2.778125,0.70934 -2.778125,0.70934 -0.529166,0.88365 1.236927,0.09587 2.725208,0.212522 3.307291,0.259226 3.173998,0.254674 9.936367,0.133572 11.541655,-0.20669 z"
         id="path922" />
      <path
         style="fill:#ebeaea;fill-opacity:1;stroke-width:0.264583"
         d="M 70.13482,88.451202 C 47.159513,85.11039 37.495594,55.584349 53.793923,38.52508 c 18.52494,-19.389838 51.367927,-6.325194 51.367927,20.433698 0,18.912797 -15.872874,32.277608 -35.02703,29.492424 z M 58.71468,74.727153 c 2.43711,-1.018291 1.745031,-4.388024 -0.901216,-4.388024 -2.517992,0 -3.258103,3.385955 -0.958939,4.387077 1.011491,0.440433 0.808564,0.44033 1.860155,0.0011 z m 27.436843,-1.976104 c 8.183832,-2.626812 11.008603,-11.687741 8.00567,-25.67953 -0.797843,-3.717447 -0.638421,-3.591624 -2.254023,-1.778959 -4.327678,4.855549 -8.694316,6.47865 -18.226733,6.774973 -7.538964,0.234355 -8.708016,0.521524 -11.574321,2.843149 -4.269364,3.458064 -5.196166,10.812288 -1.74452,13.842873 1.066821,0.93668 1.162002,0.941252 5.697558,0.27373 11.483038,-1.690024 17.529585,-4.767138 22.474394,-11.437319 2.412849,-3.254753 2.11501,-1.305501 -0.38399,2.513061 -3.921183,5.991719 -9.279136,9.51698 -17.613989,11.589115 -4.868938,1.210468 -4.988523,1.284808 -2.12475,1.320837 1.224801,0.0154 3.298473,0.12274 4.60816,0.238514 4.45103,0.393462 11.146216,0.138406 13.136544,-0.500444 z"
         id="path920" />
      <path
         style="fill:#ebeaea;fill-opacity:1;stroke-width:0.264583"
         d="M 70.501437,88.47222 C 48.053158,84.732875 38.015402,58.138413 52.323464,40.310716 65.535372,23.848814 91.887102,26.460481 101.6938,45.203712 113.07658,66.959249 94.666026,92.497462 70.501437,88.47222 Z M 58.966862,74.800385 c 0.363637,-0.165682 0.848905,-0.696892 1.078374,-1.180463 1.161404,-2.447475 -1.942395,-4.681236 -3.851651,-2.771978 -2.00171,2.001707 0.192208,5.128455 2.773277,3.952441 z m 26.326617,-1.689124 c 9.282473,-2.212859 12.415954,-12.787027 8.45143,-28.519975 -0.30393,-1.206122 -0.411007,-1.184624 -1.675332,0.336372 -4.005492,4.81865 -9.318831,6.887601 -17.707858,6.895232 -11.216929,0.0102 -16.816577,4.172266 -16.220323,12.056119 0.389208,5.14622 1.930038,6.154021 8.050343,5.265431 10.889521,-1.581015 17.206993,-4.715304 22.030463,-10.929983 2.162765,-2.786559 2.08283,-1.650838 -0.127111,1.805922 -3.926271,6.141434 -9.320432,9.576665 -18.478772,11.768071 -4.995795,1.195393 -5.115599,1.454264 -0.689153,1.489112 1.957256,0.0154 4.630209,0.124016 5.939896,0.241353 3.212722,0.287827 8.351885,0.08689 10.426417,-0.407654 z"
         id="path918" />
      <path
         style="fill:#ebeaea;fill-opacity:1;stroke-width:0.264583"
         d="M 71.956646,88.616537 C 47.372655,85.402546 37.048008,55.606903 54.478402,38.17651 73.079905,19.575005 104.99,32.78959 104.99,59.094337 c 0,17.58084 -15.872008,31.765793 -33.033354,29.5222 z M 59.719667,74.304362 c 1.539751,-1.689952 0.421564,-4.229817 -1.862196,-4.229817 -2.73392,0 -3.651811,3.320272 -1.3194,4.772647 1.120657,0.697823 2.222491,0.509834 3.181596,-0.54283 z m 25.014279,-0.945078 c 9.61603,-1.977686 13.083911,-11.961723 9.496462,-27.340341 -0.686818,-2.944255 -0.848526,-3.059134 -2.046718,-1.454028 -3.673695,4.921308 -9.710743,7.220708 -19.036419,7.250618 -8.00272,0.02567 -11.698918,1.72424 -14.022424,6.443951 -2.331935,4.736833 -0.725993,11.554849 2.720306,11.549044 9.403356,-0.01585 19.320046,-3.958609 25.061359,-9.964126 2.681271,-2.80466 2.816637,-2.838154 1.32534,-0.327928 -3.68435,6.201675 -9.749303,10.081932 -19.185623,12.274643 -5.407981,1.256649 -6.152697,1.793319 -2.182813,1.573025 1.346068,-0.0747 3.697553,-0.02893 5.225521,0.101716 4.749126,0.406051 10.383391,0.358563 12.645009,-0.106574 z"
         id="path916" />
      <path
         style="fill:#ebeaea;fill-opacity:1;stroke-width:0.264583"
         d="M 72.750396,88.687803 C 72.022791,88.630817 71.189354,88.478552 70.898312,88.349435 70.607271,88.220321 69.476177,87.912997 68.384771,87.666493 58.085105,85.34022 49.150345,76.405461 46.824074,66.105795 46.57757,65.014389 46.244112,63.846997 46.083056,63.511588 c -0.378362,-0.787959 -0.381571,-8.496864 -0.0036,-8.740296 0.14932,-0.09618 0.356826,-0.753646 0.461124,-1.461037 1.521536,-10.319576 11.156091,-20.37015 21.844229,-22.787461 1.091406,-0.24684 2.258799,-0.580574 2.594207,-0.74163 0.787959,-0.378362 8.496864,-0.381571 8.740297,-0.0036 0.09618,0.14932 0.753644,0.356826 1.461037,0.461124 10.684713,1.575373 21.49623,12.386891 23.0716,23.071605 0.1043,0.707391 0.31181,1.364857 0.46113,1.461037 0.37793,0.243432 0.37472,7.952337 -0.004,8.740295 -0.16105,0.33541 -0.49479,1.502802 -0.74163,2.594208 -2.40632,10.63955 -12.230673,20.109067 -22.646242,21.828311 -0.63954,0.105563 -1.281864,0.285305 -1.427385,0.399422 -0.320577,0.251394 -5.302681,0.49847 -7.14375,0.354275 z M 59.715492,74.594166 c 1.880903,-1.680586 0.659653,-4.784204 -1.882548,-4.784204 -2.000325,0 -3.344383,1.96419 -2.586028,3.779189 0.799837,1.914282 2.917806,2.390627 4.468576,1.005015 z m 13.936937,-0.822542 c 18.953038,1.088715 24.837512,-5.821725 21.309515,-25.024865 -1.112943,-6.057845 -1.35034,-6.397463 -2.971226,-4.250617 -3.661021,4.848989 -8.653269,6.785084 -18.181989,7.051344 -5.783727,0.161613 -6.788893,0.253441 -8.002295,0.731054 -10.404322,4.095293 -11.244054,18.810717 -0.993538,17.410727 11.150576,-1.52292 15.73508,-3.420615 21.365104,-8.843798 2.339464,-2.253515 2.538944,-2.238211 0.892905,0.06851 -3.868362,5.421022 -9.080365,8.534729 -17.763681,10.612208 -6.045019,1.446268 -8.228419,2.664145 -3.845558,2.145009 1.439275,-0.170477 4.026961,-0.138748 8.190763,0.100433 z"
         id="path914" />
      <path
         style="fill:#ebeaea;fill-opacity:1;stroke-width:0.264583"
         d="m 73.147271,88.616331 c -1.429486,-0.119507 -1.76242,-0.208531 -1.190625,-0.318365 0.79375,-0.152469 0.79375,-0.152469 -0.04885,-0.192111 C 59.838816,87.538027 46.836984,74.531946 46.39305,62.582768 c -0.0313,-0.842598 -0.0313,-0.842598 -0.216891,-0.04885 -0.140562,0.601179 -0.214047,0.304313 -0.302893,-1.223616 -0.159885,-2.749637 0.05235,-6.720771 0.30226,-5.65555 0.18622,0.79375 0.18622,0.79375 0.217524,-0.04885 0.427183,-11.498286 11.388482,-23.075186 23.976096,-25.322623 1.164166,-0.207855 1.81901,-0.408321 1.455208,-0.445481 -1.408836,-0.143904 3.687125,-0.382481 5.688542,-0.266321 1.566907,0.09094 1.910506,0.170318 1.322916,0.305612 -0.79375,0.182762 -0.79375,0.182762 0.04885,0.214066 11.939405,0.443571 25.071178,13.575344 25.514748,25.514747 0.0313,0.842599 0.0313,0.842599 0.21752,0.04885 0.24991,-1.065221 0.46215,2.905913 0.30226,5.65555 -0.0888,1.527929 -0.16233,1.824795 -0.30289,1.223616 -0.18559,-0.79375 -0.18559,-0.79375 -0.21689,0.04885 -0.44348,11.93701 -13.577738,25.071265 -25.514748,25.514747 -0.842598,0.03131 -0.842598,0.03131 -0.04885,0.23328 0.659181,0.167733 0.541433,0.207283 -0.694531,0.233281 -0.818555,0.01722 -1.830586,0.07334 -2.248958,0.124727 -0.418373,0.05138 -1.653646,0.01876 -2.745052,-0.07247 z M 59.615559,74.960677 c 2.310834,-1.944439 1.13314,-5.283007 -1.863603,-5.283007 -1.152981,0 -1.412912,0.107522 -2.088889,0.864071 -2.429997,2.719639 1.178047,6.753479 3.952492,4.418936 z m 9.43067,-1.028583 c 2.328333,0.01159 6.495521,0.06598 9.260417,0.120851 15.445843,0.306514 20.778589,-9.108115 16.189872,-28.582205 -0.727413,-3.087069 -1.005639,-3.212774 -2.583688,-1.167331 -3.73263,4.838181 -9.11689,6.982642 -17.551111,6.990314 -11.128455,0.01012 -16.824865,4.031398 -16.824865,11.877206 0,5.764924 2.185333,7.442559 8.49971,6.525048 9.767668,-1.419294 14.730156,-3.435252 19.479977,-7.913537 2.065761,-1.947667 1.679978,-1.056881 -0.585014,1.35082 -4.214157,4.479673 -7.921774,6.38102 -16.34491,8.382013 -4.908344,1.166021 -9.345184,3.546478 -4.898201,2.627985 0.618464,-0.127741 3.02948,-0.222764 5.357813,-0.211164 z"
         id="path912" />
      <path
         style="fill:#ebeaea;fill-opacity:1;stroke-width:0.264583"
         d="m 71.8905,88.412993 c 0.254661,-0.06655 0.67138,-0.06655 0.926041,0 0.254662,0.06655 0.0463,0.121002 -0.46302,0.121002 -0.509323,0 -0.717683,-0.05445 -0.463021,-0.121002 z m 6.085416,0 c 0.254662,-0.06655 0.671381,-0.06655 0.926042,0 0.254662,0.06655 0.0463,0.121002 -0.463021,0.121002 -0.509323,0 -0.717682,-0.05445 -0.463021,-0.121002 z M 45.956571,62.137045 c 0,-0.509323 0.05445,-0.717682 0.121,-0.46302 0.06655,0.254661 0.06655,0.67138 0,0.926041 -0.06655,0.254662 -0.121,0.0463 -0.121,-0.463021 z m 58.737499,0 c 0,-0.509323 0.0545,-0.717682 0.121,-0.46302 0.0665,0.254661 0.0665,0.67138 0,0.926041 -0.0666,0.254662 -0.121,0.0463 -0.121,-0.463021 z M 45.956571,56.051629 c 0,-0.509323 0.05445,-0.717683 0.121,-0.463021 0.06655,0.254661 0.06655,0.67138 0,0.926042 -0.06655,0.254661 -0.121,0.0463 -0.121,-0.463021 z m 58.737499,0 c 0,-0.509323 0.0545,-0.717683 0.121,-0.463021 0.0665,0.254661 0.0665,0.67138 0,0.926042 -0.0666,0.254661 -0.121,0.0463 -0.121,-0.463021 z M 71.8905,29.675495 c 0.254661,-0.06655 0.67138,-0.06655 0.926041,0 0.254662,0.06655 0.0463,0.121 -0.46302,0.121 -0.509323,0 -0.717683,-0.05445 -0.463021,-0.121 z m 6.085416,0 c 0.254662,-0.06655 0.671381,-0.06655 0.926042,0 0.254662,0.06655 0.0463,0.121 -0.463021,0.121 -0.509323,0 -0.717682,-0.05445 -0.463021,-0.121 z"
         id="path910" />
    </g>
  </g>
</svg>
